<svg xmlns="http://www.w3.org/2000/svg" xmlns:v="https://svgstorm.com"
viewBox = "0 0 225 225"
width="225"
height="225">
<g fill="None" fill-opacity="0.0" stroke="#000000" stroke-opacity="0.00" stroke-width="0.3"><path d="
M 0.00 225.00 
L 225.00 225.00
L 225.00 0.00
L 0.00 0.00
L 0.00 225.00
M 182.00 36.00 
C 183.33 36.94 184.82 38.19 186.00 39.00
C 194.84 45.06 208.35 48.03 207.33 61.67 C 206.30 75.31 211.82 80.98 219.70 91.30 C 227.58 101.61 217.18 114.48 216.00 125.00
C 214.93 134.57 219.28 145.32 216.00 154.00
C 212.49 163.27 200.67 167.30 197.03 176.03 C 193.38 184.75 190.72 196.67 180.92 200.92 C 171.13 205.18 159.41 203.29 152.30 213.30 C 145.19 223.31 133.93 222.69 124.00 220.00
C 118.64 218.55 110.73 218.09 105.00 219.00
C 94.25 220.71 81.75 226.05 73.75 214.25 C 65.76 202.45 53.80 205.34 42.93 200.07 C 32.05 194.81 31.70 181.16 26.00 172.00
C 25.78 171.64 26.00 171.00 26.00 171.00
C 22.27 169.78 22.44 167.39 20.00 165.00
C 17.41 163.19 15.31 161.48 13.00 159.00
C 0.93 146.07 15.34 127.78 5.02 112.98 C -5.29 98.17 13.00 87.31 15.20 74.75 C 17.40 62.20 19.02 44.60 34.69 40.69 C 50.37 36.79 49.87 17.75 65.00 14.00
C 75.96 11.29 86.46 13.81 97.00 8.00
C 106.92 2.53 116.82 -0.68 126.25 7.75 C 135.68 16.19 151.29 10.85 162.02 13.98 C 172.75 17.10 173.20 29.85 182.00 36.00 Z"/>
</g>
<g fill="None" fill-opacity="0.0" stroke="#FCFDFC" stroke-opacity="0.98" stroke-width="0.3"><path d="
M 97.00 8.00 
C 93.47 11.43 90.64 14.84 84.00 15.00 C 77.35 15.15 70.65 13.84 65.00 14.00
C 49.87 17.75 50.37 36.79 34.69 40.69 C 19.02 44.60 17.40 62.20 15.20 74.75 C 13.00 87.31 -5.29 98.17 5.02 112.98 C 15.34 127.78 0.93 146.07 13.00 159.00
C 13.91 159.65 30.77 171.84 26.00 172.00
C 31.70 181.16 32.05 194.81 42.93 200.07 C 53.80 205.34 65.76 202.45 73.75 214.25 C 81.75 226.05 94.25 220.71 105.00 219.00
C 111.11 216.24 118.18 216.47 124.00 220.00
C 133.93 222.69 145.19 223.31 152.30 213.30 C 159.41 203.29 171.13 205.18 180.92 200.92 C 190.72 196.67 193.38 184.75 197.03 176.03 C 200.67 167.30 212.49 163.27 216.00 154.00
C 217.28 144.55 212.51 134.46 216.00 125.00
C 217.18 114.48 227.58 101.61 219.70 91.30 C 211.82 80.98 206.30 75.31 207.33 61.67 C 208.35 48.03 194.84 45.06 186.00 39.00
C 184.62 38.52 182.75 40.57 182.00 37.00
C 181.76 36.69 182.00 36.00 182.00 36.00
C 173.20 29.85 172.75 17.10 162.02 13.98 C 151.29 10.85 135.68 16.19 126.25 7.75 C 116.82 -0.68 106.92 2.53 97.00 8.00
M 120.00 42.00 
C 120.26 43.92 120.00 46.06 120.00 48.00
C 120.00 49.21 119.72 50.83 120.00 52.00
C 120.05 52.20 120.91 53.93 121.00 54.00
C 126.70 58.51 127.62 61.01 130.00 68.00
C 130.05 68.14 130.84 69.66 131.00 70.00
C 134.14 76.60 137.62 85.12 140.00 92.00
C 140.80 88.26 156.02 88.61 157.00 93.00
C 161.04 93.37 164.50 84.45 168.00 90.00
C 169.69 93.80 160.87 96.66 163.79 100.23 C 166.70 103.80 166.39 108.00 168.00 112.00
C 169.91 115.08 174.78 115.89 178.00 116.00
C 180.24 119.72 180.09 123.89 175.00 125.00
C 167.31 115.51 166.29 139.12 157.00 135.00
C 156.64 134.77 156.00 135.00 156.00 135.00
C 156.17 135.43 156.00 136.00 156.00 136.00
C 157.43 144.73 169.20 159.64 159.00 167.00
C 158.69 169.09 161.49 173.73 162.00 176.00
C 162.85 179.79 162.53 183.99 158.00 180.00
C 155.31 177.63 155.30 172.21 153.00 170.00
C 137.56 171.07 141.74 150.46 134.00 144.00
C 133.71 143.75 133.00 144.00 133.00 144.00
C 127.90 146.64 126.75 148.00 120.00 148.00
C 118.33 148.00 116.67 148.00 115.00 148.00
C 106.22 148.00 98.38 147.36 90.00 146.00
C 89.34 147.52 88.60 149.38 88.00 151.00
C 87.82 152.25 89.39 166.77 82.92 167.92 C 76.44 169.07 71.79 178.17 68.00 180.00
C 64.94 181.48 61.43 183.19 63.00 178.00
C 63.32 176.95 63.63 176.07 64.00 175.00
C 64.75 172.83 66.35 169.41 66.00 167.00
C 60.39 162.35 62.78 154.80 64.00 149.00
C 65.82 140.37 68.45 137.96 60.75 132.25 C 53.05 126.54 37.93 103.08 53.00 100.00
C 60.72 98.42 63.77 99.48 68.00 106.00
C 70.13 108.54 73.76 111.82 77.00 112.00
C 77.99 110.67 78.05 108.43 80.00 108.00
C 84.92 94.68 89.70 80.88 95.00 68.00
C 97.91 60.93 98.33 57.70 105.00 53.00
C 103.89 49.55 104.88 42.76 106.00 40.00
C 109.02 32.58 118.89 33.98 120.00 42.00 Z"/>
</g>
<g fill="None" fill-opacity="0.0" stroke="#E8E5E4" stroke-opacity="0.56" stroke-width="0.3"><path d="
M 65.00 14.00 
C 70.65 13.84 77.35 15.15 84.00 15.00 C 90.64 14.84 93.47 11.43 97.00 8.00
C 86.46 13.81 75.96 11.29 65.00 14.00 Z"/>
</g>
<g fill="None" fill-opacity="0.0" stroke="#4981DD" stroke-opacity="1.00" stroke-width="0.3"><path d="
M 106.00 40.00 
C 105.06 43.74 106.55 48.18 106.00 52.00
C 106.41 51.81 107.00 52.00 107.00 52.00
C 107.50 52.00 108.50 52.00 109.00 52.00
C 109.82 51.78 110.67 51.12 112.00 51.00
C 112.00 51.00 111.74 46.58 113.26 46.25 C 114.79 45.92 119.77 43.05 120.00 42.00
C 118.89 33.98 109.02 32.58 106.00 40.00 Z"/>
</g>
<g fill="None" fill-opacity="0.0" stroke="#D2CECD" stroke-opacity="0.11" stroke-width="0.3"><path d="
M 182.00 37.00 
C 182.82 38.05 184.70 39.00 186.00 39.00
C 184.82 38.19 183.33 36.94 182.00 36.00
C 182.00 36.00 181.76 36.69 182.00 37.00 Z"/>
</g>
<g fill="None" fill-opacity="0.0" stroke="#FCF9F7" stroke-opacity="0.76" stroke-width="0.3"><path d="
M 186.00 39.00 
C 184.70 39.00 182.82 38.05 182.00 37.00
C 182.75 40.57 184.62 38.52 186.00 39.00 Z"/>
</g>
<g fill="None" fill-opacity="0.0" stroke="#ABC9F1" stroke-opacity="1.00" stroke-width="0.3"><path d="
M 105.00 53.00 
C 105.30 52.79 105.74 52.12 106.00 52.00
C 106.55 48.18 105.06 43.74 106.00 40.00
C 104.88 42.76 103.89 49.55 105.00 53.00 Z"/>
</g>
<g fill="None" fill-opacity="0.0" stroke="#205FC2" stroke-opacity="1.00" stroke-width="0.3"><path d="
M 112.00 51.00 
C 115.01 50.73 118.90 51.55 120.00 48.00
C 120.00 46.06 120.26 43.92 120.00 42.00
C 119.77 43.05 114.79 45.92 113.26 46.25 C 111.74 46.58 112.00 51.00 112.00 51.00 Z"/>
</g>
<g fill="None" fill-opacity="0.0" stroke="#1C4581" stroke-opacity="1.00" stroke-width="0.3"><path d="
M 112.00 51.00 
C 110.67 51.12 109.82 51.78 109.00 52.00
C 111.77 52.00 117.52 50.86 120.00 52.00
C 119.72 50.83 120.00 49.21 120.00 48.00
C 118.90 51.55 115.01 50.73 112.00 51.00 Z"/>
</g>
<g fill="None" fill-opacity="0.0" stroke="#1C2026" stroke-opacity="1.00" stroke-width="0.3"><path d="
M 105.00 53.00 
C 98.33 57.70 97.91 60.93 95.00 68.00
C 94.55 77.31 102.52 86.36 112.00 86.00
C 112.50 85.98 113.84 85.77 114.00 86.00
C 117.93 82.47 117.78 80.00 124.00 82.00
C 121.69 75.71 128.29 73.99 130.00 68.00
C 127.62 61.01 126.70 58.51 121.00 54.00
C 116.63 53.17 111.57 54.00 107.00 52.00
C 107.00 52.00 106.41 51.81 106.00 52.00
C 105.74 52.12 105.30 52.79 105.00 53.00
M 115.00 58.00 
C 127.77 60.33 123.28 82.61 110.00 79.00 C 96.72 75.39 102.29 55.68 115.00 58.00 Z"/>
</g>
<g fill="None" fill-opacity="0.0" stroke="#132240" stroke-opacity="1.00" stroke-width="0.3"><path d="
M 121.00 54.00 
C 120.91 53.93 120.05 52.20 120.00 52.00
C 117.52 50.86 111.77 52.00 109.00 52.00
C 108.50 52.00 107.50 52.00 107.00 52.00
C 111.57 54.00 116.63 53.17 121.00 54.00 Z"/>
</g>
<g fill="None" fill-opacity="0.0" stroke="#F3F4F3" stroke-opacity="1.00" stroke-width="0.3"><path d="
M 115.00 58.00 
C 102.29 55.68 96.72 75.39 110.00 79.00 C 123.28 82.61 127.77 60.33 115.00 58.00 Z"/>
</g>
<g fill="None" fill-opacity="0.0" stroke="#4C88EE" stroke-opacity="1.00" stroke-width="0.3"><path d="
M 80.00 108.00 
C 79.44 109.51 78.91 112.82 78.00 114.00
C 75.47 117.28 71.93 111.55 70.00 109.00
C 69.28 108.04 68.63 106.97 68.00 106.00
C 63.77 99.48 60.72 98.42 53.00 100.00
C 44.30 104.70 49.11 114.88 53.75 120.25 C 58.40 125.61 63.52 131.69 70.00 135.00
C 67.54 139.43 67.47 145.53 64.00 149.00
C 62.78 154.80 60.39 162.35 66.00 167.00
C 67.30 168.08 71.82 169.97 73.00 170.00
C 75.32 170.05 78.29 168.10 80.00 167.00
C 81.31 165.43 78.94 161.55 83.00 162.00
C 80.15 155.40 89.29 145.94 89.92 137.92 C 90.56 129.91 95.38 120.85 98.90 112.90 C 102.42 104.96 104.99 93.92 107.00 87.00
C 108.57 86.61 111.22 87.94 112.00 86.00
C 102.52 86.36 94.55 77.31 95.00 68.00
C 89.70 80.88 84.92 94.68 80.00 108.00 Z"/>
</g>
<g fill="None" fill-opacity="0.0" stroke="#132A4A" stroke-opacity="1.00" stroke-width="0.3"><path d="
M 114.00 86.00 
C 113.75 86.22 114.00 87.00 114.00 87.00
C 114.03 87.35 114.97 87.79 115.00 88.00
C 122.16 83.59 129.57 79.37 131.00 70.00
C 130.84 69.66 130.05 68.14 130.00 68.00
C 128.29 73.99 121.69 75.71 124.00 82.00
C 117.78 80.00 117.93 82.47 114.00 86.00 Z"/>
</g>
<g fill="None" fill-opacity="0.0" stroke="#1E5ECC" stroke-opacity="1.00" stroke-width="0.3"><path d="
M 115.00 88.00 
C 116.35 96.28 120.09 104.12 123.00 112.00
C 122.67 110.02 121.96 103.26 126.00 104.00
C 124.94 107.04 124.94 107.56 128.00 108.00
C 125.42 103.00 135.79 97.10 137.00 103.00
C 137.58 99.92 138.97 96.67 140.00 94.00
C 139.94 93.51 140.15 92.45 140.00 92.00
C 137.62 85.12 134.14 76.60 131.00 70.00
C 129.57 79.37 122.16 83.59 115.00 88.00 Z"/>
</g>
<g fill="None" fill-opacity="0.0" stroke="#6A9DEE" stroke-opacity="1.00" stroke-width="0.3"><path d="
M 80.00 167.00 
C 85.48 163.46 85.95 156.52 88.00 151.00
C 88.60 149.38 89.34 147.52 90.00 146.00
C 92.75 139.70 95.73 132.85 98.00 127.00
C 100.21 121.29 101.89 111.03 104.93 105.93 C 107.96 100.82 108.24 88.22 114.00 87.00
C 114.00 87.00 113.75 86.22 114.00 86.00
C 113.84 85.77 112.50 85.98 112.00 86.00
C 111.22 87.94 108.57 86.61 107.00 87.00
C 104.99 93.92 102.42 104.96 98.90 112.90 C 95.38 120.85 90.56 129.91 89.92 137.92 C 89.29 145.94 80.15 155.40 83.00 162.00
C 78.94 161.55 81.31 165.43 80.00 167.00 Z"/>
</g>
<g fill="None" fill-opacity="0.0" stroke="#F3FAFB" stroke-opacity="1.00" stroke-width="0.3"><path d="
M 98.00 127.00 
C 98.99 126.70 100.96 126.90 102.00 127.00
C 107.88 127.58 113.04 128.03 119.00 127.00
C 121.72 126.53 124.48 126.24 127.00 125.00
C 125.49 120.81 124.57 116.24 123.00 112.00
C 120.09 104.12 116.35 96.28 115.00 88.00
C 114.97 87.79 114.03 87.35 114.00 87.00
C 108.24 88.22 107.96 100.82 104.93 105.93 C 101.89 111.03 100.21 121.29 98.00 127.00 Z"/>
</g>
<g fill="None" fill-opacity="0.0" stroke="#DFF8E2" stroke-opacity="1.00" stroke-width="0.3"><path d="
M 140.00 92.00 
C 140.34 91.77 141.00 92.00 141.00 92.00
C 147.36 87.29 155.24 96.38 161.00 95.00
C 163.39 93.75 163.17 90.65 166.00 90.00
C 166.47 89.89 168.00 90.02 168.00 90.00
C 164.50 84.45 161.04 93.37 157.00 93.00
C 156.02 88.61 140.80 88.26 140.00 92.00 Z"/>
</g>
<g fill="None" fill-opacity="0.0" stroke="#558759" stroke-opacity="1.00" stroke-width="0.3"><path d="
M 161.00 95.00 
C 164.59 94.14 163.18 92.27 166.00 90.00
C 163.17 90.65 163.39 93.75 161.00 95.00 Z"/>
</g>
<g fill="None" fill-opacity="0.0" stroke="#5DAF66" stroke-opacity="1.00" stroke-width="0.3"><path d="
M 161.00 95.00 
C 155.24 96.38 147.36 87.29 141.00 92.00
C 142.08 101.15 148.79 108.91 149.00 118.00
C 149.01 118.50 149.00 119.00 149.00 119.00
C 151.24 120.40 151.92 122.39 152.00 125.00
C 152.02 125.50 151.93 126.51 152.00 127.00
C 153.30 129.55 154.89 132.21 156.00 135.00
C 156.00 135.00 156.64 134.77 157.00 135.00
C 162.61 131.41 164.52 122.43 169.00 120.00
C 170.60 119.13 176.66 120.38 176.00 118.00
C 173.60 114.22 169.90 116.73 168.00 112.00
C 166.39 108.00 166.70 103.80 163.79 100.23 C 160.87 96.66 169.69 93.80 168.00 90.00
C 168.00 90.02 166.47 89.89 166.00 90.00
C 163.18 92.27 164.59 94.14 161.00 95.00
M 153.00 98.00 
C 155.55 99.39 153.13 104.02 149.92 102.06 C 146.71 100.11 149.74 96.22 153.00 98.00
M 156.00 124.00 
C 156.17 113.94 166.11 124.91 156.00 124.00 Z"/>
</g>
<g fill="None" fill-opacity="0.0" stroke="#4699A1" stroke-opacity="1.00" stroke-width="0.3"><path d="
M 140.00 94.00 
C 140.81 100.37 144.94 113.27 149.00 118.00
C 148.79 108.91 142.08 101.15 141.00 92.00
C 141.00 92.00 140.34 91.77 140.00 92.00
C 140.15 92.45 139.94 93.51 140.00 94.00 Z"/>
</g>
<g fill="None" fill-opacity="0.0" stroke="#4282EC" stroke-opacity="1.00" stroke-width="0.3"><path d="
M 123.00 112.00 
C 124.57 116.24 125.49 120.81 127.00 125.00
C 128.92 130.35 134.32 137.85 134.00 144.00
C 141.74 150.46 137.56 171.07 153.00 170.00
C 154.03 169.93 157.86 167.82 159.00 167.00
C 169.20 159.64 157.43 144.73 156.00 136.00
C 153.09 134.96 152.36 129.59 152.00 127.00
C 151.93 126.51 152.02 125.50 152.00 125.00
C 150.57 122.94 149.46 121.83 149.00 119.00
C 149.00 119.00 149.01 118.50 149.00 118.00
C 144.94 113.27 140.81 100.37 140.00 94.00
C 138.97 96.67 137.58 99.92 137.00 103.00
C 135.79 97.10 125.42 103.00 128.00 108.00
C 124.94 107.56 124.94 107.04 126.00 104.00
C 121.96 103.26 122.67 110.02 123.00 112.00 Z"/>
</g>
<g fill="None" fill-opacity="0.0" stroke="#093209" stroke-opacity="1.00" stroke-width="0.3"><path d="
M 153.00 98.00 
C 149.74 96.22 146.71 100.11 149.92 102.06 C 153.13 104.02 155.55 99.39 153.00 98.00 Z"/>
</g>
<g fill="None" fill-opacity="0.0" stroke="#DEF3FC" stroke-opacity="1.00" stroke-width="0.3"><path d="
M 64.00 149.00 
C 67.47 145.53 67.54 139.43 70.00 135.00
C 63.52 131.69 58.40 125.61 53.75 120.25 C 49.11 114.88 44.30 104.70 53.00 100.00
C 37.93 103.08 53.05 126.54 60.75 132.25 C 68.45 137.96 65.82 140.37 64.00 149.00 Z"/>
</g>
<g fill="None" fill-opacity="0.0" stroke="#CFEEFE" stroke-opacity="1.00" stroke-width="0.3"><path d="
M 70.00 109.00 
C 71.52 110.66 76.01 115.66 78.00 114.00
C 78.91 112.82 79.44 109.51 80.00 108.00
C 78.05 108.43 77.99 110.67 77.00 112.00
C 73.76 111.82 70.13 108.54 68.00 106.00
C 68.63 106.97 69.28 108.04 70.00 109.00 Z"/>
</g>
<g fill="None" fill-opacity="0.0" stroke="#91BCEB" stroke-opacity="1.00" stroke-width="0.3"><path d="
M 78.00 114.00 
C 76.01 115.66 71.52 110.66 70.00 109.00
C 71.93 111.55 75.47 117.28 78.00 114.00 Z"/>
</g>
<g fill="None" fill-opacity="0.0" stroke="#E1F8E4" stroke-opacity="1.00" stroke-width="0.3"><path d="
M 176.00 118.00 
C 176.52 118.81 177.49 119.60 177.00 121.00
C 174.09 121.59 171.94 119.41 169.00 120.00
C 164.52 122.43 162.61 131.41 157.00 135.00
C 166.29 139.12 167.31 115.51 175.00 125.00
C 180.09 123.89 180.24 119.72 178.00 116.00
C 174.78 115.89 169.91 115.08 168.00 112.00
C 169.90 116.73 173.60 114.22 176.00 118.00 Z"/>
</g>
<g fill="None" fill-opacity="0.0" stroke="#5C8C63" stroke-opacity="1.00" stroke-width="0.3"><path d="
M 169.00 120.00 
C 171.94 119.41 174.09 121.59 177.00 121.00
C 177.49 119.60 176.52 118.81 176.00 118.00
C 176.66 120.38 170.60 119.13 169.00 120.00 Z"/>
</g>
<g fill="None" fill-opacity="0.0" stroke="#469EA5" stroke-opacity="1.00" stroke-width="0.3"><path d="
M 152.00 125.00 
C 151.92 122.39 151.24 120.40 149.00 119.00
C 149.46 121.83 150.57 122.94 152.00 125.00 Z"/>
</g>
<g fill="None" fill-opacity="0.0" stroke="#052607" stroke-opacity="1.00" stroke-width="0.3"><path d="
M 156.00 124.00 
C 166.11 124.91 156.17 113.94 156.00 124.00 Z"/>
</g>
<g fill="None" fill-opacity="0.0" stroke="#1556C4" stroke-opacity="1.00" stroke-width="0.3"><path d="
M 119.00 127.00 
C 119.78 127.13 121.56 128.88 123.00 128.00
C 124.81 135.43 125.48 146.53 117.00 147.00
C 117.98 147.00 119.02 147.08 120.00 147.00
C 124.53 146.62 128.59 144.72 133.00 144.00
C 133.00 144.00 133.71 143.75 134.00 144.00
C 134.32 137.85 128.92 130.35 127.00 125.00
C 124.48 126.24 121.72 126.53 119.00 127.00 Z"/>
</g>
<g fill="None" fill-opacity="0.0" stroke="#EAE8E6" stroke-opacity="0.58" stroke-width="0.3"><path d="
M 216.00 154.00 
C 219.28 145.32 214.93 134.57 216.00 125.00
C 212.51 134.46 217.28 144.55 216.00 154.00 Z"/>
</g>
<g fill="None" fill-opacity="0.0" stroke="#4684EC" stroke-opacity="1.00" stroke-width="0.3"><path d="
M 90.00 146.00 
C 98.38 147.36 106.22 148.00 115.00 148.00
C 114.85 147.95 115.00 147.00 115.00 147.00
C 114.01 146.90 112.99 147.08 112.00 147.00
C 116.77 145.71 110.90 144.26 112.00 140.00 C 113.11 135.74 109.85 133.75 112.00 130.00
C 109.20 127.75 102.77 131.10 102.00 127.00
C 100.96 126.90 98.99 126.70 98.00 127.00
C 95.73 132.85 92.75 139.70 90.00 146.00 Z"/>
</g>
<g fill="None" fill-opacity="0.0" stroke="#296BDB" stroke-opacity="1.00" stroke-width="0.3"><path d="
M 115.00 147.00 
C 115.16 146.77 116.50 147.00 117.00 147.00
C 125.48 146.53 124.81 135.43 123.00 128.00
C 121.56 128.88 119.78 127.13 119.00 127.00
C 113.04 128.03 107.88 127.58 102.00 127.00
C 102.77 131.10 109.20 127.75 112.00 130.00
C 109.85 133.75 113.11 135.74 112.00 140.00 C 110.90 144.26 116.77 145.71 112.00 147.00
C 112.99 147.08 114.01 146.90 115.00 147.00 Z"/>
</g>
<g fill="None" fill-opacity="0.0" stroke="#559DA9" stroke-opacity="1.00" stroke-width="0.3"><path d="
M 156.00 136.00 
C 156.00 136.00 156.17 135.43 156.00 135.00
C 154.89 132.21 153.30 129.55 152.00 127.00
C 152.36 129.59 153.09 134.96 156.00 136.00 Z"/>
</g>
<g fill="None" fill-opacity="0.0" stroke="#CCECFB" stroke-opacity="1.00" stroke-width="0.3"><path d="
M 120.00 147.00 
C 120.25 147.27 120.00 148.00 120.00 148.00
C 126.75 148.00 127.90 146.64 133.00 144.00
C 128.59 144.72 124.53 146.62 120.00 147.00 Z"/>
</g>
<g fill="None" fill-opacity="0.0" stroke="#A1C2F7" stroke-opacity="1.00" stroke-width="0.3"><path d="
M 115.00 148.00 
C 116.67 148.00 118.33 148.00 120.00 148.00
C 120.00 148.00 120.25 147.27 120.00 147.00
C 119.02 147.08 117.98 147.00 117.00 147.00
C 116.50 147.00 115.16 146.77 115.00 147.00
C 115.00 147.00 114.85 147.95 115.00 148.00 Z"/>
</g>
<g fill="None" fill-opacity="0.0" stroke="#DCF2FD" stroke-opacity="1.00" stroke-width="0.3"><path d="
M 80.00 167.00 
C 78.29 168.10 75.32 170.05 73.00 170.00
C 70.48 172.09 69.93 177.55 68.00 180.00
C 71.79 178.17 76.44 169.07 82.92 167.92 C 89.39 166.77 87.82 152.25 88.00 151.00
C 85.95 156.52 85.48 163.46 80.00 167.00 Z"/>
</g>
<g fill="None" fill-opacity="0.0" stroke="#F6F1F2" stroke-opacity="0.67" stroke-width="0.3"><path d="
M 13.00 159.00 
C 15.31 161.48 17.41 163.19 20.00 165.00
C 22.14 166.50 24.85 168.65 26.00 171.00
C 26.00 171.00 25.78 171.64 26.00 172.00
C 30.77 171.84 13.91 159.65 13.00 159.00 Z"/>
</g>
<g fill="None" fill-opacity="0.0" stroke="#CFC4C6" stroke-opacity="0.14" stroke-width="0.3"><path d="
M 26.00 171.00 
C 24.85 168.65 22.14 166.50 20.00 165.00
C 22.44 167.39 22.27 169.78 26.00 171.00 Z"/>
</g>
<g fill="None" fill-opacity="0.0" stroke="#2762BA" stroke-opacity="1.00" stroke-width="0.3"><path d="
M 64.00 175.00 
C 64.18 174.86 67.44 175.81 68.00 176.00
C 65.39 177.05 67.63 179.00 66.00 181.00
C 66.18 180.97 67.94 180.07 68.00 180.00
C 69.93 177.55 70.48 172.09 73.00 170.00
C 71.82 169.97 67.30 168.08 66.00 167.00
C 66.35 169.41 64.75 172.83 64.00 175.00 Z"/>
</g>
<g fill="None" fill-opacity="0.0" stroke="#2259B4" stroke-opacity="1.00" stroke-width="0.3"><path d="
M 153.00 170.00 
C 155.30 172.21 155.31 177.63 158.00 180.00
C 157.74 179.55 158.95 176.30 159.00 175.00
C 160.28 174.47 160.86 175.97 162.00 176.00
C 161.49 173.73 158.69 169.09 159.00 167.00
C 157.86 167.82 154.03 169.93 153.00 170.00 Z"/>
</g>
<g fill="None" fill-opacity="0.0" stroke="#507ECC" stroke-opacity="1.00" stroke-width="0.3"><path d="
M 63.00 178.00 
C 62.97 180.20 63.38 181.49 66.00 181.00
C 67.63 179.00 65.39 177.05 68.00 176.00
C 67.44 175.81 64.18 174.86 64.00 175.00
C 63.63 176.07 63.32 176.95 63.00 178.00 Z"/>
</g>
<g fill="None" fill-opacity="0.0" stroke="#5686CA" stroke-opacity="1.00" stroke-width="0.3"><path d="
M 158.00 180.00 
C 162.53 183.99 162.85 179.79 162.00 176.00
C 160.86 175.97 160.28 174.47 159.00 175.00
C 158.95 176.30 157.74 179.55 158.00 180.00 Z"/>
</g>
<g fill="None" fill-opacity="0.0" stroke="#AEC3E4" stroke-opacity="1.00" stroke-width="0.3"><path d="
M 68.00 180.00 
C 67.94 180.07 66.18 180.97 66.00 181.00
C 63.38 181.49 62.97 180.20 63.00 178.00
C 61.43 183.19 64.94 181.48 68.00 180.00 Z"/>
</g>
<g fill="None" fill-opacity="0.0" stroke="#E8E4E5" stroke-opacity="0.62" stroke-width="0.3"><path d="
M 105.00 219.00 
C 110.73 218.09 118.64 218.55 124.00 220.00
C 118.18 216.47 111.11 216.24 105.00 219.00 Z"/>
</g>
<g fill="#000000" fill-opacity="0.00" stroke="None">
<path d="
M 0.00 225.00 
L 225.00 225.00
L 225.00 0.00
L 0.00 0.00
L 0.00 225.00
M 182.00 36.00 
C 183.33 36.94 184.82 38.19 186.00 39.00
C 194.84 45.06 208.35 48.03 207.33 61.67 C 206.30 75.31 211.82 80.98 219.70 91.30 C 227.58 101.61 217.18 114.48 216.00 125.00
C 214.93 134.57 219.28 145.32 216.00 154.00
C 212.49 163.27 200.67 167.30 197.03 176.03 C 193.38 184.75 190.72 196.67 180.92 200.92 C 171.13 205.18 159.41 203.29 152.30 213.30 C 145.19 223.31 133.93 222.69 124.00 220.00
C 118.64 218.55 110.73 218.09 105.00 219.00
C 94.25 220.71 81.75 226.05 73.75 214.25 C 65.76 202.45 53.80 205.34 42.93 200.07 C 32.05 194.81 31.70 181.16 26.00 172.00
C 25.78 171.64 26.00 171.00 26.00 171.00
C 22.27 169.78 22.44 167.39 20.00 165.00
C 17.41 163.19 15.31 161.48 13.00 159.00
C 0.93 146.07 15.34 127.78 5.02 112.98 C -5.29 98.17 13.00 87.31 15.20 74.75 C 17.40 62.20 19.02 44.60 34.69 40.69 C 50.37 36.79 49.87 17.75 65.00 14.00
C 75.96 11.29 86.46 13.81 97.00 8.00
C 106.92 2.53 116.82 -0.68 126.25 7.75 C 135.68 16.19 151.29 10.85 162.02 13.98 C 172.75 17.10 173.20 29.85 182.00 36.00 Z"/>
</g>
<g fill="#FCFDFC" fill-opacity="0.98" stroke="None">
<path d="
M 97.00 8.00 
C 93.47 11.43 90.64 14.84 84.00 15.00 C 77.35 15.15 70.65 13.84 65.00 14.00
C 49.87 17.75 50.37 36.79 34.69 40.69 C 19.02 44.60 17.40 62.20 15.20 74.75 C 13.00 87.31 -5.29 98.17 5.02 112.98 C 15.34 127.78 0.93 146.07 13.00 159.00
C 13.91 159.65 30.77 171.84 26.00 172.00
C 31.70 181.16 32.05 194.81 42.93 200.07 C 53.80 205.34 65.76 202.45 73.75 214.25 C 81.75 226.05 94.25 220.71 105.00 219.00
C 111.11 216.24 118.18 216.47 124.00 220.00
C 133.93 222.69 145.19 223.31 152.30 213.30 C 159.41 203.29 171.13 205.18 180.92 200.92 C 190.72 196.67 193.38 184.75 197.03 176.03 C 200.67 167.30 212.49 163.27 216.00 154.00
C 217.28 144.55 212.51 134.46 216.00 125.00
C 217.18 114.48 227.58 101.61 219.70 91.30 C 211.82 80.98 206.30 75.31 207.33 61.67 C 208.35 48.03 194.84 45.06 186.00 39.00
C 184.62 38.52 182.75 40.57 182.00 37.00
C 181.76 36.69 182.00 36.00 182.00 36.00
C 173.20 29.85 172.75 17.10 162.02 13.98 C 151.29 10.85 135.68 16.19 126.25 7.75 C 116.82 -0.68 106.92 2.53 97.00 8.00
M 120.00 42.00 
C 120.26 43.92 120.00 46.06 120.00 48.00
C 120.00 49.21 119.72 50.83 120.00 52.00
C 120.05 52.20 120.91 53.93 121.00 54.00
C 126.70 58.51 127.62 61.01 130.00 68.00
C 130.05 68.14 130.84 69.66 131.00 70.00
C 134.14 76.60 137.62 85.12 140.00 92.00
C 140.80 88.26 156.02 88.61 157.00 93.00
C 161.04 93.37 164.50 84.45 168.00 90.00
C 169.69 93.80 160.87 96.66 163.79 100.23 C 166.70 103.80 166.39 108.00 168.00 112.00
C 169.91 115.08 174.78 115.89 178.00 116.00
C 180.24 119.72 180.09 123.89 175.00 125.00
C 167.31 115.51 166.29 139.12 157.00 135.00
C 156.64 134.77 156.00 135.00 156.00 135.00
C 156.17 135.43 156.00 136.00 156.00 136.00
C 157.43 144.73 169.20 159.64 159.00 167.00
C 158.69 169.09 161.49 173.73 162.00 176.00
C 162.85 179.79 162.53 183.99 158.00 180.00
C 155.31 177.63 155.30 172.21 153.00 170.00
C 137.56 171.07 141.74 150.46 134.00 144.00
C 133.71 143.75 133.00 144.00 133.00 144.00
C 127.90 146.64 126.75 148.00 120.00 148.00
C 118.33 148.00 116.67 148.00 115.00 148.00
C 106.22 148.00 98.38 147.36 90.00 146.00
C 89.34 147.52 88.60 149.38 88.00 151.00
C 87.82 152.25 89.39 166.77 82.92 167.92 C 76.44 169.07 71.79 178.17 68.00 180.00
C 64.94 181.48 61.43 183.19 63.00 178.00
C 63.32 176.95 63.63 176.07 64.00 175.00
C 64.75 172.83 66.35 169.41 66.00 167.00
C 60.39 162.35 62.78 154.80 64.00 149.00
C 65.82 140.37 68.45 137.96 60.75 132.25 C 53.05 126.54 37.93 103.08 53.00 100.00
C 60.72 98.42 63.77 99.48 68.00 106.00
C 70.13 108.54 73.76 111.82 77.00 112.00
C 77.99 110.67 78.05 108.43 80.00 108.00
C 84.92 94.68 89.70 80.88 95.00 68.00
C 97.91 60.93 98.33 57.70 105.00 53.00
C 103.89 49.55 104.88 42.76 106.00 40.00
C 109.02 32.58 118.89 33.98 120.00 42.00 Z"/>
</g>
<g fill="#E8E5E4" fill-opacity="0.56" stroke="None">
<path d="
M 65.00 14.00 
C 70.65 13.84 77.35 15.15 84.00 15.00 C 90.64 14.84 93.47 11.43 97.00 8.00
C 86.46 13.81 75.96 11.29 65.00 14.00 Z"/>
</g>
<g fill="#4981DD" fill-opacity="1.00" stroke="None">
<path d="
M 106.00 40.00 
C 105.06 43.74 106.55 48.18 106.00 52.00
C 106.41 51.81 107.00 52.00 107.00 52.00
C 107.50 52.00 108.50 52.00 109.00 52.00
C 109.82 51.78 110.67 51.12 112.00 51.00
C 112.00 51.00 111.74 46.58 113.26 46.25 C 114.79 45.92 119.77 43.05 120.00 42.00
C 118.89 33.98 109.02 32.58 106.00 40.00 Z"/>
</g>
<g fill="#D2CECD" fill-opacity="0.11" stroke="None">
<path d="
M 182.00 37.00 
C 182.82 38.05 184.70 39.00 186.00 39.00
C 184.82 38.19 183.33 36.94 182.00 36.00
C 182.00 36.00 181.76 36.69 182.00 37.00 Z"/>
</g>
<g fill="#FCF9F7" fill-opacity="0.76" stroke="None">
<path d="
M 186.00 39.00 
C 184.70 39.00 182.82 38.05 182.00 37.00
C 182.75 40.57 184.62 38.52 186.00 39.00 Z"/>
</g>
<g fill="#ABC9F1" fill-opacity="1.00" stroke="None">
<path d="
M 105.00 53.00 
C 105.30 52.79 105.74 52.12 106.00 52.00
C 106.55 48.18 105.06 43.74 106.00 40.00
C 104.88 42.76 103.89 49.55 105.00 53.00 Z"/>
</g>
<g fill="#205FC2" fill-opacity="1.00" stroke="None">
<path d="
M 112.00 51.00 
C 115.01 50.73 118.90 51.55 120.00 48.00
C 120.00 46.06 120.26 43.92 120.00 42.00
C 119.77 43.05 114.79 45.92 113.26 46.25 C 111.74 46.58 112.00 51.00 112.00 51.00 Z"/>
</g>
<g fill="#1C4581" fill-opacity="1.00" stroke="None">
<path d="
M 112.00 51.00 
C 110.67 51.12 109.82 51.78 109.00 52.00
C 111.77 52.00 117.52 50.86 120.00 52.00
C 119.72 50.83 120.00 49.21 120.00 48.00
C 118.90 51.55 115.01 50.73 112.00 51.00 Z"/>
</g>
<g fill="#1C2026" fill-opacity="1.00" stroke="None">
<path d="
M 105.00 53.00 
C 98.33 57.70 97.91 60.93 95.00 68.00
C 94.55 77.31 102.52 86.36 112.00 86.00
C 112.50 85.98 113.84 85.77 114.00 86.00
C 117.93 82.47 117.78 80.00 124.00 82.00
C 121.69 75.71 128.29 73.99 130.00 68.00
C 127.62 61.01 126.70 58.51 121.00 54.00
C 116.63 53.17 111.57 54.00 107.00 52.00
C 107.00 52.00 106.41 51.81 106.00 52.00
C 105.74 52.12 105.30 52.79 105.00 53.00
M 115.00 58.00 
C 127.77 60.33 123.28 82.61 110.00 79.00 C 96.72 75.39 102.29 55.68 115.00 58.00 Z"/>
</g>
<g fill="#132240" fill-opacity="1.00" stroke="None">
<path d="
M 121.00 54.00 
C 120.91 53.93 120.05 52.20 120.00 52.00
C 117.52 50.86 111.77 52.00 109.00 52.00
C 108.50 52.00 107.50 52.00 107.00 52.00
C 111.57 54.00 116.63 53.17 121.00 54.00 Z"/>
</g>
<g fill="#F3F4F3" fill-opacity="1.00" stroke="None">
<path d="
M 115.00 58.00 
C 102.29 55.68 96.72 75.39 110.00 79.00 C 123.28 82.61 127.77 60.33 115.00 58.00 Z"/>
</g>
<g fill="#4C88EE" fill-opacity="1.00" stroke="None">
<path d="
M 80.00 108.00 
C 79.44 109.51 78.91 112.82 78.00 114.00
C 75.47 117.28 71.93 111.55 70.00 109.00
C 69.28 108.04 68.63 106.97 68.00 106.00
C 63.77 99.48 60.72 98.42 53.00 100.00
C 44.30 104.70 49.11 114.88 53.75 120.25 C 58.40 125.61 63.52 131.69 70.00 135.00
C 67.54 139.43 67.47 145.53 64.00 149.00
C 62.78 154.80 60.39 162.35 66.00 167.00
C 67.30 168.08 71.82 169.97 73.00 170.00
C 75.32 170.05 78.29 168.10 80.00 167.00
C 81.31 165.43 78.94 161.55 83.00 162.00
C 80.15 155.40 89.29 145.94 89.92 137.92 C 90.56 129.91 95.38 120.85 98.90 112.90 C 102.42 104.96 104.99 93.92 107.00 87.00
C 108.57 86.61 111.22 87.94 112.00 86.00
C 102.52 86.36 94.55 77.31 95.00 68.00
C 89.70 80.88 84.92 94.68 80.00 108.00 Z"/>
</g>
<g fill="#132A4A" fill-opacity="1.00" stroke="None">
<path d="
M 114.00 86.00 
C 113.75 86.22 114.00 87.00 114.00 87.00
C 114.03 87.35 114.97 87.79 115.00 88.00
C 122.16 83.59 129.57 79.37 131.00 70.00
C 130.84 69.66 130.05 68.14 130.00 68.00
C 128.29 73.99 121.69 75.71 124.00 82.00
C 117.78 80.00 117.93 82.47 114.00 86.00 Z"/>
</g>
<g fill="#1E5ECC" fill-opacity="1.00" stroke="None">
<path d="
M 115.00 88.00 
C 116.35 96.28 120.09 104.12 123.00 112.00
C 122.67 110.02 121.96 103.26 126.00 104.00
C 124.94 107.04 124.94 107.56 128.00 108.00
C 125.42 103.00 135.79 97.10 137.00 103.00
C 137.58 99.92 138.97 96.67 140.00 94.00
C 139.94 93.51 140.15 92.45 140.00 92.00
C 137.62 85.12 134.14 76.60 131.00 70.00
C 129.57 79.37 122.16 83.59 115.00 88.00 Z"/>
</g>
<g fill="#6A9DEE" fill-opacity="1.00" stroke="None">
<path d="
M 80.00 167.00 
C 85.48 163.46 85.95 156.52 88.00 151.00
C 88.60 149.38 89.34 147.52 90.00 146.00
C 92.75 139.70 95.73 132.85 98.00 127.00
C 100.21 121.29 101.89 111.03 104.93 105.93 C 107.96 100.82 108.24 88.22 114.00 87.00
C 114.00 87.00 113.75 86.22 114.00 86.00
C 113.84 85.77 112.50 85.98 112.00 86.00
C 111.22 87.94 108.57 86.61 107.00 87.00
C 104.99 93.92 102.42 104.96 98.90 112.90 C 95.38 120.85 90.56 129.91 89.92 137.92 C 89.29 145.94 80.15 155.40 83.00 162.00
C 78.94 161.55 81.31 165.43 80.00 167.00 Z"/>
</g>
<g fill="#F3FAFB" fill-opacity="1.00" stroke="None">
<path d="
M 98.00 127.00 
C 98.99 126.70 100.96 126.90 102.00 127.00
C 107.88 127.58 113.04 128.03 119.00 127.00
C 121.72 126.53 124.48 126.24 127.00 125.00
C 125.49 120.81 124.57 116.24 123.00 112.00
C 120.09 104.12 116.35 96.28 115.00 88.00
C 114.97 87.79 114.03 87.35 114.00 87.00
C 108.24 88.22 107.96 100.82 104.93 105.93 C 101.89 111.03 100.21 121.29 98.00 127.00 Z"/>
</g>
<g fill="#DFF8E2" fill-opacity="1.00" stroke="None">
<path d="
M 140.00 92.00 
C 140.34 91.77 141.00 92.00 141.00 92.00
C 147.36 87.29 155.24 96.38 161.00 95.00
C 163.39 93.75 163.17 90.65 166.00 90.00
C 166.47 89.89 168.00 90.02 168.00 90.00
C 164.50 84.45 161.04 93.37 157.00 93.00
C 156.02 88.61 140.80 88.26 140.00 92.00 Z"/>
</g>
<g fill="#558759" fill-opacity="1.00" stroke="None">
<path d="
M 161.00 95.00 
C 164.59 94.14 163.18 92.27 166.00 90.00
C 163.17 90.65 163.39 93.75 161.00 95.00 Z"/>
</g>
<g fill="#5DAF66" fill-opacity="1.00" stroke="None">
<path d="
M 161.00 95.00 
C 155.24 96.38 147.36 87.29 141.00 92.00
C 142.08 101.15 148.79 108.91 149.00 118.00
C 149.01 118.50 149.00 119.00 149.00 119.00
C 151.24 120.40 151.92 122.39 152.00 125.00
C 152.02 125.50 151.93 126.51 152.00 127.00
C 153.30 129.55 154.89 132.21 156.00 135.00
C 156.00 135.00 156.64 134.77 157.00 135.00
C 162.61 131.41 164.52 122.43 169.00 120.00
C 170.60 119.13 176.66 120.38 176.00 118.00
C 173.60 114.22 169.90 116.73 168.00 112.00
C 166.39 108.00 166.70 103.80 163.79 100.23 C 160.87 96.66 169.69 93.80 168.00 90.00
C 168.00 90.02 166.47 89.89 166.00 90.00
C 163.18 92.27 164.59 94.14 161.00 95.00
M 153.00 98.00 
C 155.55 99.39 153.13 104.02 149.92 102.06 C 146.71 100.11 149.74 96.22 153.00 98.00
M 156.00 124.00 
C 156.17 113.94 166.11 124.91 156.00 124.00 Z"/>
</g>
<g fill="#4699A1" fill-opacity="1.00" stroke="None">
<path d="
M 140.00 94.00 
C 140.81 100.37 144.94 113.27 149.00 118.00
C 148.79 108.91 142.08 101.15 141.00 92.00
C 141.00 92.00 140.34 91.77 140.00 92.00
C 140.15 92.45 139.94 93.51 140.00 94.00 Z"/>
</g>
<g fill="#4282EC" fill-opacity="1.00" stroke="None">
<path d="
M 123.00 112.00 
C 124.57 116.24 125.49 120.81 127.00 125.00
C 128.92 130.35 134.32 137.85 134.00 144.00
C 141.74 150.46 137.56 171.07 153.00 170.00
C 154.03 169.93 157.86 167.82 159.00 167.00
C 169.20 159.64 157.43 144.73 156.00 136.00
C 153.09 134.96 152.36 129.59 152.00 127.00
C 151.93 126.51 152.02 125.50 152.00 125.00
C 150.57 122.94 149.46 121.83 149.00 119.00
C 149.00 119.00 149.01 118.50 149.00 118.00
C 144.94 113.27 140.81 100.37 140.00 94.00
C 138.97 96.67 137.58 99.92 137.00 103.00
C 135.79 97.10 125.42 103.00 128.00 108.00
C 124.94 107.56 124.94 107.04 126.00 104.00
C 121.96 103.26 122.67 110.02 123.00 112.00 Z"/>
</g>
<g fill="#093209" fill-opacity="1.00" stroke="None">
<path d="
M 153.00 98.00 
C 149.74 96.22 146.71 100.11 149.92 102.06 C 153.13 104.02 155.55 99.39 153.00 98.00 Z"/>
</g>
<g fill="#DEF3FC" fill-opacity="1.00" stroke="None">
<path d="
M 64.00 149.00 
C 67.47 145.53 67.54 139.43 70.00 135.00
C 63.52 131.69 58.40 125.61 53.75 120.25 C 49.11 114.88 44.30 104.70 53.00 100.00
C 37.93 103.08 53.05 126.54 60.75 132.25 C 68.45 137.96 65.82 140.37 64.00 149.00 Z"/>
</g>
<g fill="#CFEEFE" fill-opacity="1.00" stroke="None">
<path d="
M 70.00 109.00 
C 71.52 110.66 76.01 115.66 78.00 114.00
C 78.91 112.82 79.44 109.51 80.00 108.00
C 78.05 108.43 77.99 110.67 77.00 112.00
C 73.76 111.82 70.13 108.54 68.00 106.00
C 68.63 106.97 69.28 108.04 70.00 109.00 Z"/>
</g>
<g fill="#91BCEB" fill-opacity="1.00" stroke="None">
<path d="
M 78.00 114.00 
C 76.01 115.66 71.52 110.66 70.00 109.00
C 71.93 111.55 75.47 117.28 78.00 114.00 Z"/>
</g>
<g fill="#E1F8E4" fill-opacity="1.00" stroke="None">
<path d="
M 176.00 118.00 
C 176.52 118.81 177.49 119.60 177.00 121.00
C 174.09 121.59 171.94 119.41 169.00 120.00
C 164.52 122.43 162.61 131.41 157.00 135.00
C 166.29 139.12 167.31 115.51 175.00 125.00
C 180.09 123.89 180.24 119.72 178.00 116.00
C 174.78 115.89 169.91 115.08 168.00 112.00
C 169.90 116.73 173.60 114.22 176.00 118.00 Z"/>
</g>
<g fill="#5C8C63" fill-opacity="1.00" stroke="None">
<path d="
M 169.00 120.00 
C 171.94 119.41 174.09 121.59 177.00 121.00
C 177.49 119.60 176.52 118.81 176.00 118.00
C 176.66 120.38 170.60 119.13 169.00 120.00 Z"/>
</g>
<g fill="#469EA5" fill-opacity="1.00" stroke="None">
<path d="
M 152.00 125.00 
C 151.92 122.39 151.24 120.40 149.00 119.00
C 149.46 121.83 150.57 122.94 152.00 125.00 Z"/>
</g>
<g fill="#052607" fill-opacity="1.00" stroke="None">
<path d="
M 156.00 124.00 
C 166.11 124.91 156.17 113.94 156.00 124.00 Z"/>
</g>
<g fill="#1556C4" fill-opacity="1.00" stroke="None">
<path d="
M 119.00 127.00 
C 119.78 127.13 121.56 128.88 123.00 128.00
C 124.81 135.43 125.48 146.53 117.00 147.00
C 117.98 147.00 119.02 147.08 120.00 147.00
C 124.53 146.62 128.59 144.72 133.00 144.00
C 133.00 144.00 133.71 143.75 134.00 144.00
C 134.32 137.85 128.92 130.35 127.00 125.00
C 124.48 126.24 121.72 126.53 119.00 127.00 Z"/>
</g>
<g fill="#EAE8E6" fill-opacity="0.58" stroke="None">
<path d="
M 216.00 154.00 
C 219.28 145.32 214.93 134.57 216.00 125.00
C 212.51 134.46 217.28 144.55 216.00 154.00 Z"/>
</g>
<g fill="#4684EC" fill-opacity="1.00" stroke="None">
<path d="
M 90.00 146.00 
C 98.38 147.36 106.22 148.00 115.00 148.00
C 114.85 147.95 115.00 147.00 115.00 147.00
C 114.01 146.90 112.99 147.08 112.00 147.00
C 116.77 145.71 110.90 144.26 112.00 140.00 C 113.11 135.74 109.85 133.75 112.00 130.00
C 109.20 127.75 102.77 131.10 102.00 127.00
C 100.96 126.90 98.99 126.70 98.00 127.00
C 95.73 132.85 92.75 139.70 90.00 146.00 Z"/>
</g>
<g fill="#296BDB" fill-opacity="1.00" stroke="None">
<path d="
M 115.00 147.00 
C 115.16 146.77 116.50 147.00 117.00 147.00
C 125.48 146.53 124.81 135.43 123.00 128.00
C 121.56 128.88 119.78 127.13 119.00 127.00
C 113.04 128.03 107.88 127.58 102.00 127.00
C 102.77 131.10 109.20 127.75 112.00 130.00
C 109.85 133.75 113.11 135.74 112.00 140.00 C 110.90 144.26 116.77 145.71 112.00 147.00
C 112.99 147.08 114.01 146.90 115.00 147.00 Z"/>
</g>
<g fill="#559DA9" fill-opacity="1.00" stroke="None">
<path d="
M 156.00 136.00 
C 156.00 136.00 156.17 135.43 156.00 135.00
C 154.89 132.21 153.30 129.55 152.00 127.00
C 152.36 129.59 153.09 134.96 156.00 136.00 Z"/>
</g>
<g fill="#CCECFB" fill-opacity="1.00" stroke="None">
<path d="
M 120.00 147.00 
C 120.25 147.27 120.00 148.00 120.00 148.00
C 126.75 148.00 127.90 146.64 133.00 144.00
C 128.59 144.72 124.53 146.62 120.00 147.00 Z"/>
</g>
<g fill="#A1C2F7" fill-opacity="1.00" stroke="None">
<path d="
M 115.00 148.00 
C 116.67 148.00 118.33 148.00 120.00 148.00
C 120.00 148.00 120.25 147.27 120.00 147.00
C 119.02 147.08 117.98 147.00 117.00 147.00
C 116.50 147.00 115.16 146.77 115.00 147.00
C 115.00 147.00 114.85 147.95 115.00 148.00 Z"/>
</g>
<g fill="#DCF2FD" fill-opacity="1.00" stroke="None">
<path d="
M 80.00 167.00 
C 78.29 168.10 75.32 170.05 73.00 170.00
C 70.48 172.09 69.93 177.55 68.00 180.00
C 71.79 178.17 76.44 169.07 82.92 167.92 C 89.39 166.77 87.82 152.25 88.00 151.00
C 85.95 156.52 85.48 163.46 80.00 167.00 Z"/>
</g>
<g fill="#F6F1F2" fill-opacity="0.67" stroke="None">
<path d="
M 13.00 159.00 
C 15.31 161.48 17.41 163.19 20.00 165.00
C 22.14 166.50 24.85 168.65 26.00 171.00
C 26.00 171.00 25.78 171.64 26.00 172.00
C 30.77 171.84 13.91 159.65 13.00 159.00 Z"/>
</g>
<g fill="#CFC4C6" fill-opacity="0.14" stroke="None">
<path d="
M 26.00 171.00 
C 24.85 168.65 22.14 166.50 20.00 165.00
C 22.44 167.39 22.27 169.78 26.00 171.00 Z"/>
</g>
<g fill="#2762BA" fill-opacity="1.00" stroke="None">
<path d="
M 64.00 175.00 
C 64.18 174.86 67.44 175.81 68.00 176.00
C 65.39 177.05 67.63 179.00 66.00 181.00
C 66.18 180.97 67.94 180.07 68.00 180.00
C 69.93 177.55 70.48 172.09 73.00 170.00
C 71.82 169.97 67.30 168.08 66.00 167.00
C 66.35 169.41 64.75 172.83 64.00 175.00 Z"/>
</g>
<g fill="#2259B4" fill-opacity="1.00" stroke="None">
<path d="
M 153.00 170.00 
C 155.30 172.21 155.31 177.63 158.00 180.00
C 157.74 179.55 158.95 176.30 159.00 175.00
C 160.28 174.47 160.86 175.97 162.00 176.00
C 161.49 173.73 158.69 169.09 159.00 167.00
C 157.86 167.82 154.03 169.93 153.00 170.00 Z"/>
</g>
<g fill="#507ECC" fill-opacity="1.00" stroke="None">
<path d="
M 63.00 178.00 
C 62.97 180.20 63.38 181.49 66.00 181.00
C 67.63 179.00 65.39 177.05 68.00 176.00
C 67.44 175.81 64.18 174.86 64.00 175.00
C 63.63 176.07 63.32 176.95 63.00 178.00 Z"/>
</g>
<g fill="#5686CA" fill-opacity="1.00" stroke="None">
<path d="
M 158.00 180.00 
C 162.53 183.99 162.85 179.79 162.00 176.00
C 160.86 175.97 160.28 174.47 159.00 175.00
C 158.95 176.30 157.74 179.55 158.00 180.00 Z"/>
</g>
<g fill="#AEC3E4" fill-opacity="1.00" stroke="None">
<path d="
M 68.00 180.00 
C 67.94 180.07 66.18 180.97 66.00 181.00
C 63.38 181.49 62.97 180.20 63.00 178.00
C 61.43 183.19 64.94 181.48 68.00 180.00 Z"/>
</g>
<g fill="#E8E4E5" fill-opacity="0.62" stroke="None">
<path d="
M 105.00 219.00 
C 110.73 218.09 118.64 218.55 124.00 220.00
C 118.18 216.47 111.11 216.24 105.00 219.00 Z"/>
</g>
</svg>