<svg xmlns="http://www.w3.org/2000/svg" xmlns:v="https://svgstorm.com"
viewBox = "0 0 225 225"
width="225"
height="225">
<g fill="None" fill-opacity="0.0" stroke="#000000" stroke-opacity="0.00" stroke-width="0.3"><path d="
M 0.00 225.00 
L 225.00 225.00
L 225.00 0.00
L 0.00 0.00
L 0.00 225.00
M 203.00 59.00 
C 209.22 65.66 204.22 82.13 205.00 92.00 C 205.78 101.87 206.00 117.61 205.00 128.00 C 204.00 138.39 208.46 154.16 205.00 164.00
C 203.28 168.91 193.88 170.61 189.92 173.92 C 185.96 177.22 178.55 180.18 174.00 183.00
C 166.11 187.88 158.10 192.53 150.00 197.00
C 144.30 200.14 138.88 203.46 133.00 206.00
C 131.16 207.01 129.09 208.85 127.00 210.00
C 123.81 211.76 118.49 216.54 115.00 217.00
C 113.22 217.23 113.14 216.57 112.00 216.00
C 96.42 208.26 85.93 201.31 70.75 192.25 C 55.58 183.18 40.43 176.73 28.00 168.00
C 26.66 167.06 26.03 166.08 25.00 165.00
C 21.01 160.85 23.32 149.42 23.00 141.00 C 22.68 132.58 22.85 120.79 23.00 112.00 C 23.15 103.21 22.29 91.56 23.00 83.00 C 23.71 74.44 19.47 62.52 27.00 58.00
C 29.58 56.45 32.46 55.33 35.00 54.00
C 36.33 53.11 37.47 51.91 39.00 51.00
C 41.59 49.46 44.53 48.42 47.00 47.00
C 57.43 41.00 68.52 32.43 79.70 27.70 C 90.87 22.96 101.03 10.97 113.00 9.00
C 122.03 7.51 133.53 20.28 142.75 24.25 C 151.96 28.22 163.58 35.88 172.25 41.75 C 180.92 47.63 195.75 51.24 203.00 59.00 Z"/>
</g>
<g fill="None" fill-opacity="0.0" stroke="#FB9945" stroke-opacity="0.98" stroke-width="0.3"><path d="
M 113.00 9.00 
C 114.83 23.76 114.00 40.49 114.00 56.00
C 114.00 69.33 114.00 82.67 114.00 96.00
C 114.00 98.67 114.00 101.33 114.00 104.00
C 114.00 103.96 115.00 104.00 115.00 104.00
C 115.00 75.04 114.27 45.56 116.00 17.00
C 118.58 21.28 116.15 27.21 116.00 32.00
C 121.70 33.61 122.93 41.93 124.00 48.00
C 126.20 48.87 126.98 42.87 129.00 46.00
C 128.76 50.38 131.85 53.92 132.34 58.68 C 132.83 63.44 138.65 67.44 141.00 71.00
C 136.57 73.86 145.06 85.28 148.00 82.00
C 146.79 85.62 143.75 89.68 146.00 93.00
C 149.74 86.57 155.71 80.25 158.00 73.00
C 159.04 67.19 157.20 60.86 158.00 55.00
C 158.67 50.12 163.35 48.64 167.00 53.00
C 170.04 56.63 168.50 72.03 167.00 76.00
C 164.41 82.84 158.19 88.08 156.00 95.00
C 160.00 95.00 164.00 95.00 168.00 95.00
C 168.00 98.00 168.00 101.00 168.00 104.00
C 168.20 106.10 169.00 109.23 169.00 112.00
C 169.00 114.26 169.30 116.76 169.00 119.00
C 175.00 119.00 181.00 119.00 187.00 119.00
C 186.89 120.00 187.47 121.73 186.00 122.00
C 183.41 129.48 174.48 134.26 171.23 142.23 C 167.97 150.20 169.35 160.86 167.00 169.00
C 166.88 169.43 168.21 171.37 166.00 172.00
C 169.87 173.95 172.75 177.49 169.00 180.00
C 171.96 178.86 173.58 179.10 171.00 182.00
C 172.00 182.11 173.73 181.53 174.00 183.00
C 178.55 180.18 185.96 177.22 189.92 173.92 C 193.88 170.61 203.28 168.91 205.00 164.00
C 202.75 156.36 204.58 147.47 204.00 139.00 C 203.42 130.53 204.74 120.44 204.00 112.00 C 203.26 103.56 205.39 93.04 204.00 85.00 C 202.61 76.96 207.44 65.68 203.00 59.00
C 195.75 51.24 180.92 47.63 172.25 41.75 C 163.58 35.88 151.96 28.22 142.75 24.25 C 133.53 20.28 122.03 7.51 113.00 9.00 Z"/>
</g>
<g fill="None" fill-opacity="0.0" stroke="#747474" stroke-opacity="0.96" stroke-width="0.3"><path d="
M 47.00 47.00 
C 46.81 47.20 44.84 51.26 43.00 52.00
C 64.58 48.59 89.16 50.86 111.00 48.00
C 111.91 49.83 111.34 52.74 113.00 54.00
C 113.00 39.00 113.00 24.00 113.00 9.00
C 101.03 10.97 90.87 22.96 79.70 27.70 C 68.52 32.43 57.43 41.00 47.00 47.00 Z"/>
</g>
<g fill="None" fill-opacity="0.0" stroke="#806B56" stroke-opacity="1.00" stroke-width="0.3"><path d="
M 113.00 54.00 
C 113.00 54.50 113.00 55.50 113.00 56.00
C 113.34 56.23 114.00 56.00 114.00 56.00
C 114.00 40.49 114.83 23.76 113.00 9.00
C 113.00 24.00 113.00 39.00 113.00 54.00 Z"/>
</g>
<g fill="None" fill-opacity="0.0" stroke="#FA822E" stroke-opacity="0.99" stroke-width="0.3"><path d="
M 115.00 104.00 
C 115.00 114.33 115.00 124.67 115.00 135.00
C 117.68 133.67 113.85 127.80 118.00 128.00
C 121.11 133.11 118.44 138.26 119.00 144.00
C 120.26 139.36 120.41 139.33 125.00 141.00
C 125.08 145.57 130.56 149.72 126.00 154.00
C 131.24 153.67 132.47 158.05 133.80 161.25 C 135.13 164.45 141.26 167.28 136.00 170.00
C 145.68 175.40 141.87 186.99 151.00 192.00
C 145.51 193.93 152.66 193.33 150.00 197.00
C 158.10 192.53 166.11 187.88 174.00 183.00
C 173.73 181.53 172.00 182.11 171.00 182.00
C 173.58 179.10 171.96 178.86 169.00 180.00
C 172.75 177.49 169.87 173.95 166.00 172.00
C 168.21 171.37 166.88 169.43 167.00 169.00
C 165.56 170.26 161.88 170.61 160.00 171.00
C 160.00 167.33 160.00 163.67 160.00 160.00
C 159.80 157.90 159.00 154.77 159.00 152.00
C 159.00 148.79 158.22 144.40 160.00 142.00
C 160.00 141.50 160.00 141.00 160.00 141.00
C 158.74 139.14 162.67 138.46 164.00 137.00
C 164.39 136.36 164.86 135.75 165.00 135.00
C 165.09 134.52 165.00 134.00 165.00 134.00
C 166.02 132.72 167.20 131.37 168.00 130.00
C 165.00 130.00 162.00 130.00 159.00 130.00
C 159.00 129.00 159.00 128.00 159.00 127.00
C 158.70 124.76 159.00 122.26 159.00 120.00
C 159.00 116.55 160.47 109.04 159.00 106.00
C 155.27 100.72 134.08 110.68 142.00 100.00
C 143.68 97.74 144.61 95.39 146.00 93.00
C 143.75 89.68 146.79 85.62 148.00 82.00
C 145.06 85.28 136.57 73.86 141.00 71.00
C 138.65 67.44 132.83 63.44 132.34 58.68 C 131.85 53.92 128.76 50.38 129.00 46.00
C 126.98 42.87 126.20 48.87 124.00 48.00
C 122.93 41.93 121.70 33.61 116.00 32.00
C 116.15 27.21 118.58 21.28 116.00 17.00
C 114.27 45.56 115.00 75.04 115.00 104.00 Z"/>
</g>
<g fill="None" fill-opacity="0.0" stroke="#686868" stroke-opacity="0.99" stroke-width="0.3"><path d="
M 39.00 51.00 
C 37.38 52.28 36.84 53.04 35.00 54.00
C 32.46 55.33 29.58 56.45 27.00 58.00
C 26.25 58.67 25.44 60.12 25.00 61.00
C 24.36 62.91 26.94 67.56 28.00 70.00
C 30.49 69.32 29.99 66.00 32.00 65.00
C 37.99 69.01 48.40 66.49 57.00 67.00 C 65.60 67.51 75.09 66.74 84.00 67.00 C 92.91 67.26 102.98 66.81 112.00 67.00
C 112.11 66.00 111.53 64.27 113.00 64.00
C 113.00 61.33 113.00 58.67 113.00 56.00
C 113.00 55.50 113.00 54.50 113.00 54.00
C 111.34 52.74 111.91 49.83 111.00 48.00
C 89.16 50.86 64.58 48.59 43.00 52.00
C 44.84 51.26 46.81 47.20 47.00 47.00
C 44.53 48.42 41.59 49.46 39.00 51.00 Z"/>
</g>
<g fill="None" fill-opacity="0.0" stroke="#000000" stroke-opacity="0.00" stroke-width="0.3"><path d="
M 158.00 55.00 
C 157.78 60.45 159.79 67.35 158.00 73.00
C 155.71 80.25 149.74 86.57 146.00 93.00
C 144.61 95.39 143.68 97.74 142.00 100.00
C 141.30 101.38 139.72 102.24 140.00 104.00
C 145.89 105.22 155.53 101.49 159.00 106.00
C 160.47 109.04 159.00 116.55 159.00 120.00
C 159.18 121.83 160.47 124.43 160.00 127.00
C 161.17 131.39 166.03 127.21 169.00 129.00
C 171.76 130.66 166.04 133.88 165.00 135.00
C 164.86 135.75 164.39 136.36 164.00 137.00
C 162.94 138.74 161.60 139.88 160.00 141.00
C 160.00 141.00 160.00 141.50 160.00 142.00
C 160.00 145.33 160.00 148.67 160.00 152.00
C 160.00 154.67 160.00 157.33 160.00 160.00
C 160.00 163.67 160.00 167.33 160.00 171.00
C 161.88 170.61 165.56 170.26 167.00 169.00
C 169.35 160.86 167.97 150.20 171.23 142.23 C 174.48 134.26 183.41 129.48 186.00 122.00
C 183.50 116.47 171.92 123.08 168.00 119.00
C 167.70 116.76 168.00 114.26 168.00 112.00
C 168.00 109.33 168.00 106.67 168.00 104.00
C 168.00 101.00 168.00 98.00 168.00 95.00
C 164.00 95.00 160.00 95.00 156.00 95.00
C 158.19 88.08 164.41 82.84 167.00 76.00
C 168.67 68.72 165.75 60.38 167.00 53.00
C 163.35 48.64 158.67 50.12 158.00 55.00 Z"/>
</g>
<g fill="None" fill-opacity="0.0" stroke="#A4A4A4" stroke-opacity="0.27" stroke-width="0.3"><path d="
M 35.00 54.00 
C 36.84 53.04 37.38 52.28 39.00 51.00
C 37.47 51.91 36.33 53.11 35.00 54.00 Z"/>
</g>
<g fill="None" fill-opacity="0.0" stroke="#FFE3C3" stroke-opacity="0.05" stroke-width="0.3"><path d="
M 167.00 76.00 
C 168.50 72.03 170.04 56.63 167.00 53.00
C 165.75 60.38 168.67 68.72 167.00 76.00 Z"/>
</g>
<g fill="None" fill-opacity="0.0" stroke="#F8CFA9" stroke-opacity="0.11" stroke-width="0.3"><path d="
M 158.00 73.00 
C 159.79 67.35 157.78 60.45 158.00 55.00
C 157.20 60.86 159.04 67.19 158.00 73.00 Z"/>
</g>
<g fill="None" fill-opacity="0.0" stroke="#68523F" stroke-opacity="1.00" stroke-width="0.3"><path d="
M 113.00 64.00 
C 113.00 69.33 113.00 74.67 113.00 80.00
C 113.00 85.33 113.00 90.67 113.00 96.00
C 113.00 95.96 114.00 96.00 114.00 96.00
C 114.00 82.67 114.00 69.33 114.00 56.00
C 114.00 56.00 113.34 56.23 113.00 56.00
C 113.00 58.67 113.00 61.33 113.00 64.00 Z"/>
</g>
<g fill="None" fill-opacity="0.0" stroke="#989898" stroke-opacity="0.24" stroke-width="0.3"><path d="
M 25.00 165.00 
C 20.43 156.01 24.00 137.20 24.00 127.00
C 24.00 119.33 24.00 111.67 24.00 104.00
C 24.00 94.67 24.00 85.33 24.00 76.00
C 24.00 71.26 23.06 64.88 25.00 61.00
C 25.44 60.12 26.25 58.67 27.00 58.00
C 19.47 62.52 23.71 74.44 23.00 83.00 C 22.29 91.56 23.15 103.21 23.00 112.00 C 22.85 120.79 22.68 132.58 23.00 141.00 C 23.32 149.42 21.01 160.85 25.00 165.00 Z"/>
</g>
<g fill="None" fill-opacity="0.0" stroke="#E3B081" stroke-opacity="0.42" stroke-width="0.3"><path d="
M 205.00 164.00 
C 208.46 154.16 204.00 138.39 205.00 128.00 C 206.00 117.61 205.78 101.87 205.00 92.00 C 204.22 82.13 209.22 65.66 203.00 59.00
C 207.44 65.68 202.61 76.96 204.00 85.00 C 205.39 93.04 203.26 103.56 204.00 112.00 C 204.74 120.44 203.42 130.53 204.00 139.00 C 204.58 147.47 202.75 156.36 205.00 164.00 Z"/>
</g>
<g fill="None" fill-opacity="0.0" stroke="#5C5C5C" stroke-opacity="1.00" stroke-width="0.3"><path d="
M 24.00 76.00 
C 24.56 78.88 27.11 82.78 28.00 86.00
C 35.10 81.74 43.70 84.48 53.00 84.00 C 62.30 83.52 73.41 84.12 83.00 84.00 C 92.59 83.88 102.59 84.01 112.00 83.00
C 112.11 82.00 111.53 80.27 113.00 80.00
C 113.00 74.67 113.00 69.33 113.00 64.00
C 111.53 64.27 112.11 66.00 112.00 67.00
C 102.98 66.81 92.91 67.26 84.00 67.00 C 75.09 66.74 65.60 67.51 57.00 67.00 C 48.40 66.49 37.99 69.01 32.00 65.00
C 29.99 66.00 30.49 69.32 28.00 70.00
C 26.94 67.56 24.36 62.91 25.00 61.00
C 23.06 64.88 24.00 71.26 24.00 76.00 Z"/>
</g>
<g fill="None" fill-opacity="0.0" stroke="#4C4C4C" stroke-opacity="1.00" stroke-width="0.3"><path d="
M 24.00 104.00 
C 24.52 109.36 25.55 116.85 27.00 122.00
C 26.91 119.55 26.77 116.39 29.00 115.00
C 32.77 119.07 43.03 116.48 52.00 117.00 C 60.97 117.52 72.54 116.73 82.00 117.00 C 91.46 117.27 102.40 116.80 112.00 117.00
C 112.11 118.00 111.53 119.73 113.00 120.00
C 113.00 112.00 113.00 104.00 113.00 96.00
C 113.00 90.67 113.00 85.33 113.00 80.00
C 111.53 80.27 112.11 82.00 112.00 83.00
C 102.59 84.01 92.59 83.88 83.00 84.00 C 73.41 84.12 62.30 83.52 53.00 84.00 C 43.70 84.48 35.10 81.74 28.00 86.00
C 27.11 82.78 24.56 78.88 24.00 76.00
C 24.00 85.33 24.00 94.67 24.00 104.00 Z"/>
</g>
<g fill="None" fill-opacity="0.0" stroke="#462C1A" stroke-opacity="1.00" stroke-width="0.3"><path d="
M 113.00 120.00 
C 113.00 128.00 113.00 136.00 113.00 144.00
C 113.00 146.67 113.00 149.33 113.00 152.00
C 113.00 151.96 114.00 152.00 114.00 152.00
C 114.00 136.00 114.00 120.00 114.00 104.00
C 114.00 101.33 114.00 98.67 114.00 96.00
C 114.00 96.00 113.00 95.96 113.00 96.00
C 113.00 104.00 113.00 112.00 113.00 120.00 Z"/>
</g>
<g fill="None" fill-opacity="0.0" stroke="#F1A977" stroke-opacity="0.49" stroke-width="0.3"><path d="
M 159.00 106.00 
C 155.53 101.49 145.89 105.22 140.00 104.00
C 139.72 102.24 141.30 101.38 142.00 100.00
C 134.08 110.68 155.27 100.72 159.00 106.00 Z"/>
</g>
<g fill="None" fill-opacity="0.0" stroke="#3B3B3B" stroke-opacity="1.00" stroke-width="0.3"><path d="
M 24.00 127.00 
C 24.33 130.43 25.72 135.13 26.00 139.00
C 28.50 137.67 25.43 133.26 28.00 132.00
C 26.62 135.81 30.80 140.43 30.00 134.00
C 31.32 139.34 38.95 135.05 46.00 136.00 C 53.05 136.95 61.64 135.34 69.00 136.00 C 76.36 136.66 83.40 135.19 91.00 136.00 C 98.60 136.81 104.81 134.15 112.00 134.00
C 112.61 137.17 110.75 141.65 113.00 144.00
C 113.00 136.00 113.00 128.00 113.00 120.00
C 111.53 119.73 112.11 118.00 112.00 117.00
C 102.40 116.80 91.46 117.27 82.00 117.00 C 72.54 116.73 60.97 117.52 52.00 117.00 C 43.03 116.48 32.77 119.07 29.00 115.00
C 26.77 116.39 26.91 119.55 27.00 122.00
C 25.55 116.85 24.52 109.36 24.00 104.00
C 24.00 111.67 24.00 119.33 24.00 127.00 Z"/>
</g>
<g fill="None" fill-opacity="0.0" stroke="#F5681A" stroke-opacity="0.99" stroke-width="0.3"><path d="
M 114.00 152.00 
C 114.00 173.58 113.17 195.87 115.00 217.00
C 118.49 216.54 123.81 211.76 127.00 210.00
C 129.01 208.62 130.53 207.07 133.00 206.00
C 138.88 203.46 144.30 200.14 150.00 197.00
C 152.66 193.33 145.51 193.93 151.00 192.00
C 141.87 186.99 145.68 175.40 136.00 170.00
C 141.26 167.28 135.13 164.45 133.80 161.25 C 132.47 158.05 131.24 153.67 126.00 154.00
C 130.56 149.72 125.08 145.57 125.00 141.00
C 120.41 139.33 120.26 139.36 119.00 144.00
C 118.44 138.26 121.11 133.11 118.00 128.00
C 113.85 127.80 117.68 133.67 115.00 135.00
C 115.00 124.67 115.00 114.33 115.00 104.00
C 115.00 104.00 114.00 103.96 114.00 104.00
C 114.00 120.00 114.00 136.00 114.00 152.00 Z"/>
</g>
<g fill="None" fill-opacity="0.0" stroke="#F2AB6F" stroke-opacity="0.57" stroke-width="0.3"><path d="
M 168.00 112.00 
C 168.01 111.93 169.00 112.00 169.00 112.00
C 169.00 109.23 168.20 106.10 168.00 104.00
C 168.00 106.67 168.00 109.33 168.00 112.00 Z"/>
</g>
<g fill="None" fill-opacity="0.0" stroke="#FEB680" stroke-opacity="0.17" stroke-width="0.3"><path d="
M 168.00 119.00 
C 168.01 119.07 169.00 119.00 169.00 119.00
C 169.30 116.76 169.00 114.26 169.00 112.00
C 169.00 112.00 168.01 111.93 168.00 112.00
C 168.00 114.26 167.70 116.76 168.00 119.00 Z"/>
</g>
<g fill="None" fill-opacity="0.0" stroke="#F2AB6F" stroke-opacity="0.55" stroke-width="0.3"><path d="
M 186.00 122.00 
C 187.47 121.73 186.89 120.00 187.00 119.00
C 181.00 119.00 175.00 119.00 169.00 119.00
C 169.00 119.00 168.01 119.07 168.00 119.00
C 171.92 123.08 183.50 116.47 186.00 122.00 Z"/>
</g>
<g fill="None" fill-opacity="0.0" stroke="#FFC0C0" stroke-opacity="0.02" stroke-width="0.3"><path d="
M 159.00 127.00 
C 159.01 127.07 160.00 127.00 160.00 127.00
C 160.47 124.43 159.18 121.83 159.00 120.00
C 159.00 122.26 158.70 124.76 159.00 127.00 Z"/>
</g>
<g fill="None" fill-opacity="0.0" stroke="#2C2C2C" stroke-opacity="1.00" stroke-width="0.3"><path d="
M 25.00 165.00 
C 26.03 166.08 26.66 167.06 28.00 168.00
C 26.06 165.01 31.38 164.11 31.00 161.00
C 42.52 165.09 56.63 162.39 70.00 163.00 C 83.37 163.61 98.47 162.54 112.00 163.00
C 112.11 162.00 111.53 160.27 113.00 160.00
C 113.00 157.33 113.00 154.67 113.00 152.00
C 113.00 149.33 113.00 146.67 113.00 144.00
C 110.75 141.65 112.61 137.17 112.00 134.00
C 104.81 134.15 98.60 136.81 91.00 136.00 C 83.40 135.19 76.36 136.66 69.00 136.00 C 61.64 135.34 53.05 136.95 46.00 136.00 C 38.95 135.05 31.32 139.34 30.00 134.00
C 30.80 140.43 26.62 135.81 28.00 132.00
C 25.43 133.26 28.50 137.67 26.00 139.00
C 25.72 135.13 24.33 130.43 24.00 127.00
C 24.00 137.20 20.43 156.01 25.00 165.00 Z"/>
</g>
<g fill="None" fill-opacity="0.0" stroke="#E29F63" stroke-opacity="0.65" stroke-width="0.3"><path d="
M 165.00 134.00 
C 166.70 132.81 169.12 131.36 169.00 129.00
C 166.03 127.21 161.17 131.39 160.00 127.00
C 160.00 127.00 159.01 127.07 159.00 127.00
C 159.00 128.00 159.00 129.00 159.00 130.00
C 162.00 130.00 165.00 130.00 168.00 130.00
C 167.20 131.37 166.02 132.72 165.00 134.00 Z"/>
</g>
<g fill="None" fill-opacity="0.0" stroke="#EEC49F" stroke-opacity="0.13" stroke-width="0.3"><path d="
M 165.00 134.00 
C 165.00 134.00 165.09 134.52 165.00 135.00
C 166.04 133.88 171.76 130.66 169.00 129.00
C 169.12 131.36 166.70 132.81 165.00 134.00 Z"/>
</g>
<g fill="None" fill-opacity="0.0" stroke="#F9BC8D" stroke-opacity="0.31" stroke-width="0.3"><path d="
M 160.00 141.00 
C 161.60 139.88 162.94 138.74 164.00 137.00
C 162.67 138.46 158.74 139.14 160.00 141.00 Z"/>
</g>
<g fill="None" fill-opacity="0.0" stroke="#FFBB8A" stroke-opacity="0.25" stroke-width="0.3"><path d="
M 159.00 152.00 
C 159.00 151.96 160.00 152.00 160.00 152.00
C 160.00 148.67 160.00 145.33 160.00 142.00
C 158.22 144.40 159.00 148.79 159.00 152.00 Z"/>
</g>
<g fill="None" fill-opacity="0.0" stroke="#2C0901" stroke-opacity="0.97" stroke-width="0.3"><path d="
M 113.00 160.00 
C 113.00 168.65 112.88 179.58 113.00 188.00 C 113.12 196.42 111.69 196.29 113.00 202.00 C 114.31 207.71 110.32 212.72 112.00 216.00
C 113.14 216.57 113.22 217.23 115.00 217.00
C 113.17 195.87 114.00 173.58 114.00 152.00
C 114.00 152.00 113.00 151.96 113.00 152.00
C 113.00 154.67 113.00 157.33 113.00 160.00 Z"/>
</g>
<g fill="None" fill-opacity="0.0" stroke="#F1A170" stroke-opacity="0.50" stroke-width="0.3"><path d="
M 160.00 160.00 
C 160.00 157.33 160.00 154.67 160.00 152.00
C 160.00 152.00 159.00 151.96 159.00 152.00
C 159.00 154.77 159.80 157.90 160.00 160.00 Z"/>
</g>
<g fill="None" fill-opacity="0.0" stroke="#1A1A1A" stroke-opacity="0.98" stroke-width="0.3"><path d="
M 28.00 168.00 
C 40.43 176.73 55.58 183.18 70.75 192.25 C 85.93 201.31 96.42 208.26 112.00 216.00
C 110.32 212.72 114.31 207.71 113.00 202.00 C 111.69 196.29 113.12 196.42 113.00 188.00 C 112.88 179.58 113.00 168.65 113.00 160.00
C 111.53 160.27 112.11 162.00 112.00 163.00
C 98.47 162.54 83.37 163.61 70.00 163.00 C 56.63 162.39 42.52 165.09 31.00 161.00
C 31.38 164.11 26.06 165.01 28.00 168.00 Z"/>
</g>
<g fill="None" fill-opacity="0.0" stroke="#E19675" stroke-opacity="0.16" stroke-width="0.3"><path d="
M 127.00 210.00 
C 129.09 208.85 131.16 207.01 133.00 206.00
C 130.53 207.07 129.01 208.62 127.00 210.00 Z"/>
</g>
<g fill="#000000" fill-opacity="0.00" stroke="None">
<path d="
M 0.00 225.00 
L 225.00 225.00
L 225.00 0.00
L 0.00 0.00
L 0.00 225.00
M 203.00 59.00 
C 209.22 65.66 204.22 82.13 205.00 92.00 C 205.78 101.87 206.00 117.61 205.00 128.00 C 204.00 138.39 208.46 154.16 205.00 164.00
C 203.28 168.91 193.88 170.61 189.92 173.92 C 185.96 177.22 178.55 180.18 174.00 183.00
C 166.11 187.88 158.10 192.53 150.00 197.00
C 144.30 200.14 138.88 203.46 133.00 206.00
C 131.16 207.01 129.09 208.85 127.00 210.00
C 123.81 211.76 118.49 216.54 115.00 217.00
C 113.22 217.23 113.14 216.57 112.00 216.00
C 96.42 208.26 85.93 201.31 70.75 192.25 C 55.58 183.18 40.43 176.73 28.00 168.00
C 26.66 167.06 26.03 166.08 25.00 165.00
C 21.01 160.85 23.32 149.42 23.00 141.00 C 22.68 132.58 22.85 120.79 23.00 112.00 C 23.15 103.21 22.29 91.56 23.00 83.00 C 23.71 74.44 19.47 62.52 27.00 58.00
C 29.58 56.45 32.46 55.33 35.00 54.00
C 36.33 53.11 37.47 51.91 39.00 51.00
C 41.59 49.46 44.53 48.42 47.00 47.00
C 57.43 41.00 68.52 32.43 79.70 27.70 C 90.87 22.96 101.03 10.97 113.00 9.00
C 122.03 7.51 133.53 20.28 142.75 24.25 C 151.96 28.22 163.58 35.88 172.25 41.75 C 180.92 47.63 195.75 51.24 203.00 59.00 Z"/>
</g>
<g fill="#FB9945" fill-opacity="0.98" stroke="None">
<path d="
M 113.00 9.00 
C 114.83 23.76 114.00 40.49 114.00 56.00
C 114.00 69.33 114.00 82.67 114.00 96.00
C 114.00 98.67 114.00 101.33 114.00 104.00
C 114.00 103.96 115.00 104.00 115.00 104.00
C 115.00 75.04 114.27 45.56 116.00 17.00
C 118.58 21.28 116.15 27.21 116.00 32.00
C 121.70 33.61 122.93 41.93 124.00 48.00
C 126.20 48.87 126.98 42.87 129.00 46.00
C 128.76 50.38 131.85 53.92 132.34 58.68 C 132.83 63.44 138.65 67.44 141.00 71.00
C 136.57 73.86 145.06 85.28 148.00 82.00
C 146.79 85.62 143.75 89.68 146.00 93.00
C 149.74 86.57 155.71 80.25 158.00 73.00
C 159.04 67.19 157.20 60.86 158.00 55.00
C 158.67 50.12 163.35 48.64 167.00 53.00
C 170.04 56.63 168.50 72.03 167.00 76.00
C 164.41 82.84 158.19 88.08 156.00 95.00
C 160.00 95.00 164.00 95.00 168.00 95.00
C 168.00 98.00 168.00 101.00 168.00 104.00
C 168.20 106.10 169.00 109.23 169.00 112.00
C 169.00 114.26 169.30 116.76 169.00 119.00
C 175.00 119.00 181.00 119.00 187.00 119.00
C 186.89 120.00 187.47 121.73 186.00 122.00
C 183.41 129.48 174.48 134.26 171.23 142.23 C 167.97 150.20 169.35 160.86 167.00 169.00
C 166.88 169.43 168.21 171.37 166.00 172.00
C 169.87 173.95 172.75 177.49 169.00 180.00
C 171.96 178.86 173.58 179.10 171.00 182.00
C 172.00 182.11 173.73 181.53 174.00 183.00
C 178.55 180.18 185.96 177.22 189.92 173.92 C 193.88 170.61 203.28 168.91 205.00 164.00
C 202.75 156.36 204.58 147.47 204.00 139.00 C 203.42 130.53 204.74 120.44 204.00 112.00 C 203.26 103.56 205.39 93.04 204.00 85.00 C 202.61 76.96 207.44 65.68 203.00 59.00
C 195.75 51.24 180.92 47.63 172.25 41.75 C 163.58 35.88 151.96 28.22 142.75 24.25 C 133.53 20.28 122.03 7.51 113.00 9.00 Z"/>
</g>
<g fill="#747474" fill-opacity="0.96" stroke="None">
<path d="
M 47.00 47.00 
C 46.81 47.20 44.84 51.26 43.00 52.00
C 64.58 48.59 89.16 50.86 111.00 48.00
C 111.91 49.83 111.34 52.74 113.00 54.00
C 113.00 39.00 113.00 24.00 113.00 9.00
C 101.03 10.97 90.87 22.96 79.70 27.70 C 68.52 32.43 57.43 41.00 47.00 47.00 Z"/>
</g>
<g fill="#806B56" fill-opacity="1.00" stroke="None">
<path d="
M 113.00 54.00 
C 113.00 54.50 113.00 55.50 113.00 56.00
C 113.34 56.23 114.00 56.00 114.00 56.00
C 114.00 40.49 114.83 23.76 113.00 9.00
C 113.00 24.00 113.00 39.00 113.00 54.00 Z"/>
</g>
<g fill="#FA822E" fill-opacity="0.99" stroke="None">
<path d="
M 115.00 104.00 
C 115.00 114.33 115.00 124.67 115.00 135.00
C 117.68 133.67 113.85 127.80 118.00 128.00
C 121.11 133.11 118.44 138.26 119.00 144.00
C 120.26 139.36 120.41 139.33 125.00 141.00
C 125.08 145.57 130.56 149.72 126.00 154.00
C 131.24 153.67 132.47 158.05 133.80 161.25 C 135.13 164.45 141.26 167.28 136.00 170.00
C 145.68 175.40 141.87 186.99 151.00 192.00
C 145.51 193.93 152.66 193.33 150.00 197.00
C 158.10 192.53 166.11 187.88 174.00 183.00
C 173.73 181.53 172.00 182.11 171.00 182.00
C 173.58 179.10 171.96 178.86 169.00 180.00
C 172.75 177.49 169.87 173.95 166.00 172.00
C 168.21 171.37 166.88 169.43 167.00 169.00
C 165.56 170.26 161.88 170.61 160.00 171.00
C 160.00 167.33 160.00 163.67 160.00 160.00
C 159.80 157.90 159.00 154.77 159.00 152.00
C 159.00 148.79 158.22 144.40 160.00 142.00
C 160.00 141.50 160.00 141.00 160.00 141.00
C 158.74 139.14 162.67 138.46 164.00 137.00
C 164.39 136.36 164.86 135.75 165.00 135.00
C 165.09 134.52 165.00 134.00 165.00 134.00
C 166.02 132.72 167.20 131.37 168.00 130.00
C 165.00 130.00 162.00 130.00 159.00 130.00
C 159.00 129.00 159.00 128.00 159.00 127.00
C 158.70 124.76 159.00 122.26 159.00 120.00
C 159.00 116.55 160.47 109.04 159.00 106.00
C 155.27 100.72 134.08 110.68 142.00 100.00
C 143.68 97.74 144.61 95.39 146.00 93.00
C 143.75 89.68 146.79 85.62 148.00 82.00
C 145.06 85.28 136.57 73.86 141.00 71.00
C 138.65 67.44 132.83 63.44 132.34 58.68 C 131.85 53.92 128.76 50.38 129.00 46.00
C 126.98 42.87 126.20 48.87 124.00 48.00
C 122.93 41.93 121.70 33.61 116.00 32.00
C 116.15 27.21 118.58 21.28 116.00 17.00
C 114.27 45.56 115.00 75.04 115.00 104.00 Z"/>
</g>
<g fill="#686868" fill-opacity="0.99" stroke="None">
<path d="
M 39.00 51.00 
C 37.38 52.28 36.84 53.04 35.00 54.00
C 32.46 55.33 29.58 56.45 27.00 58.00
C 26.25 58.67 25.44 60.12 25.00 61.00
C 24.36 62.91 26.94 67.56 28.00 70.00
C 30.49 69.32 29.99 66.00 32.00 65.00
C 37.99 69.01 48.40 66.49 57.00 67.00 C 65.60 67.51 75.09 66.74 84.00 67.00 C 92.91 67.26 102.98 66.81 112.00 67.00
C 112.11 66.00 111.53 64.27 113.00 64.00
C 113.00 61.33 113.00 58.67 113.00 56.00
C 113.00 55.50 113.00 54.50 113.00 54.00
C 111.34 52.74 111.91 49.83 111.00 48.00
C 89.16 50.86 64.58 48.59 43.00 52.00
C 44.84 51.26 46.81 47.20 47.00 47.00
C 44.53 48.42 41.59 49.46 39.00 51.00 Z"/>
</g>
<g fill="#000000" fill-opacity="0.00" stroke="None">
<path d="
M 158.00 55.00 
C 157.78 60.45 159.79 67.35 158.00 73.00
C 155.71 80.25 149.74 86.57 146.00 93.00
C 144.61 95.39 143.68 97.74 142.00 100.00
C 141.30 101.38 139.72 102.24 140.00 104.00
C 145.89 105.22 155.53 101.49 159.00 106.00
C 160.47 109.04 159.00 116.55 159.00 120.00
C 159.18 121.83 160.47 124.43 160.00 127.00
C 161.17 131.39 166.03 127.21 169.00 129.00
C 171.76 130.66 166.04 133.88 165.00 135.00
C 164.86 135.75 164.39 136.36 164.00 137.00
C 162.94 138.74 161.60 139.88 160.00 141.00
C 160.00 141.00 160.00 141.50 160.00 142.00
C 160.00 145.33 160.00 148.67 160.00 152.00
C 160.00 154.67 160.00 157.33 160.00 160.00
C 160.00 163.67 160.00 167.33 160.00 171.00
C 161.88 170.61 165.56 170.26 167.00 169.00
C 169.35 160.86 167.97 150.20 171.23 142.23 C 174.48 134.26 183.41 129.48 186.00 122.00
C 183.50 116.47 171.92 123.08 168.00 119.00
C 167.70 116.76 168.00 114.26 168.00 112.00
C 168.00 109.33 168.00 106.67 168.00 104.00
C 168.00 101.00 168.00 98.00 168.00 95.00
C 164.00 95.00 160.00 95.00 156.00 95.00
C 158.19 88.08 164.41 82.84 167.00 76.00
C 168.67 68.72 165.75 60.38 167.00 53.00
C 163.35 48.64 158.67 50.12 158.00 55.00 Z"/>
</g>
<g fill="#A4A4A4" fill-opacity="0.27" stroke="None">
<path d="
M 35.00 54.00 
C 36.84 53.04 37.38 52.28 39.00 51.00
C 37.47 51.91 36.33 53.11 35.00 54.00 Z"/>
</g>
<g fill="#FFE3C3" fill-opacity="0.05" stroke="None">
<path d="
M 167.00 76.00 
C 168.50 72.03 170.04 56.63 167.00 53.00
C 165.75 60.38 168.67 68.72 167.00 76.00 Z"/>
</g>
<g fill="#F8CFA9" fill-opacity="0.11" stroke="None">
<path d="
M 158.00 73.00 
C 159.79 67.35 157.78 60.45 158.00 55.00
C 157.20 60.86 159.04 67.19 158.00 73.00 Z"/>
</g>
<g fill="#68523F" fill-opacity="1.00" stroke="None">
<path d="
M 113.00 64.00 
C 113.00 69.33 113.00 74.67 113.00 80.00
C 113.00 85.33 113.00 90.67 113.00 96.00
C 113.00 95.96 114.00 96.00 114.00 96.00
C 114.00 82.67 114.00 69.33 114.00 56.00
C 114.00 56.00 113.34 56.23 113.00 56.00
C 113.00 58.67 113.00 61.33 113.00 64.00 Z"/>
</g>
<g fill="#989898" fill-opacity="0.24" stroke="None">
<path d="
M 25.00 165.00 
C 20.43 156.01 24.00 137.20 24.00 127.00
C 24.00 119.33 24.00 111.67 24.00 104.00
C 24.00 94.67 24.00 85.33 24.00 76.00
C 24.00 71.26 23.06 64.88 25.00 61.00
C 25.44 60.12 26.25 58.67 27.00 58.00
C 19.47 62.52 23.71 74.44 23.00 83.00 C 22.29 91.56 23.15 103.21 23.00 112.00 C 22.85 120.79 22.68 132.58 23.00 141.00 C 23.32 149.42 21.01 160.85 25.00 165.00 Z"/>
</g>
<g fill="#E3B081" fill-opacity="0.42" stroke="None">
<path d="
M 205.00 164.00 
C 208.46 154.16 204.00 138.39 205.00 128.00 C 206.00 117.61 205.78 101.87 205.00 92.00 C 204.22 82.13 209.22 65.66 203.00 59.00
C 207.44 65.68 202.61 76.96 204.00 85.00 C 205.39 93.04 203.26 103.56 204.00 112.00 C 204.74 120.44 203.42 130.53 204.00 139.00 C 204.58 147.47 202.75 156.36 205.00 164.00 Z"/>
</g>
<g fill="#5C5C5C" fill-opacity="1.00" stroke="None">
<path d="
M 24.00 76.00 
C 24.56 78.88 27.11 82.78 28.00 86.00
C 35.10 81.74 43.70 84.48 53.00 84.00 C 62.30 83.52 73.41 84.12 83.00 84.00 C 92.59 83.88 102.59 84.01 112.00 83.00
C 112.11 82.00 111.53 80.27 113.00 80.00
C 113.00 74.67 113.00 69.33 113.00 64.00
C 111.53 64.27 112.11 66.00 112.00 67.00
C 102.98 66.81 92.91 67.26 84.00 67.00 C 75.09 66.74 65.60 67.51 57.00 67.00 C 48.40 66.49 37.99 69.01 32.00 65.00
C 29.99 66.00 30.49 69.32 28.00 70.00
C 26.94 67.56 24.36 62.91 25.00 61.00
C 23.06 64.88 24.00 71.26 24.00 76.00 Z"/>
</g>
<g fill="#4C4C4C" fill-opacity="1.00" stroke="None">
<path d="
M 24.00 104.00 
C 24.52 109.36 25.55 116.85 27.00 122.00
C 26.91 119.55 26.77 116.39 29.00 115.00
C 32.77 119.07 43.03 116.48 52.00 117.00 C 60.97 117.52 72.54 116.73 82.00 117.00 C 91.46 117.27 102.40 116.80 112.00 117.00
C 112.11 118.00 111.53 119.73 113.00 120.00
C 113.00 112.00 113.00 104.00 113.00 96.00
C 113.00 90.67 113.00 85.33 113.00 80.00
C 111.53 80.27 112.11 82.00 112.00 83.00
C 102.59 84.01 92.59 83.88 83.00 84.00 C 73.41 84.12 62.30 83.52 53.00 84.00 C 43.70 84.48 35.10 81.74 28.00 86.00
C 27.11 82.78 24.56 78.88 24.00 76.00
C 24.00 85.33 24.00 94.67 24.00 104.00 Z"/>
</g>
<g fill="#462C1A" fill-opacity="1.00" stroke="None">
<path d="
M 113.00 120.00 
C 113.00 128.00 113.00 136.00 113.00 144.00
C 113.00 146.67 113.00 149.33 113.00 152.00
C 113.00 151.96 114.00 152.00 114.00 152.00
C 114.00 136.00 114.00 120.00 114.00 104.00
C 114.00 101.33 114.00 98.67 114.00 96.00
C 114.00 96.00 113.00 95.96 113.00 96.00
C 113.00 104.00 113.00 112.00 113.00 120.00 Z"/>
</g>
<g fill="#F1A977" fill-opacity="0.49" stroke="None">
<path d="
M 159.00 106.00 
C 155.53 101.49 145.89 105.22 140.00 104.00
C 139.72 102.24 141.30 101.38 142.00 100.00
C 134.08 110.68 155.27 100.72 159.00 106.00 Z"/>
</g>
<g fill="#3B3B3B" fill-opacity="1.00" stroke="None">
<path d="
M 24.00 127.00 
C 24.33 130.43 25.72 135.13 26.00 139.00
C 28.50 137.67 25.43 133.26 28.00 132.00
C 26.62 135.81 30.80 140.43 30.00 134.00
C 31.32 139.34 38.95 135.05 46.00 136.00 C 53.05 136.95 61.64 135.34 69.00 136.00 C 76.36 136.66 83.40 135.19 91.00 136.00 C 98.60 136.81 104.81 134.15 112.00 134.00
C 112.61 137.17 110.75 141.65 113.00 144.00
C 113.00 136.00 113.00 128.00 113.00 120.00
C 111.53 119.73 112.11 118.00 112.00 117.00
C 102.40 116.80 91.46 117.27 82.00 117.00 C 72.54 116.73 60.97 117.52 52.00 117.00 C 43.03 116.48 32.77 119.07 29.00 115.00
C 26.77 116.39 26.91 119.55 27.00 122.00
C 25.55 116.85 24.52 109.36 24.00 104.00
C 24.00 111.67 24.00 119.33 24.00 127.00 Z"/>
</g>
<g fill="#F5681A" fill-opacity="0.99" stroke="None">
<path d="
M 114.00 152.00 
C 114.00 173.58 113.17 195.87 115.00 217.00
C 118.49 216.54 123.81 211.76 127.00 210.00
C 129.01 208.62 130.53 207.07 133.00 206.00
C 138.88 203.46 144.30 200.14 150.00 197.00
C 152.66 193.33 145.51 193.93 151.00 192.00
C 141.87 186.99 145.68 175.40 136.00 170.00
C 141.26 167.28 135.13 164.45 133.80 161.25 C 132.47 158.05 131.24 153.67 126.00 154.00
C 130.56 149.72 125.08 145.57 125.00 141.00
C 120.41 139.33 120.26 139.36 119.00 144.00
C 118.44 138.26 121.11 133.11 118.00 128.00
C 113.85 127.80 117.68 133.67 115.00 135.00
C 115.00 124.67 115.00 114.33 115.00 104.00
C 115.00 104.00 114.00 103.96 114.00 104.00
C 114.00 120.00 114.00 136.00 114.00 152.00 Z"/>
</g>
<g fill="#F2AB6F" fill-opacity="0.57" stroke="None">
<path d="
M 168.00 112.00 
C 168.01 111.93 169.00 112.00 169.00 112.00
C 169.00 109.23 168.20 106.10 168.00 104.00
C 168.00 106.67 168.00 109.33 168.00 112.00 Z"/>
</g>
<g fill="#FEB680" fill-opacity="0.17" stroke="None">
<path d="
M 168.00 119.00 
C 168.01 119.07 169.00 119.00 169.00 119.00
C 169.30 116.76 169.00 114.26 169.00 112.00
C 169.00 112.00 168.01 111.93 168.00 112.00
C 168.00 114.26 167.70 116.76 168.00 119.00 Z"/>
</g>
<g fill="#F2AB6F" fill-opacity="0.55" stroke="None">
<path d="
M 186.00 122.00 
C 187.47 121.73 186.89 120.00 187.00 119.00
C 181.00 119.00 175.00 119.00 169.00 119.00
C 169.00 119.00 168.01 119.07 168.00 119.00
C 171.92 123.08 183.50 116.47 186.00 122.00 Z"/>
</g>
<g fill="#FFC0C0" fill-opacity="0.02" stroke="None">
<path d="
M 159.00 127.00 
C 159.01 127.07 160.00 127.00 160.00 127.00
C 160.47 124.43 159.18 121.83 159.00 120.00
C 159.00 122.26 158.70 124.76 159.00 127.00 Z"/>
</g>
<g fill="#2C2C2C" fill-opacity="1.00" stroke="None">
<path d="
M 25.00 165.00 
C 26.03 166.08 26.66 167.06 28.00 168.00
C 26.06 165.01 31.38 164.11 31.00 161.00
C 42.52 165.09 56.63 162.39 70.00 163.00 C 83.37 163.61 98.47 162.54 112.00 163.00
C 112.11 162.00 111.53 160.27 113.00 160.00
C 113.00 157.33 113.00 154.67 113.00 152.00
C 113.00 149.33 113.00 146.67 113.00 144.00
C 110.75 141.65 112.61 137.17 112.00 134.00
C 104.81 134.15 98.60 136.81 91.00 136.00 C 83.40 135.19 76.36 136.66 69.00 136.00 C 61.64 135.34 53.05 136.95 46.00 136.00 C 38.95 135.05 31.32 139.34 30.00 134.00
C 30.80 140.43 26.62 135.81 28.00 132.00
C 25.43 133.26 28.50 137.67 26.00 139.00
C 25.72 135.13 24.33 130.43 24.00 127.00
C 24.00 137.20 20.43 156.01 25.00 165.00 Z"/>
</g>
<g fill="#E29F63" fill-opacity="0.65" stroke="None">
<path d="
M 165.00 134.00 
C 166.70 132.81 169.12 131.36 169.00 129.00
C 166.03 127.21 161.17 131.39 160.00 127.00
C 160.00 127.00 159.01 127.07 159.00 127.00
C 159.00 128.00 159.00 129.00 159.00 130.00
C 162.00 130.00 165.00 130.00 168.00 130.00
C 167.20 131.37 166.02 132.72 165.00 134.00 Z"/>
</g>
<g fill="#EEC49F" fill-opacity="0.13" stroke="None">
<path d="
M 165.00 134.00 
C 165.00 134.00 165.09 134.52 165.00 135.00
C 166.04 133.88 171.76 130.66 169.00 129.00
C 169.12 131.36 166.70 132.81 165.00 134.00 Z"/>
</g>
<g fill="#F9BC8D" fill-opacity="0.31" stroke="None">
<path d="
M 160.00 141.00 
C 161.60 139.88 162.94 138.74 164.00 137.00
C 162.67 138.46 158.74 139.14 160.00 141.00 Z"/>
</g>
<g fill="#FFBB8A" fill-opacity="0.25" stroke="None">
<path d="
M 159.00 152.00 
C 159.00 151.96 160.00 152.00 160.00 152.00
C 160.00 148.67 160.00 145.33 160.00 142.00
C 158.22 144.40 159.00 148.79 159.00 152.00 Z"/>
</g>
<g fill="#2C0901" fill-opacity="0.97" stroke="None">
<path d="
M 113.00 160.00 
C 113.00 168.65 112.88 179.58 113.00 188.00 C 113.12 196.42 111.69 196.29 113.00 202.00 C 114.31 207.71 110.32 212.72 112.00 216.00
C 113.14 216.57 113.22 217.23 115.00 217.00
C 113.17 195.87 114.00 173.58 114.00 152.00
C 114.00 152.00 113.00 151.96 113.00 152.00
C 113.00 154.67 113.00 157.33 113.00 160.00 Z"/>
</g>
<g fill="#F1A170" fill-opacity="0.50" stroke="None">
<path d="
M 160.00 160.00 
C 160.00 157.33 160.00 154.67 160.00 152.00
C 160.00 152.00 159.00 151.96 159.00 152.00
C 159.00 154.77 159.80 157.90 160.00 160.00 Z"/>
</g>
<g fill="#1A1A1A" fill-opacity="0.98" stroke="None">
<path d="
M 28.00 168.00 
C 40.43 176.73 55.58 183.18 70.75 192.25 C 85.93 201.31 96.42 208.26 112.00 216.00
C 110.32 212.72 114.31 207.71 113.00 202.00 C 111.69 196.29 113.12 196.42 113.00 188.00 C 112.88 179.58 113.00 168.65 113.00 160.00
C 111.53 160.27 112.11 162.00 112.00 163.00
C 98.47 162.54 83.37 163.61 70.00 163.00 C 56.63 162.39 42.52 165.09 31.00 161.00
C 31.38 164.11 26.06 165.01 28.00 168.00 Z"/>
</g>
<g fill="#E19675" fill-opacity="0.16" stroke="None">
<path d="
M 127.00 210.00 
C 129.09 208.85 131.16 207.01 133.00 206.00
C 130.53 207.07 129.01 208.62 127.00 210.00 Z"/>
</g>
</svg>