<svg xmlns="http://www.w3.org/2000/svg" xmlns:v="https://svgstorm.com"
viewBox = "0 0 225 225"
width="225"
height="225">
<g fill="None" fill-opacity="0.0" stroke="#000000" stroke-opacity="0.00" stroke-width="0.3"><path d="
M 0.00 225.00 
L 225.00 225.00
L 225.00 0.00
L 0.00 0.00
L 0.00 225.00
M 116.00 17.00 
C 124.71 19.30 133.54 28.68 142.23 32.77 C 150.92 36.86 160.88 42.29 168.75 48.25 C 176.62 54.22 189.08 54.62 194.75 64.25 C 200.43 73.88 193.46 92.68 196.00 105.00 C 198.54 117.32 193.08 133.66 196.00 147.00 C 198.92 160.34 188.39 166.13 178.30 171.30 C 168.22 176.48 161.26 180.51 151.77 186.77 C 142.28 193.03 134.40 194.20 124.92 201.92 C 115.45 209.65 105.77 206.28 96.25 199.75 C 86.74 193.21 79.71 189.92 69.75 184.25 C 59.80 178.57 54.23 173.84 42.92 169.08 C 31.61 164.32 26.39 154.04 29.00 141.00 C 31.61 127.96 26.98 110.98 29.00 99.00 C 31.02 87.02 24.35 68.63 33.25 61.25 C 42.14 53.87 51.28 51.75 60.08 46.08 C 68.87 40.41 77.76 34.50 86.70 30.70 C 95.63 26.89 105.86 14.32 116.00 17.00 Z"/>
</g>
<g fill="None" fill-opacity="0.0" stroke="#A0ED16" stroke-opacity="0.95" stroke-width="0.3"><path d="
M 116.00 17.00 
C 105.86 14.32 95.63 26.89 86.70 30.70 C 77.76 34.50 68.87 40.41 60.08 46.08 C 51.28 51.75 42.14 53.87 33.25 61.25 C 24.35 68.63 31.02 87.02 29.00 99.00 C 26.98 110.98 31.61 127.96 29.00 141.00 C 26.39 154.04 31.61 164.32 42.92 169.08 C 54.23 173.84 59.80 178.57 69.75 184.25 C 79.71 189.92 86.74 193.21 96.25 199.75 C 105.77 206.28 115.45 209.65 124.92 201.92 C 134.40 194.20 142.28 193.03 151.77 186.77 C 161.26 180.51 168.22 176.48 178.30 171.30 C 188.39 166.13 198.92 160.34 196.00 147.00 C 193.08 133.66 198.54 117.32 196.00 105.00 C 193.46 92.68 200.43 73.88 194.75 64.25 C 189.08 54.62 176.62 54.22 168.75 48.25 C 160.88 42.29 150.92 36.86 142.23 32.77 C 133.54 28.68 124.71 19.30 116.00 17.00
M 115.00 36.00 
C 121.59 37.39 126.99 45.71 134.08 47.92 C 141.18 50.13 147.06 57.07 154.23 59.77 C 161.40 62.47 170.59 68.24 161.92 72.92 C 153.24 77.59 149.29 79.90 141.77 84.77 C 134.25 89.64 128.38 90.89 121.31 96.31 C 114.23 101.72 107.77 100.12 100.92 95.08 C 94.08 90.03 87.51 87.84 80.77 83.23 C 74.03 78.62 67.10 76.44 60.75 71.25 C 54.41 66.05 67.56 60.92 73.23 58.23 C 78.90 55.54 87.10 48.66 93.25 46.25 C 99.39 43.83 108.05 34.53 115.00 36.00
M 50.00 87.00 
C 55.03 87.14 61.63 94.76 67.08 96.92 C 72.52 99.09 79.43 103.74 84.70 107.30 C 89.96 110.87 97.27 111.51 101.70 117.30 C 106.12 123.09 101.35 135.42 103.00 144.00 C 104.65 152.58 101.14 161.80 103.00 172.00 C 104.86 182.20 97.69 182.37 90.92 177.08 C 84.15 171.80 79.95 170.88 73.25 166.75 C 66.56 162.61 62.72 159.72 55.31 156.69 C 47.89 153.67 44.38 147.02 46.00 139.00 C 47.62 130.98 44.57 117.82 46.00 111.00 C 47.43 104.18 42.06 86.78 50.00 87.00
M 178.00 87.00 
C 182.25 89.71 177.95 100.40 179.00 106.00 C 180.05 111.60 178.96 118.57 179.00 126.00 C 179.04 133.43 179.95 136.24 179.00 146.00 C 178.05 155.76 163.76 158.82 156.25 164.25 C 148.75 169.69 138.53 173.56 130.92 178.92 C 123.31 184.28 121.56 180.22 122.00 173.00 C 122.44 165.78 121.74 159.63 122.00 153.00 C 122.26 146.37 121.75 139.03 122.00 133.00 C 122.25 126.97 120.23 118.95 125.23 116.23 C 130.23 113.51 133.79 110.80 138.25 108.25 C 142.70 105.70 147.33 103.64 151.23 101.23 C 155.13 98.82 160.40 95.27 164.08 94.08 C 167.75 92.88 174.33 84.66 178.00 87.00 Z"/>
</g>
<g fill="None" fill-opacity="0.0" stroke="#000000" stroke-opacity="0.00" stroke-width="0.3"><path d="
M 115.00 36.00 
C 108.05 34.53 99.39 43.83 93.25 46.25 C 87.10 48.66 78.90 55.54 73.23 58.23 C 67.56 60.92 54.41 66.05 60.75 71.25 C 67.10 76.44 74.03 78.62 80.77 83.23 C 87.51 87.84 94.08 90.03 100.92 95.08 C 107.77 100.12 114.23 101.72 121.31 96.31 C 128.38 90.89 134.25 89.64 141.77 84.77 C 149.29 79.90 153.24 77.59 161.92 72.92 C 170.59 68.24 161.40 62.47 154.23 59.77 C 147.06 57.07 141.18 50.13 134.08 47.92 C 126.99 45.71 121.59 37.39 115.00 36.00 Z"/>
</g>
<g fill="None" fill-opacity="0.0" stroke="#000000" stroke-opacity="0.00" stroke-width="0.3"><path d="
M 50.00 87.00 
C 42.06 86.78 47.43 104.18 46.00 111.00 C 44.57 117.82 47.62 130.98 46.00 139.00 C 44.38 147.02 47.89 153.67 55.31 156.69 C 62.72 159.72 66.56 162.61 73.25 166.75 C 79.95 170.88 84.15 171.80 90.92 177.08 C 97.69 182.37 104.86 182.20 103.00 172.00 C 101.14 161.80 104.65 152.58 103.00 144.00 C 101.35 135.42 106.12 123.09 101.70 117.30 C 97.27 111.51 89.96 110.87 84.70 107.30 C 79.43 103.74 72.52 99.09 67.08 96.92 C 61.63 94.76 55.03 87.14 50.00 87.00 Z"/>
</g>
<g fill="None" fill-opacity="0.0" stroke="#000000" stroke-opacity="0.00" stroke-width="0.3"><path d="
M 178.00 87.00 
C 174.33 84.66 167.75 92.88 164.08 94.08 C 160.40 95.27 155.13 98.82 151.23 101.23 C 147.33 103.64 142.70 105.70 138.25 108.25 C 133.79 110.80 130.23 113.51 125.23 116.23 C 120.23 118.95 122.25 126.97 122.00 133.00 C 121.75 139.03 122.26 146.37 122.00 153.00 C 121.74 159.63 122.44 165.78 122.00 173.00 C 121.56 180.22 123.31 184.28 130.92 178.92 C 138.53 173.56 148.75 169.69 156.25 164.25 C 163.76 158.82 178.05 155.76 179.00 146.00 C 179.95 136.24 179.04 133.43 179.00 126.00 C 178.96 118.57 180.05 111.60 179.00 106.00 C 177.95 100.40 182.25 89.71 178.00 87.00 Z"/>
</g>
<g fill="#000000" fill-opacity="0.00" stroke="None">
<path d="
M 0.00 225.00 
L 225.00 225.00
L 225.00 0.00
L 0.00 0.00
L 0.00 225.00
M 116.00 17.00 
C 124.71 19.30 133.54 28.68 142.23 32.77 C 150.92 36.86 160.88 42.29 168.75 48.25 C 176.62 54.22 189.08 54.62 194.75 64.25 C 200.43 73.88 193.46 92.68 196.00 105.00 C 198.54 117.32 193.08 133.66 196.00 147.00 C 198.92 160.34 188.39 166.13 178.30 171.30 C 168.22 176.48 161.26 180.51 151.77 186.77 C 142.28 193.03 134.40 194.20 124.92 201.92 C 115.45 209.65 105.77 206.28 96.25 199.75 C 86.74 193.21 79.71 189.92 69.75 184.25 C 59.80 178.57 54.23 173.84 42.92 169.08 C 31.61 164.32 26.39 154.04 29.00 141.00 C 31.61 127.96 26.98 110.98 29.00 99.00 C 31.02 87.02 24.35 68.63 33.25 61.25 C 42.14 53.87 51.28 51.75 60.08 46.08 C 68.87 40.41 77.76 34.50 86.70 30.70 C 95.63 26.89 105.86 14.32 116.00 17.00 Z"/>
</g>
<g fill="#A0ED16" fill-opacity="0.95" stroke="None">
<path d="
M 116.00 17.00 
C 105.86 14.32 95.63 26.89 86.70 30.70 C 77.76 34.50 68.87 40.41 60.08 46.08 C 51.28 51.75 42.14 53.87 33.25 61.25 C 24.35 68.63 31.02 87.02 29.00 99.00 C 26.98 110.98 31.61 127.96 29.00 141.00 C 26.39 154.04 31.61 164.32 42.92 169.08 C 54.23 173.84 59.80 178.57 69.75 184.25 C 79.71 189.92 86.74 193.21 96.25 199.75 C 105.77 206.28 115.45 209.65 124.92 201.92 C 134.40 194.20 142.28 193.03 151.77 186.77 C 161.26 180.51 168.22 176.48 178.30 171.30 C 188.39 166.13 198.92 160.34 196.00 147.00 C 193.08 133.66 198.54 117.32 196.00 105.00 C 193.46 92.68 200.43 73.88 194.75 64.25 C 189.08 54.62 176.62 54.22 168.75 48.25 C 160.88 42.29 150.92 36.86 142.23 32.77 C 133.54 28.68 124.71 19.30 116.00 17.00
M 115.00 36.00 
C 121.59 37.39 126.99 45.71 134.08 47.92 C 141.18 50.13 147.06 57.07 154.23 59.77 C 161.40 62.47 170.59 68.24 161.92 72.92 C 153.24 77.59 149.29 79.90 141.77 84.77 C 134.25 89.64 128.38 90.89 121.31 96.31 C 114.23 101.72 107.77 100.12 100.92 95.08 C 94.08 90.03 87.51 87.84 80.77 83.23 C 74.03 78.62 67.10 76.44 60.75 71.25 C 54.41 66.05 67.56 60.92 73.23 58.23 C 78.90 55.54 87.10 48.66 93.25 46.25 C 99.39 43.83 108.05 34.53 115.00 36.00
M 50.00 87.00 
C 55.03 87.14 61.63 94.76 67.08 96.92 C 72.52 99.09 79.43 103.74 84.70 107.30 C 89.96 110.87 97.27 111.51 101.70 117.30 C 106.12 123.09 101.35 135.42 103.00 144.00 C 104.65 152.58 101.14 161.80 103.00 172.00 C 104.86 182.20 97.69 182.37 90.92 177.08 C 84.15 171.80 79.95 170.88 73.25 166.75 C 66.56 162.61 62.72 159.72 55.31 156.69 C 47.89 153.67 44.38 147.02 46.00 139.00 C 47.62 130.98 44.57 117.82 46.00 111.00 C 47.43 104.18 42.06 86.78 50.00 87.00
M 178.00 87.00 
C 182.25 89.71 177.95 100.40 179.00 106.00 C 180.05 111.60 178.96 118.57 179.00 126.00 C 179.04 133.43 179.95 136.24 179.00 146.00 C 178.05 155.76 163.76 158.82 156.25 164.25 C 148.75 169.69 138.53 173.56 130.92 178.92 C 123.31 184.28 121.56 180.22 122.00 173.00 C 122.44 165.78 121.74 159.63 122.00 153.00 C 122.26 146.37 121.75 139.03 122.00 133.00 C 122.25 126.97 120.23 118.95 125.23 116.23 C 130.23 113.51 133.79 110.80 138.25 108.25 C 142.70 105.70 147.33 103.64 151.23 101.23 C 155.13 98.82 160.40 95.27 164.08 94.08 C 167.75 92.88 174.33 84.66 178.00 87.00 Z"/>
</g>
<g fill="#000000" fill-opacity="0.00" stroke="None">
<path d="
M 115.00 36.00 
C 108.05 34.53 99.39 43.83 93.25 46.25 C 87.10 48.66 78.90 55.54 73.23 58.23 C 67.56 60.92 54.41 66.05 60.75 71.25 C 67.10 76.44 74.03 78.62 80.77 83.23 C 87.51 87.84 94.08 90.03 100.92 95.08 C 107.77 100.12 114.23 101.72 121.31 96.31 C 128.38 90.89 134.25 89.64 141.77 84.77 C 149.29 79.90 153.24 77.59 161.92 72.92 C 170.59 68.24 161.40 62.47 154.23 59.77 C 147.06 57.07 141.18 50.13 134.08 47.92 C 126.99 45.71 121.59 37.39 115.00 36.00 Z"/>
</g>
<g fill="#000000" fill-opacity="0.00" stroke="None">
<path d="
M 50.00 87.00 
C 42.06 86.78 47.43 104.18 46.00 111.00 C 44.57 117.82 47.62 130.98 46.00 139.00 C 44.38 147.02 47.89 153.67 55.31 156.69 C 62.72 159.72 66.56 162.61 73.25 166.75 C 79.95 170.88 84.15 171.80 90.92 177.08 C 97.69 182.37 104.86 182.20 103.00 172.00 C 101.14 161.80 104.65 152.58 103.00 144.00 C 101.35 135.42 106.12 123.09 101.70 117.30 C 97.27 111.51 89.96 110.87 84.70 107.30 C 79.43 103.74 72.52 99.09 67.08 96.92 C 61.63 94.76 55.03 87.14 50.00 87.00 Z"/>
</g>
<g fill="#000000" fill-opacity="0.00" stroke="None">
<path d="
M 178.00 87.00 
C 174.33 84.66 167.75 92.88 164.08 94.08 C 160.40 95.27 155.13 98.82 151.23 101.23 C 147.33 103.64 142.70 105.70 138.25 108.25 C 133.79 110.80 130.23 113.51 125.23 116.23 C 120.23 118.95 122.25 126.97 122.00 133.00 C 121.75 139.03 122.26 146.37 122.00 153.00 C 121.74 159.63 122.44 165.78 122.00 173.00 C 121.56 180.22 123.31 184.28 130.92 178.92 C 138.53 173.56 148.75 169.69 156.25 164.25 C 163.76 158.82 178.05 155.76 179.00 146.00 C 179.95 136.24 179.04 133.43 179.00 126.00 C 178.96 118.57 180.05 111.60 179.00 106.00 C 177.95 100.40 182.25 89.71 178.00 87.00 Z"/>
</g>
</svg>