<svg xmlns="http://www.w3.org/2000/svg" xmlns:v="https://svgstorm.com"
viewBox = "0 0 225 225"
width="225"
height="225">
<g fill="None" fill-opacity="0.0" stroke="#000000" stroke-opacity="0.00" stroke-width="0.3"><path d="
M 0.00 225.00 
L 225.00 225.00
L 225.00 0.00
L 0.00 0.00
L 0.00 225.00
M 198.00 53.00 
C 198.44 53.65 198.74 54.27 199.00 55.00
C 209.27 70.04 214.75 87.63 216.00 106.00
C 217.48 127.73 212.07 148.11 201.00 166.00
C 187.58 187.68 167.58 202.68 144.00 211.00
C 143.23 211.27 141.84 211.86 141.00 212.00
C 140.66 212.06 138.15 211.76 138.00 212.00
C 137.20 212.14 135.27 212.78 134.00 213.00
C 128.94 213.86 124.37 214.63 119.00 215.00
C 114.28 215.32 110.61 215.45 106.00 215.00
C 104.35 214.84 102.65 215.13 101.00 215.00
C 99.12 214.85 97.82 214.38 96.00 214.00
C 52.32 204.76 17.63 174.14 10.00 129.00
C 8.37 119.37 8.89 108.22 10.00 99.00
C 10.60 94.06 10.65 89.72 12.00 85.00
C 12.30 83.95 12.69 83.06 13.00 82.00
C 15.87 72.20 19.73 60.55 27.00 53.00
C 27.25 52.74 27.71 52.23 28.00 52.00
C 37.25 32.30 57.09 22.97 76.22 14.22 C 95.36 5.48 129.37 7.32 149.22 14.78 C 169.07 22.24 185.86 35.27 198.00 53.00 Z"/>
</g>
<g fill="None" fill-opacity="0.0" stroke="#E9E9E9" stroke-opacity="0.97" stroke-width="0.3"><path d="
M 28.00 52.00 
C 29.17 51.08 30.41 49.89 32.00 50.00
C 28.98 52.61 29.07 54.78 26.00 57.00
C 25.63 55.46 27.43 54.60 27.00 53.00
C 19.73 60.55 15.87 72.20 13.00 82.00
C 12.80 80.07 17.15 83.28 15.00 85.00
C 14.00 85.00 13.00 85.00 12.00 85.00
C 10.65 89.72 10.60 94.06 10.00 99.00
C 10.34 103.45 10.81 111.07 11.00 116.00 C 11.19 120.93 10.02 128.76 10.00 129.00
C 17.63 174.14 52.32 204.76 96.00 214.00
C 95.84 214.03 97.83 213.07 98.00 213.00
C 99.74 212.31 101.64 211.64 104.00 212.00
C 101.30 210.28 97.98 204.66 96.00 202.00
C 93.10 198.10 82.81 189.65 84.00 185.00
C 83.51 182.35 84.66 179.90 85.00 178.00
C 86.15 159.94 103.87 149.62 119.08 142.08 C 134.28 134.53 149.53 129.10 161.30 113.30 C 173.08 97.51 160.07 75.78 140.00 76.00 C 119.93 76.22 105.11 86.54 94.25 101.25 C 83.39 115.95 57.86 117.11 65.00 139.00
C 56.01 138.40 46.69 130.20 46.00 121.00
C 51.71 119.56 67.72 107.08 59.00 104.00
C 72.63 79.55 97.35 62.68 115.00 41.00
C 111.79 50.79 105.36 59.46 100.00 68.00
C 110.03 59.65 118.52 49.25 127.00 40.00
C 125.25 48.77 118.31 55.81 115.00 64.00
C 122.80 63.35 128.87 57.41 136.00 55.00
C 134.05 66.04 146.67 54.76 152.00 54.00
C 151.73 56.77 149.78 59.07 150.00 62.00
C 155.64 61.26 161.34 60.74 167.00 60.00
C 166.48 62.84 163.08 64.11 163.00 67.00
C 168.29 68.09 173.51 69.55 179.00 70.00
C 186.16 72.98 189.09 83.10 194.92 88.08 C 200.75 93.07 205.27 101.66 211.00 107.00
C 211.38 107.35 212.76 107.68 213.00 108.00
C 212.72 106.04 213.21 103.97 213.00 102.00
C 214.39 102.26 213.78 104.05 214.00 105.00
C 214.22 105.38 215.88 105.75 216.00 106.00
C 214.75 87.63 209.27 70.04 199.00 55.00
C 200.23 58.42 202.77 61.23 203.00 65.00
C 198.23 59.52 196.79 53.66 192.00 48.00
C 194.68 48.05 195.21 52.32 198.00 53.00
C 185.86 35.27 169.07 22.24 149.22 14.78 C 129.37 7.32 95.36 5.48 76.22 14.22 C 57.09 22.97 37.25 32.30 28.00 52.00
M 125.00 11.00 
C 121.23 14.14 119.99 8.34 125.00 11.00
M 165.00 25.00 
C 158.28 23.21 163.62 18.92 165.00 25.00
M 18.00 74.00 
C 17.87 81.81 12.03 76.27 18.00 74.00 Z"/>
</g>
<g fill="None" fill-opacity="0.0" stroke="#E7E2E4" stroke-opacity="0.71" stroke-width="0.3"><path d="
M 125.00 11.00 
C 119.99 8.34 121.23 14.14 125.00 11.00 Z"/>
</g>
<g fill="None" fill-opacity="0.0" stroke="#E4DEE0" stroke-opacity="0.57" stroke-width="0.3"><path d="
M 165.00 25.00 
C 163.62 18.92 158.28 23.21 165.00 25.00 Z"/>
</g>
<g fill="None" fill-opacity="0.0" stroke="#252525" stroke-opacity="1.00" stroke-width="0.3"><path d="
M 85.00 178.00 
C 84.85 180.30 85.30 182.72 85.00 185.00
C 85.16 185.97 84.87 187.02 85.00 188.00
C 93.62 148.18 144.15 149.90 169.00 125.00
C 171.04 125.81 171.97 128.27 174.00 129.00
C 174.89 123.90 175.98 118.80 178.00 114.00
C 180.37 114.97 182.39 116.75 185.00 117.00
C 184.15 111.64 181.98 106.61 182.00 101.00
C 184.52 100.44 188.30 102.19 190.00 100.00
C 186.18 96.26 183.12 91.44 180.00 87.00
C 182.07 85.36 185.62 86.56 187.00 84.00
C 183.13 80.22 177.44 78.93 174.00 75.00
C 175.66 73.23 178.85 72.54 179.00 70.00
C 173.51 69.55 168.29 68.09 163.00 67.00
C 163.08 64.11 166.48 62.84 167.00 60.00
C 161.34 60.74 155.64 61.26 150.00 62.00
C 149.78 59.07 151.73 56.77 152.00 54.00
C 146.67 54.76 134.05 66.04 136.00 55.00
C 128.87 57.41 122.80 63.35 115.00 64.00
C 118.31 55.81 125.25 48.77 127.00 40.00
C 118.52 49.25 110.03 59.65 100.00 68.00
C 105.36 59.46 111.79 50.79 115.00 41.00
C 97.35 62.68 72.63 79.55 59.00 104.00
C 67.72 107.08 51.71 119.56 46.00 121.00
C 46.69 130.20 56.01 138.40 65.00 139.00
C 57.86 117.11 83.39 115.95 94.25 101.25 C 105.11 86.54 119.93 76.22 140.00 76.00 C 160.07 75.78 173.08 97.51 161.30 113.30 C 149.53 129.10 134.28 134.53 119.08 142.08 C 103.87 149.62 86.15 159.94 85.00 178.00
M 80.00 88.00 
C 80.94 93.14 75.34 95.62 72.00 98.00
C 73.61 94.30 76.66 90.51 80.00 88.00 Z"/>
</g>
<g fill="None" fill-opacity="0.0" stroke="#DAD5D6" stroke-opacity="0.46" stroke-width="0.3"><path d="
M 199.00 55.00 
C 198.74 54.27 198.44 53.65 198.00 53.00
C 195.21 52.32 194.68 48.05 192.00 48.00
C 196.79 53.66 198.23 59.52 203.00 65.00
C 202.77 61.23 200.23 58.42 199.00 55.00 Z"/>
</g>
<g fill="None" fill-opacity="0.0" stroke="#DBD8DA" stroke-opacity="0.53" stroke-width="0.3"><path d="
M 28.00 52.00 
C 27.71 52.23 27.25 52.74 27.00 53.00
C 27.43 54.60 25.63 55.46 26.00 57.00
C 29.07 54.78 28.98 52.61 32.00 50.00
C 30.41 49.89 29.17 51.08 28.00 52.00 Z"/>
</g>
<g fill="None" fill-opacity="0.0" stroke="#AAAAAA" stroke-opacity="1.00" stroke-width="0.3"><path d="
M 85.00 185.00 
C 84.99 184.92 84.00 185.00 84.00 185.00
C 82.81 189.65 93.10 198.10 96.00 202.00
C 96.00 202.01 96.38 198.67 95.00 198.00
C 101.28 194.66 110.72 191.58 112.00 184.00
C 122.75 181.16 131.63 171.51 141.25 165.25 C 150.86 158.98 163.19 153.88 168.00 144.00
C 175.85 144.58 179.70 136.67 185.25 133.25 C 190.81 129.84 199.01 126.85 200.00 120.00
C 205.83 123.53 207.68 113.39 210.00 117.00
C 208.49 113.17 213.26 110.28 211.00 107.00
C 205.27 101.66 200.75 93.07 194.92 88.08 C 189.09 83.10 186.16 72.98 179.00 70.00
C 178.85 72.54 175.66 73.23 174.00 75.00
C 177.44 78.93 183.13 80.22 187.00 84.00
C 185.62 86.56 182.07 85.36 180.00 87.00
C 183.12 91.44 186.18 96.26 190.00 100.00
C 188.30 102.19 184.52 100.44 182.00 101.00
C 181.98 106.61 184.15 111.64 185.00 117.00
C 182.39 116.75 180.37 114.97 178.00 114.00
C 175.98 118.80 174.89 123.90 174.00 129.00
C 171.97 128.27 171.04 125.81 169.00 125.00
C 144.15 149.90 93.62 148.18 85.00 188.00
C 84.87 187.02 85.16 185.97 85.00 185.00 Z"/>
</g>
<g fill="None" fill-opacity="0.0" stroke="#DFDCDD" stroke-opacity="0.61" stroke-width="0.3"><path d="
M 18.00 74.00 
C 12.03 76.27 17.87 81.81 18.00 74.00 Z"/>
</g>
<g fill="None" fill-opacity="0.0" stroke="#D8D4D7" stroke-opacity="0.44" stroke-width="0.3"><path d="
M 13.00 82.00 
C 12.69 83.06 12.30 83.95 12.00 85.00
C 13.00 85.00 14.00 85.00 15.00 85.00
C 17.15 83.28 12.80 80.07 13.00 82.00 Z"/>
</g>
<g fill="None" fill-opacity="0.0" stroke="#C9C9C9" stroke-opacity="1.00" stroke-width="0.3"><path d="
M 80.00 88.00 
C 76.66 90.51 73.61 94.30 72.00 98.00
C 75.34 95.62 80.94 93.14 80.00 88.00 Z"/>
</g>
<g fill="None" fill-opacity="0.0" stroke="#D7D1D3" stroke-opacity="0.27" stroke-width="0.3"><path d="
M 10.00 129.00 
C 10.02 128.76 11.19 120.93 11.00 116.00 C 10.81 111.07 10.34 103.45 10.00 99.00
C 8.89 108.22 8.37 119.37 10.00 129.00 Z"/>
</g>
<g fill="None" fill-opacity="0.0" stroke="#E4DADF" stroke-opacity="0.76" stroke-width="0.3"><path d="
M 213.00 108.00 
C 213.15 109.07 213.84 109.39 214.00 110.00
C 214.00 108.36 214.15 106.64 214.00 105.00
C 213.78 104.05 214.39 102.26 213.00 102.00
C 213.21 103.97 212.72 106.04 213.00 108.00 Z"/>
</g>
<g fill="None" fill-opacity="0.0" stroke="#AEA8AB" stroke-opacity="0.31" stroke-width="0.3"><path d="
M 214.00 110.00 
C 214.00 115.40 214.09 122.61 213.78 127.22 C 213.47 131.84 210.85 135.65 209.23 140.23 C 207.60 144.80 207.99 151.79 204.23 155.23 C 200.47 158.67 200.88 166.64 201.00 166.00
C 212.07 148.11 217.48 127.73 216.00 106.00
C 215.88 105.75 214.22 105.38 214.00 105.00
C 214.15 106.64 214.00 108.36 214.00 110.00 Z"/>
</g>
<g fill="None" fill-opacity="0.0" stroke="#BABABA" stroke-opacity="0.97" stroke-width="0.3"><path d="
M 96.00 202.00 
C 97.98 204.66 101.30 210.28 104.00 212.00
C 105.03 212.16 105.42 212.85 106.00 213.00
C 110.92 211.57 116.98 214.07 122.00 213.00
C 121.74 214.39 119.95 213.78 119.00 214.00
C 118.92 214.01 119.00 215.00 119.00 215.00
C 124.37 214.63 128.94 213.86 134.00 213.00
C 134.24 212.80 134.00 212.00 134.00 212.00
C 134.18 209.85 135.64 209.47 137.00 211.00
C 137.25 211.09 137.98 212.03 138.00 212.00
C 138.15 211.76 140.66 212.06 141.00 212.00
C 141.20 211.79 139.21 209.57 140.00 209.00
C 142.43 210.52 144.78 206.53 148.00 208.00
C 147.26 209.53 144.23 208.67 144.00 211.00
C 167.58 202.68 187.58 187.68 201.00 166.00
C 200.88 166.64 200.47 158.67 204.23 155.23 C 207.99 151.79 207.60 144.80 209.23 140.23 C 210.85 135.65 213.47 131.84 213.78 127.22 C 214.09 122.61 214.00 115.40 214.00 110.00
C 213.84 109.39 213.15 109.07 213.00 108.00
C 212.76 107.68 211.38 107.35 211.00 107.00
C 213.26 110.28 208.49 113.17 210.00 117.00
C 207.68 113.39 205.83 123.53 200.00 120.00
C 199.01 126.85 190.81 129.84 185.25 133.25 C 179.70 136.67 175.85 144.58 168.00 144.00
C 163.19 153.88 150.86 158.98 141.25 165.25 C 131.63 171.51 122.75 181.16 112.00 184.00
C 110.72 191.58 101.28 194.66 95.00 198.00
C 96.38 198.67 96.00 202.01 96.00 202.00
M 174.00 193.00 
C 172.40 198.73 167.72 195.43 174.00 193.00 Z"/>
</g>
<g fill="None" fill-opacity="0.0" stroke="#7A7A7A" stroke-opacity="1.00" stroke-width="0.3"><path d="
M 84.00 185.00 
C 84.00 185.00 84.99 184.92 85.00 185.00
C 85.30 182.72 84.85 180.30 85.00 178.00
C 84.66 179.90 83.51 182.35 84.00 185.00 Z"/>
</g>
<g fill="None" fill-opacity="0.0" stroke="#B7B2B4" stroke-opacity="0.43" stroke-width="0.3"><path d="
M 174.00 193.00 
C 167.72 195.43 172.40 198.73 174.00 193.00 Z"/>
</g>
<g fill="None" fill-opacity="0.0" stroke="#B4ACB0" stroke-opacity="0.40" stroke-width="0.3"><path d="
M 141.00 212.00 
C 141.84 211.86 143.23 211.27 144.00 211.00
C 144.23 208.67 147.26 209.53 148.00 208.00
C 144.78 206.53 142.43 210.52 140.00 209.00
C 139.21 209.57 141.20 211.79 141.00 212.00 Z"/>
</g>
<g fill="None" fill-opacity="0.0" stroke="#C0BBBD" stroke-opacity="0.75" stroke-width="0.3"><path d="
M 134.00 212.00 
C 133.98 212.01 136.99 211.00 137.00 211.00
C 135.64 209.47 134.18 209.85 134.00 212.00 Z"/>
</g>
<g fill="None" fill-opacity="0.0" stroke="#B8ACAC" stroke-opacity="0.12" stroke-width="0.3"><path d="
M 134.00 212.00 
C 134.00 212.00 134.24 212.80 134.00 213.00
C 135.27 212.78 137.20 212.14 138.00 212.00
C 137.98 212.03 137.25 211.09 137.00 211.00
C 136.99 211.00 133.98 212.01 134.00 212.00 Z"/>
</g>
<g fill="None" fill-opacity="0.0" stroke="#D9D2D3" stroke-opacity="0.54" stroke-width="0.3"><path d="
M 98.00 213.00 
C 100.02 212.95 99.83 214.62 101.00 215.00
C 102.65 215.13 104.35 214.84 106.00 215.00
C 105.76 214.80 106.00 214.00 106.00 214.00
C 105.68 213.54 104.70 213.38 106.00 213.00
C 105.42 212.85 105.03 212.16 104.00 212.00
C 101.64 211.64 99.74 212.31 98.00 213.00 Z"/>
</g>
<g fill="None" fill-opacity="0.0" stroke="#D8BDBF" stroke-opacity="0.12" stroke-width="0.3"><path d="
M 96.00 214.00 
C 97.82 214.38 99.12 214.85 101.00 215.00
C 99.83 214.62 100.02 212.95 98.00 213.00
C 97.83 213.07 95.84 214.03 96.00 214.00 Z"/>
</g>
<g fill="None" fill-opacity="0.0" stroke="#BBB4B7" stroke-opacity="0.73" stroke-width="0.3"><path d="
M 106.00 214.00 
C 110.10 213.63 114.90 213.63 119.00 214.00
C 119.95 213.78 121.74 214.39 122.00 213.00
C 116.98 214.07 110.92 211.57 106.00 213.00
C 104.70 213.38 105.68 213.54 106.00 214.00 Z"/>
</g>
<g fill="None" fill-opacity="0.0" stroke="#ADA6AB" stroke-opacity="0.16" stroke-width="0.3"><path d="
M 106.00 215.00 
C 110.61 215.45 114.28 215.32 119.00 215.00
C 119.00 215.00 118.92 214.01 119.00 214.00
C 114.90 213.63 110.10 213.63 106.00 214.00
C 106.00 214.00 105.76 214.80 106.00 215.00 Z"/>
</g>
<g fill="#000000" fill-opacity="0.00" stroke="None">
<path d="
M 0.00 225.00 
L 225.00 225.00
L 225.00 0.00
L 0.00 0.00
L 0.00 225.00
M 198.00 53.00 
C 198.44 53.65 198.74 54.27 199.00 55.00
C 209.27 70.04 214.75 87.63 216.00 106.00
C 217.48 127.73 212.07 148.11 201.00 166.00
C 187.58 187.68 167.58 202.68 144.00 211.00
C 143.23 211.27 141.84 211.86 141.00 212.00
C 140.66 212.06 138.15 211.76 138.00 212.00
C 137.20 212.14 135.27 212.78 134.00 213.00
C 128.94 213.86 124.37 214.63 119.00 215.00
C 114.28 215.32 110.61 215.45 106.00 215.00
C 104.35 214.84 102.65 215.13 101.00 215.00
C 99.12 214.85 97.82 214.38 96.00 214.00
C 52.32 204.76 17.63 174.14 10.00 129.00
C 8.37 119.37 8.89 108.22 10.00 99.00
C 10.60 94.06 10.65 89.72 12.00 85.00
C 12.30 83.95 12.69 83.06 13.00 82.00
C 15.87 72.20 19.73 60.55 27.00 53.00
C 27.25 52.74 27.71 52.23 28.00 52.00
C 37.25 32.30 57.09 22.97 76.22 14.22 C 95.36 5.48 129.37 7.32 149.22 14.78 C 169.07 22.24 185.86 35.27 198.00 53.00 Z"/>
</g>
<g fill="#E9E9E9" fill-opacity="0.97" stroke="None">
<path d="
M 28.00 52.00 
C 29.17 51.08 30.41 49.89 32.00 50.00
C 28.98 52.61 29.07 54.78 26.00 57.00
C 25.63 55.46 27.43 54.60 27.00 53.00
C 19.73 60.55 15.87 72.20 13.00 82.00
C 12.80 80.07 17.15 83.28 15.00 85.00
C 14.00 85.00 13.00 85.00 12.00 85.00
C 10.65 89.72 10.60 94.06 10.00 99.00
C 10.34 103.45 10.81 111.07 11.00 116.00 C 11.19 120.93 10.02 128.76 10.00 129.00
C 17.63 174.14 52.32 204.76 96.00 214.00
C 95.84 214.03 97.83 213.07 98.00 213.00
C 99.74 212.31 101.64 211.64 104.00 212.00
C 101.30 210.28 97.98 204.66 96.00 202.00
C 93.10 198.10 82.81 189.65 84.00 185.00
C 83.51 182.35 84.66 179.90 85.00 178.00
C 86.15 159.94 103.87 149.62 119.08 142.08 C 134.28 134.53 149.53 129.10 161.30 113.30 C 173.08 97.51 160.07 75.78 140.00 76.00 C 119.93 76.22 105.11 86.54 94.25 101.25 C 83.39 115.95 57.86 117.11 65.00 139.00
C 56.01 138.40 46.69 130.20 46.00 121.00
C 51.71 119.56 67.72 107.08 59.00 104.00
C 72.63 79.55 97.35 62.68 115.00 41.00
C 111.79 50.79 105.36 59.46 100.00 68.00
C 110.03 59.65 118.52 49.25 127.00 40.00
C 125.25 48.77 118.31 55.81 115.00 64.00
C 122.80 63.35 128.87 57.41 136.00 55.00
C 134.05 66.04 146.67 54.76 152.00 54.00
C 151.73 56.77 149.78 59.07 150.00 62.00
C 155.64 61.26 161.34 60.74 167.00 60.00
C 166.48 62.84 163.08 64.11 163.00 67.00
C 168.29 68.09 173.51 69.55 179.00 70.00
C 186.16 72.98 189.09 83.10 194.92 88.08 C 200.75 93.07 205.27 101.66 211.00 107.00
C 211.38 107.35 212.76 107.68 213.00 108.00
C 212.72 106.04 213.21 103.97 213.00 102.00
C 214.39 102.26 213.78 104.05 214.00 105.00
C 214.22 105.38 215.88 105.75 216.00 106.00
C 214.75 87.63 209.27 70.04 199.00 55.00
C 200.23 58.42 202.77 61.23 203.00 65.00
C 198.23 59.52 196.79 53.66 192.00 48.00
C 194.68 48.05 195.21 52.32 198.00 53.00
C 185.86 35.27 169.07 22.24 149.22 14.78 C 129.37 7.32 95.36 5.48 76.22 14.22 C 57.09 22.97 37.25 32.30 28.00 52.00
M 125.00 11.00 
C 121.23 14.14 119.99 8.34 125.00 11.00
M 165.00 25.00 
C 158.28 23.21 163.62 18.92 165.00 25.00
M 18.00 74.00 
C 17.87 81.81 12.03 76.27 18.00 74.00 Z"/>
</g>
<g fill="#E7E2E4" fill-opacity="0.71" stroke="None">
<path d="
M 125.00 11.00 
C 119.99 8.34 121.23 14.14 125.00 11.00 Z"/>
</g>
<g fill="#E4DEE0" fill-opacity="0.57" stroke="None">
<path d="
M 165.00 25.00 
C 163.62 18.92 158.28 23.21 165.00 25.00 Z"/>
</g>
<g fill="#252525" fill-opacity="1.00" stroke="None">
<path d="
M 85.00 178.00 
C 84.85 180.30 85.30 182.72 85.00 185.00
C 85.16 185.97 84.87 187.02 85.00 188.00
C 93.62 148.18 144.15 149.90 169.00 125.00
C 171.04 125.81 171.97 128.27 174.00 129.00
C 174.89 123.90 175.98 118.80 178.00 114.00
C 180.37 114.97 182.39 116.75 185.00 117.00
C 184.15 111.64 181.98 106.61 182.00 101.00
C 184.52 100.44 188.30 102.19 190.00 100.00
C 186.18 96.26 183.12 91.44 180.00 87.00
C 182.07 85.36 185.62 86.56 187.00 84.00
C 183.13 80.22 177.44 78.93 174.00 75.00
C 175.66 73.23 178.85 72.54 179.00 70.00
C 173.51 69.55 168.29 68.09 163.00 67.00
C 163.08 64.11 166.48 62.84 167.00 60.00
C 161.34 60.74 155.64 61.26 150.00 62.00
C 149.78 59.07 151.73 56.77 152.00 54.00
C 146.67 54.76 134.05 66.04 136.00 55.00
C 128.87 57.41 122.80 63.35 115.00 64.00
C 118.31 55.81 125.25 48.77 127.00 40.00
C 118.52 49.25 110.03 59.65 100.00 68.00
C 105.36 59.46 111.79 50.79 115.00 41.00
C 97.35 62.68 72.63 79.55 59.00 104.00
C 67.72 107.08 51.71 119.56 46.00 121.00
C 46.69 130.20 56.01 138.40 65.00 139.00
C 57.86 117.11 83.39 115.95 94.25 101.25 C 105.11 86.54 119.93 76.22 140.00 76.00 C 160.07 75.78 173.08 97.51 161.30 113.30 C 149.53 129.10 134.28 134.53 119.08 142.08 C 103.87 149.62 86.15 159.94 85.00 178.00
M 80.00 88.00 
C 80.94 93.14 75.34 95.62 72.00 98.00
C 73.61 94.30 76.66 90.51 80.00 88.00 Z"/>
</g>
<g fill="#DAD5D6" fill-opacity="0.46" stroke="None">
<path d="
M 199.00 55.00 
C 198.74 54.27 198.44 53.65 198.00 53.00
C 195.21 52.32 194.68 48.05 192.00 48.00
C 196.79 53.66 198.23 59.52 203.00 65.00
C 202.77 61.23 200.23 58.42 199.00 55.00 Z"/>
</g>
<g fill="#DBD8DA" fill-opacity="0.53" stroke="None">
<path d="
M 28.00 52.00 
C 27.71 52.23 27.25 52.74 27.00 53.00
C 27.43 54.60 25.63 55.46 26.00 57.00
C 29.07 54.78 28.98 52.61 32.00 50.00
C 30.41 49.89 29.17 51.08 28.00 52.00 Z"/>
</g>
<g fill="#AAAAAA" fill-opacity="1.00" stroke="None">
<path d="
M 85.00 185.00 
C 84.99 184.92 84.00 185.00 84.00 185.00
C 82.81 189.65 93.10 198.10 96.00 202.00
C 96.00 202.01 96.38 198.67 95.00 198.00
C 101.28 194.66 110.72 191.58 112.00 184.00
C 122.75 181.16 131.63 171.51 141.25 165.25 C 150.86 158.98 163.19 153.88 168.00 144.00
C 175.85 144.58 179.70 136.67 185.25 133.25 C 190.81 129.84 199.01 126.85 200.00 120.00
C 205.83 123.53 207.68 113.39 210.00 117.00
C 208.49 113.17 213.26 110.28 211.00 107.00
C 205.27 101.66 200.75 93.07 194.92 88.08 C 189.09 83.10 186.16 72.98 179.00 70.00
C 178.85 72.54 175.66 73.23 174.00 75.00
C 177.44 78.93 183.13 80.22 187.00 84.00
C 185.62 86.56 182.07 85.36 180.00 87.00
C 183.12 91.44 186.18 96.26 190.00 100.00
C 188.30 102.19 184.52 100.44 182.00 101.00
C 181.98 106.61 184.15 111.64 185.00 117.00
C 182.39 116.75 180.37 114.97 178.00 114.00
C 175.98 118.80 174.89 123.90 174.00 129.00
C 171.97 128.27 171.04 125.81 169.00 125.00
C 144.15 149.90 93.62 148.18 85.00 188.00
C 84.87 187.02 85.16 185.97 85.00 185.00 Z"/>
</g>
<g fill="#DFDCDD" fill-opacity="0.61" stroke="None">
<path d="
M 18.00 74.00 
C 12.03 76.27 17.87 81.81 18.00 74.00 Z"/>
</g>
<g fill="#D8D4D7" fill-opacity="0.44" stroke="None">
<path d="
M 13.00 82.00 
C 12.69 83.06 12.30 83.95 12.00 85.00
C 13.00 85.00 14.00 85.00 15.00 85.00
C 17.15 83.28 12.80 80.07 13.00 82.00 Z"/>
</g>
<g fill="#C9C9C9" fill-opacity="1.00" stroke="None">
<path d="
M 80.00 88.00 
C 76.66 90.51 73.61 94.30 72.00 98.00
C 75.34 95.62 80.94 93.14 80.00 88.00 Z"/>
</g>
<g fill="#D7D1D3" fill-opacity="0.27" stroke="None">
<path d="
M 10.00 129.00 
C 10.02 128.76 11.19 120.93 11.00 116.00 C 10.81 111.07 10.34 103.45 10.00 99.00
C 8.89 108.22 8.37 119.37 10.00 129.00 Z"/>
</g>
<g fill="#E4DADF" fill-opacity="0.76" stroke="None">
<path d="
M 213.00 108.00 
C 213.15 109.07 213.84 109.39 214.00 110.00
C 214.00 108.36 214.15 106.64 214.00 105.00
C 213.78 104.05 214.39 102.26 213.00 102.00
C 213.21 103.97 212.72 106.04 213.00 108.00 Z"/>
</g>
<g fill="#AEA8AB" fill-opacity="0.31" stroke="None">
<path d="
M 214.00 110.00 
C 214.00 115.40 214.09 122.61 213.78 127.22 C 213.47 131.84 210.85 135.65 209.23 140.23 C 207.60 144.80 207.99 151.79 204.23 155.23 C 200.47 158.67 200.88 166.64 201.00 166.00
C 212.07 148.11 217.48 127.73 216.00 106.00
C 215.88 105.75 214.22 105.38 214.00 105.00
C 214.15 106.64 214.00 108.36 214.00 110.00 Z"/>
</g>
<g fill="#BABABA" fill-opacity="0.97" stroke="None">
<path d="
M 96.00 202.00 
C 97.98 204.66 101.30 210.28 104.00 212.00
C 105.03 212.16 105.42 212.85 106.00 213.00
C 110.92 211.57 116.98 214.07 122.00 213.00
C 121.74 214.39 119.95 213.78 119.00 214.00
C 118.92 214.01 119.00 215.00 119.00 215.00
C 124.37 214.63 128.94 213.86 134.00 213.00
C 134.24 212.80 134.00 212.00 134.00 212.00
C 134.18 209.85 135.64 209.47 137.00 211.00
C 137.25 211.09 137.98 212.03 138.00 212.00
C 138.15 211.76 140.66 212.06 141.00 212.00
C 141.20 211.79 139.21 209.57 140.00 209.00
C 142.43 210.52 144.78 206.53 148.00 208.00
C 147.26 209.53 144.23 208.67 144.00 211.00
C 167.58 202.68 187.58 187.68 201.00 166.00
C 200.88 166.64 200.47 158.67 204.23 155.23 C 207.99 151.79 207.60 144.80 209.23 140.23 C 210.85 135.65 213.47 131.84 213.78 127.22 C 214.09 122.61 214.00 115.40 214.00 110.00
C 213.84 109.39 213.15 109.07 213.00 108.00
C 212.76 107.68 211.38 107.35 211.00 107.00
C 213.26 110.28 208.49 113.17 210.00 117.00
C 207.68 113.39 205.83 123.53 200.00 120.00
C 199.01 126.85 190.81 129.84 185.25 133.25 C 179.70 136.67 175.85 144.58 168.00 144.00
C 163.19 153.88 150.86 158.98 141.25 165.25 C 131.63 171.51 122.75 181.16 112.00 184.00
C 110.72 191.58 101.28 194.66 95.00 198.00
C 96.38 198.67 96.00 202.01 96.00 202.00
M 174.00 193.00 
C 172.40 198.73 167.72 195.43 174.00 193.00 Z"/>
</g>
<g fill="#7A7A7A" fill-opacity="1.00" stroke="None">
<path d="
M 84.00 185.00 
C 84.00 185.00 84.99 184.92 85.00 185.00
C 85.30 182.72 84.85 180.30 85.00 178.00
C 84.66 179.90 83.51 182.35 84.00 185.00 Z"/>
</g>
<g fill="#B7B2B4" fill-opacity="0.43" stroke="None">
<path d="
M 174.00 193.00 
C 167.72 195.43 172.40 198.73 174.00 193.00 Z"/>
</g>
<g fill="#B4ACB0" fill-opacity="0.40" stroke="None">
<path d="
M 141.00 212.00 
C 141.84 211.86 143.23 211.27 144.00 211.00
C 144.23 208.67 147.26 209.53 148.00 208.00
C 144.78 206.53 142.43 210.52 140.00 209.00
C 139.21 209.57 141.20 211.79 141.00 212.00 Z"/>
</g>
<g fill="#C0BBBD" fill-opacity="0.75" stroke="None">
<path d="
M 134.00 212.00 
C 133.98 212.01 136.99 211.00 137.00 211.00
C 135.64 209.47 134.18 209.85 134.00 212.00 Z"/>
</g>
<g fill="#B8ACAC" fill-opacity="0.12" stroke="None">
<path d="
M 134.00 212.00 
C 134.00 212.00 134.24 212.80 134.00 213.00
C 135.27 212.78 137.20 212.14 138.00 212.00
C 137.98 212.03 137.25 211.09 137.00 211.00
C 136.99 211.00 133.98 212.01 134.00 212.00 Z"/>
</g>
<g fill="#D9D2D3" fill-opacity="0.54" stroke="None">
<path d="
M 98.00 213.00 
C 100.02 212.95 99.83 214.62 101.00 215.00
C 102.65 215.13 104.35 214.84 106.00 215.00
C 105.76 214.80 106.00 214.00 106.00 214.00
C 105.68 213.54 104.70 213.38 106.00 213.00
C 105.42 212.85 105.03 212.16 104.00 212.00
C 101.64 211.64 99.74 212.31 98.00 213.00 Z"/>
</g>
<g fill="#D8BDBF" fill-opacity="0.12" stroke="None">
<path d="
M 96.00 214.00 
C 97.82 214.38 99.12 214.85 101.00 215.00
C 99.83 214.62 100.02 212.95 98.00 213.00
C 97.83 213.07 95.84 214.03 96.00 214.00 Z"/>
</g>
<g fill="#BBB4B7" fill-opacity="0.73" stroke="None">
<path d="
M 106.00 214.00 
C 110.10 213.63 114.90 213.63 119.00 214.00
C 119.95 213.78 121.74 214.39 122.00 213.00
C 116.98 214.07 110.92 211.57 106.00 213.00
C 104.70 213.38 105.68 213.54 106.00 214.00 Z"/>
</g>
<g fill="#ADA6AB" fill-opacity="0.16" stroke="None">
<path d="
M 106.00 215.00 
C 110.61 215.45 114.28 215.32 119.00 215.00
C 119.00 215.00 118.92 214.01 119.00 214.00
C 114.90 213.63 110.10 213.63 106.00 214.00
C 106.00 214.00 105.76 214.80 106.00 215.00 Z"/>
</g>
</svg>