<svg xmlns="http://www.w3.org/2000/svg" xmlns:v="https://svgstorm.com"
viewBox = "0 0 225 225"
width="225"
height="225">
<g fill="None" fill-opacity="0.0" stroke="#000000" stroke-opacity="0.01" stroke-width="0.3"><path d="
M 0.00 225.00 
L 96.00 225.00
C 90.01 222.88 83.05 220.31 78.00 216.00
C 64.94 204.84 55.53 192.39 42.25 180.75 C 28.97 169.11 20.77 156.93 19.00 140.00
C 15.41 139.79 16.87 130.25 18.00 131.00
C 18.35 131.23 19.00 131.00 19.00 131.00
C 19.58 101.94 47.59 83.68 68.25 62.25 C 88.91 40.82 110.09 19.02 132.00 0.00
L 0.00 0.00
L 0.00 225.00 Z"/>
</g>
<g fill="None" fill-opacity="0.0" stroke="#070605" stroke-opacity="1.00" stroke-width="0.3"><path d="
M 19.00 131.00 
C 18.95 133.66 19.00 136.34 19.00 139.00
C 19.00 139.50 19.00 140.00 19.00 140.00
C 20.77 156.93 28.97 169.11 42.25 180.75 C 55.53 192.39 64.94 204.84 78.00 216.00
C 91.11 219.15 95.28 205.61 94.00 196.00
C 86.84 190.93 77.02 180.18 72.00 173.00
C 71.75 173.25 71.00 173.00 71.00 173.00
C 68.80 171.93 67.46 169.71 66.00 168.00
C 60.46 161.51 50.49 155.04 48.00 147.00
C 47.68 145.96 47.36 145.06 47.00 144.00
C 43.77 139.41 43.47 134.17 45.00 128.00
C 45.20 124.17 47.80 120.07 50.00 117.00
C 56.42 108.01 66.29 100.71 74.00 93.00
C 75.75 91.25 78.25 89.48 79.00 89.00
C 84.71 83.29 91.86 78.25 97.00 72.00
C 104.68 62.65 114.62 54.07 123.00 45.00
C 129.76 37.68 147.20 23.23 148.00 15.00
C 148.12 13.75 148.11 12.25 148.00 11.00
C 147.56 6.12 143.18 2.21 138.00 0.00
L 132.00 0.00
C 110.09 19.02 88.91 40.82 68.25 62.25 C 47.59 83.68 19.58 101.94 19.00 131.00 Z"/>
</g>
<g fill="None" fill-opacity="0.0" stroke="#000000" stroke-opacity="0.00" stroke-width="0.3"><path d="
M 148.00 11.00 
C 148.01 11.04 147.99 15.02 148.00 15.00
C 147.20 23.23 129.76 37.68 123.00 45.00
C 133.17 42.94 142.28 55.68 149.75 62.25 C 157.22 68.82 164.07 76.06 171.30 84.70 C 178.53 93.33 162.44 111.36 152.92 103.08 C 143.40 94.80 138.47 91.07 130.25 81.75 C 122.03 72.43 109.37 67.14 97.00 72.00
C 91.86 78.25 84.71 83.29 79.00 89.00
C 77.60 90.40 76.87 92.09 75.00 93.00
C 72.80 95.20 70.05 97.78 68.00 100.00
C 64.61 103.67 61.34 107.52 58.00 111.00
C 56.36 112.71 55.21 114.92 53.00 116.00
C 52.60 116.20 52.00 116.00 52.00 116.00
C 49.53 120.63 45.62 126.05 45.00 131.00
C 44.89 135.36 45.62 139.98 47.00 144.00
C 47.36 145.06 47.68 145.96 48.00 147.00
C 48.47 147.84 49.47 149.10 50.00 150.00
C 55.71 157.86 67.66 163.13 72.00 172.00
C 72.20 172.40 72.00 173.00 72.00 173.00
C 75.69 176.22 80.58 179.40 83.25 183.75 C 85.92 188.11 93.21 190.49 95.00 195.00
C 101.73 194.66 113.98 201.08 120.67 195.67 C 127.37 190.27 130.55 186.57 136.75 180.75 C 142.95 174.94 145.69 170.57 152.75 165.75 C 159.80 160.92 169.56 166.29 172.00 174.00
C 172.89 176.81 172.74 178.27 172.00 181.00
C 169.03 191.97 156.92 196.96 150.25 206.25 C 143.57 215.53 130.91 221.75 121.00 225.00
L 225.00 225.00
L 225.00 0.00
L 138.00 0.00
C 143.18 2.21 147.56 6.12 148.00 11.00
M 196.00 121.00 
C 208.36 123.56 211.93 145.73 196.78 147.78 C 181.62 149.82 163.32 147.24 148.00 148.00 C 132.68 148.76 113.82 147.70 99.00 148.00 C 84.18 148.30 83.50 121.40 98.22 121.22 C 112.95 121.05 131.75 119.77 147.00 121.00 C 162.25 122.23 180.93 117.88 196.00 121.00 Z"/>
</g>
<g fill="None" fill-opacity="0.0" stroke="#000000" stroke-opacity="0.23" stroke-width="0.3"><path d="
M 148.00 11.00 
C 148.11 12.25 148.12 13.75 148.00 15.00
C 147.99 15.02 148.01 11.04 148.00 11.00 Z"/>
</g>
<g fill="None" fill-opacity="0.0" stroke="#E2A326" stroke-opacity="0.94" stroke-width="0.3"><path d="
M 97.00 72.00 
C 109.37 67.14 122.03 72.43 130.25 81.75 C 138.47 91.07 143.40 94.80 152.92 103.08 C 162.44 111.36 178.53 93.33 171.30 84.70 C 164.07 76.06 157.22 68.82 149.75 62.25 C 142.28 55.68 133.17 42.94 123.00 45.00
C 114.62 54.07 104.68 62.65 97.00 72.00 Z"/>
</g>
<g fill="None" fill-opacity="0.0" stroke="#28200C" stroke-opacity="0.53" stroke-width="0.3"><path d="
M 74.00 93.00 
C 74.16 92.77 75.00 93.00 75.00 93.00
C 76.87 92.09 77.60 90.40 79.00 89.00
C 78.25 89.48 75.75 91.25 74.00 93.00 Z"/>
</g>
<g fill="None" fill-opacity="0.0" stroke="#4D3A15" stroke-opacity="0.97" stroke-width="0.3"><path d="
M 50.00 117.00 
C 50.46 116.50 51.57 116.41 52.00 116.00
C 57.36 111.00 62.85 105.15 68.00 100.00
C 70.04 97.96 72.37 95.33 74.00 93.00
C 66.29 100.71 56.42 108.01 50.00 117.00 Z"/>
</g>
<g fill="None" fill-opacity="0.0" stroke="#554521" stroke-opacity="0.25" stroke-width="0.3"><path d="
M 68.00 100.00 
C 70.05 97.78 72.80 95.20 75.00 93.00
C 75.00 93.00 74.16 92.77 74.00 93.00
C 72.37 95.33 70.04 97.96 68.00 100.00 Z"/>
</g>
<g fill="None" fill-opacity="0.0" stroke="#7A692F" stroke-opacity="0.33" stroke-width="0.3"><path d="
M 52.00 116.00 
C 52.00 116.00 52.60 116.20 53.00 116.00
C 54.44 113.94 56.21 112.59 58.00 111.00
C 61.34 107.52 64.61 103.67 68.00 100.00
C 62.85 105.15 57.36 111.00 52.00 116.00 Z"/>
</g>
<g fill="None" fill-opacity="0.0" stroke="#726531" stroke-opacity="0.05" stroke-width="0.3"><path d="
M 53.00 116.00 
C 55.21 114.92 56.36 112.71 58.00 111.00
C 56.21 112.59 54.44 113.94 53.00 116.00 Z"/>
</g>
<g fill="None" fill-opacity="0.0" stroke="#4B4028" stroke-opacity="0.38" stroke-width="0.3"><path d="
M 50.00 117.00 
C 47.80 120.07 45.20 124.17 45.00 128.00
C 44.95 129.00 45.03 130.00 45.00 131.00
C 45.62 126.05 49.53 120.63 52.00 116.00
C 51.57 116.41 50.46 116.50 50.00 117.00 Z"/>
</g>
<g fill="None" fill-opacity="0.0" stroke="#B3B2B0" stroke-opacity="0.93" stroke-width="0.3"><path d="
M 196.00 121.00 
C 180.93 117.88 162.25 122.23 147.00 121.00 C 131.75 119.77 112.95 121.05 98.22 121.22 C 83.50 121.40 84.18 148.30 99.00 148.00 C 113.82 147.70 132.68 148.76 148.00 148.00 C 163.32 147.24 181.62 149.82 196.78 147.78 C 211.93 145.73 208.36 123.56 196.00 121.00 Z"/>
</g>
<g fill="None" fill-opacity="0.0" stroke="#3D301B" stroke-opacity="0.64" stroke-width="0.3"><path d="
M 47.00 144.00 
C 45.62 139.98 44.89 135.36 45.00 131.00
C 45.03 130.00 44.95 129.00 45.00 128.00
C 43.47 134.17 43.77 139.41 47.00 144.00 Z"/>
</g>
<g fill="None" fill-opacity="0.0" stroke="#000000" stroke-opacity="0.18" stroke-width="0.3"><path d="
M 19.00 140.00 
C 19.00 140.00 19.00 139.50 19.00 139.00
C 17.59 137.09 17.76 133.60 18.00 131.00
C 16.87 130.25 15.41 139.79 19.00 140.00 Z"/>
</g>
<g fill="None" fill-opacity="0.0" stroke="#000000" stroke-opacity="0.72" stroke-width="0.3"><path d="
M 19.00 139.00 
C 19.00 136.34 18.95 133.66 19.00 131.00
C 19.00 131.00 18.35 131.23 18.00 131.00
C 17.76 133.60 17.59 137.09 19.00 139.00 Z"/>
</g>
<g fill="None" fill-opacity="0.0" stroke="#58472C" stroke-opacity="0.64" stroke-width="0.3"><path d="
M 66.00 168.00 
C 67.72 169.72 69.59 170.99 71.00 173.00
C 71.00 173.00 71.75 173.25 72.00 173.00
C 72.00 173.00 72.20 172.40 72.00 172.00
C 64.96 167.08 54.36 157.35 50.00 150.00
C 49.47 149.10 48.47 147.84 48.00 147.00
C 50.49 155.04 60.46 161.51 66.00 168.00 Z"/>
</g>
<g fill="None" fill-opacity="0.0" stroke="#655437" stroke-opacity="0.10" stroke-width="0.3"><path d="
M 72.00 172.00 
C 67.66 163.13 55.71 157.86 50.00 150.00
C 54.36 157.35 64.96 167.08 72.00 172.00 Z"/>
</g>
<g fill="None" fill-opacity="0.0" stroke="#E3A325" stroke-opacity="0.94" stroke-width="0.3"><path d="
M 95.00 195.00 
C 94.82 195.01 93.98 195.88 94.00 196.00
C 95.28 205.61 91.11 219.15 78.00 216.00
C 83.05 220.31 90.01 222.88 96.00 225.00
L 121.00 225.00
C 130.91 221.75 143.57 215.53 150.25 206.25 C 156.92 196.96 169.03 191.97 172.00 181.00
C 172.27 178.98 172.33 176.01 172.00 174.00
C 169.56 166.29 159.80 160.92 152.75 165.75 C 145.69 170.57 142.95 174.94 136.75 180.75 C 130.55 186.57 127.37 190.27 120.67 195.67 C 113.98 201.08 101.73 194.66 95.00 195.00 Z"/>
</g>
<g fill="None" fill-opacity="0.0" stroke="#2F1E05" stroke-opacity="1.00" stroke-width="0.3"><path d="
M 71.00 173.00 
C 69.59 170.99 67.72 169.72 66.00 168.00
C 67.46 169.71 68.80 171.93 71.00 173.00 Z"/>
</g>
<g fill="None" fill-opacity="0.0" stroke="#352314" stroke-opacity="0.35" stroke-width="0.3"><path d="
M 94.00 196.00 
C 93.98 195.88 94.82 195.01 95.00 195.00
C 93.21 190.49 85.92 188.11 83.25 183.75 C 80.58 179.40 75.69 176.22 72.00 173.00
C 77.02 180.18 86.84 190.93 94.00 196.00 Z"/>
</g>
<g fill="None" fill-opacity="0.0" stroke="#C9A253" stroke-opacity="0.10" stroke-width="0.3"><path d="
M 172.00 181.00 
C 172.74 178.27 172.89 176.81 172.00 174.00
C 172.33 176.01 172.27 178.98 172.00 181.00 Z"/>
</g>
<g fill="#000000" fill-opacity="0.01" stroke="None">
<path d="
M 0.00 225.00 
L 96.00 225.00
C 90.01 222.88 83.05 220.31 78.00 216.00
C 64.94 204.84 55.53 192.39 42.25 180.75 C 28.97 169.11 20.77 156.93 19.00 140.00
C 15.41 139.79 16.87 130.25 18.00 131.00
C 18.35 131.23 19.00 131.00 19.00 131.00
C 19.58 101.94 47.59 83.68 68.25 62.25 C 88.91 40.82 110.09 19.02 132.00 0.00
L 0.00 0.00
L 0.00 225.00 Z"/>
</g>
<g fill="#070605" fill-opacity="1.00" stroke="None">
<path d="
M 19.00 131.00 
C 18.95 133.66 19.00 136.34 19.00 139.00
C 19.00 139.50 19.00 140.00 19.00 140.00
C 20.77 156.93 28.97 169.11 42.25 180.75 C 55.53 192.39 64.94 204.84 78.00 216.00
C 91.11 219.15 95.28 205.61 94.00 196.00
C 86.84 190.93 77.02 180.18 72.00 173.00
C 71.75 173.25 71.00 173.00 71.00 173.00
C 68.80 171.93 67.46 169.71 66.00 168.00
C 60.46 161.51 50.49 155.04 48.00 147.00
C 47.68 145.96 47.36 145.06 47.00 144.00
C 43.77 139.41 43.47 134.17 45.00 128.00
C 45.20 124.17 47.80 120.07 50.00 117.00
C 56.42 108.01 66.29 100.71 74.00 93.00
C 75.75 91.25 78.25 89.48 79.00 89.00
C 84.71 83.29 91.86 78.25 97.00 72.00
C 104.68 62.65 114.62 54.07 123.00 45.00
C 129.76 37.68 147.20 23.23 148.00 15.00
C 148.12 13.75 148.11 12.25 148.00 11.00
C 147.56 6.12 143.18 2.21 138.00 0.00
L 132.00 0.00
C 110.09 19.02 88.91 40.82 68.25 62.25 C 47.59 83.68 19.58 101.94 19.00 131.00 Z"/>
</g>
<g fill="#000000" fill-opacity="0.00" stroke="None">
<path d="
M 148.00 11.00 
C 148.01 11.04 147.99 15.02 148.00 15.00
C 147.20 23.23 129.76 37.68 123.00 45.00
C 133.17 42.94 142.28 55.68 149.75 62.25 C 157.22 68.82 164.07 76.06 171.30 84.70 C 178.53 93.33 162.44 111.36 152.92 103.08 C 143.40 94.80 138.47 91.07 130.25 81.75 C 122.03 72.43 109.37 67.14 97.00 72.00
C 91.86 78.25 84.71 83.29 79.00 89.00
C 77.60 90.40 76.87 92.09 75.00 93.00
C 72.80 95.20 70.05 97.78 68.00 100.00
C 64.61 103.67 61.34 107.52 58.00 111.00
C 56.36 112.71 55.21 114.92 53.00 116.00
C 52.60 116.20 52.00 116.00 52.00 116.00
C 49.53 120.63 45.62 126.05 45.00 131.00
C 44.89 135.36 45.62 139.98 47.00 144.00
C 47.36 145.06 47.68 145.96 48.00 147.00
C 48.47 147.84 49.47 149.10 50.00 150.00
C 55.71 157.86 67.66 163.13 72.00 172.00
C 72.20 172.40 72.00 173.00 72.00 173.00
C 75.69 176.22 80.58 179.40 83.25 183.75 C 85.92 188.11 93.21 190.49 95.00 195.00
C 101.73 194.66 113.98 201.08 120.67 195.67 C 127.37 190.27 130.55 186.57 136.75 180.75 C 142.95 174.94 145.69 170.57 152.75 165.75 C 159.80 160.92 169.56 166.29 172.00 174.00
C 172.89 176.81 172.74 178.27 172.00 181.00
C 169.03 191.97 156.92 196.96 150.25 206.25 C 143.57 215.53 130.91 221.75 121.00 225.00
L 225.00 225.00
L 225.00 0.00
L 138.00 0.00
C 143.18 2.21 147.56 6.12 148.00 11.00
M 196.00 121.00 
C 208.36 123.56 211.93 145.73 196.78 147.78 C 181.62 149.82 163.32 147.24 148.00 148.00 C 132.68 148.76 113.82 147.70 99.00 148.00 C 84.18 148.30 83.50 121.40 98.22 121.22 C 112.95 121.05 131.75 119.77 147.00 121.00 C 162.25 122.23 180.93 117.88 196.00 121.00 Z"/>
</g>
<g fill="#000000" fill-opacity="0.23" stroke="None">
<path d="
M 148.00 11.00 
C 148.11 12.25 148.12 13.75 148.00 15.00
C 147.99 15.02 148.01 11.04 148.00 11.00 Z"/>
</g>
<g fill="#E2A326" fill-opacity="0.94" stroke="None">
<path d="
M 97.00 72.00 
C 109.37 67.14 122.03 72.43 130.25 81.75 C 138.47 91.07 143.40 94.80 152.92 103.08 C 162.44 111.36 178.53 93.33 171.30 84.70 C 164.07 76.06 157.22 68.82 149.75 62.25 C 142.28 55.68 133.17 42.94 123.00 45.00
C 114.62 54.07 104.68 62.65 97.00 72.00 Z"/>
</g>
<g fill="#28200C" fill-opacity="0.53" stroke="None">
<path d="
M 74.00 93.00 
C 74.16 92.77 75.00 93.00 75.00 93.00
C 76.87 92.09 77.60 90.40 79.00 89.00
C 78.25 89.48 75.75 91.25 74.00 93.00 Z"/>
</g>
<g fill="#4D3A15" fill-opacity="0.97" stroke="None">
<path d="
M 50.00 117.00 
C 50.46 116.50 51.57 116.41 52.00 116.00
C 57.36 111.00 62.85 105.15 68.00 100.00
C 70.04 97.96 72.37 95.33 74.00 93.00
C 66.29 100.71 56.42 108.01 50.00 117.00 Z"/>
</g>
<g fill="#554521" fill-opacity="0.25" stroke="None">
<path d="
M 68.00 100.00 
C 70.05 97.78 72.80 95.20 75.00 93.00
C 75.00 93.00 74.16 92.77 74.00 93.00
C 72.37 95.33 70.04 97.96 68.00 100.00 Z"/>
</g>
<g fill="#7A692F" fill-opacity="0.33" stroke="None">
<path d="
M 52.00 116.00 
C 52.00 116.00 52.60 116.20 53.00 116.00
C 54.44 113.94 56.21 112.59 58.00 111.00
C 61.34 107.52 64.61 103.67 68.00 100.00
C 62.85 105.15 57.36 111.00 52.00 116.00 Z"/>
</g>
<g fill="#726531" fill-opacity="0.05" stroke="None">
<path d="
M 53.00 116.00 
C 55.21 114.92 56.36 112.71 58.00 111.00
C 56.21 112.59 54.44 113.94 53.00 116.00 Z"/>
</g>
<g fill="#4B4028" fill-opacity="0.38" stroke="None">
<path d="
M 50.00 117.00 
C 47.80 120.07 45.20 124.17 45.00 128.00
C 44.95 129.00 45.03 130.00 45.00 131.00
C 45.62 126.05 49.53 120.63 52.00 116.00
C 51.57 116.41 50.46 116.50 50.00 117.00 Z"/>
</g>
<g fill="#B3B2B0" fill-opacity="0.93" stroke="None">
<path d="
M 196.00 121.00 
C 180.93 117.88 162.25 122.23 147.00 121.00 C 131.75 119.77 112.95 121.05 98.22 121.22 C 83.50 121.40 84.18 148.30 99.00 148.00 C 113.82 147.70 132.68 148.76 148.00 148.00 C 163.32 147.24 181.62 149.82 196.78 147.78 C 211.93 145.73 208.36 123.56 196.00 121.00 Z"/>
</g>
<g fill="#3D301B" fill-opacity="0.64" stroke="None">
<path d="
M 47.00 144.00 
C 45.62 139.98 44.89 135.36 45.00 131.00
C 45.03 130.00 44.95 129.00 45.00 128.00
C 43.47 134.17 43.77 139.41 47.00 144.00 Z"/>
</g>
<g fill="#000000" fill-opacity="0.18" stroke="None">
<path d="
M 19.00 140.00 
C 19.00 140.00 19.00 139.50 19.00 139.00
C 17.59 137.09 17.76 133.60 18.00 131.00
C 16.87 130.25 15.41 139.79 19.00 140.00 Z"/>
</g>
<g fill="#000000" fill-opacity="0.72" stroke="None">
<path d="
M 19.00 139.00 
C 19.00 136.34 18.95 133.66 19.00 131.00
C 19.00 131.00 18.35 131.23 18.00 131.00
C 17.76 133.60 17.59 137.09 19.00 139.00 Z"/>
</g>
<g fill="#58472C" fill-opacity="0.64" stroke="None">
<path d="
M 66.00 168.00 
C 67.72 169.72 69.59 170.99 71.00 173.00
C 71.00 173.00 71.75 173.25 72.00 173.00
C 72.00 173.00 72.20 172.40 72.00 172.00
C 64.96 167.08 54.36 157.35 50.00 150.00
C 49.47 149.10 48.47 147.84 48.00 147.00
C 50.49 155.04 60.46 161.51 66.00 168.00 Z"/>
</g>
<g fill="#655437" fill-opacity="0.10" stroke="None">
<path d="
M 72.00 172.00 
C 67.66 163.13 55.71 157.86 50.00 150.00
C 54.36 157.35 64.96 167.08 72.00 172.00 Z"/>
</g>
<g fill="#E3A325" fill-opacity="0.94" stroke="None">
<path d="
M 95.00 195.00 
C 94.82 195.01 93.98 195.88 94.00 196.00
C 95.28 205.61 91.11 219.15 78.00 216.00
C 83.05 220.31 90.01 222.88 96.00 225.00
L 121.00 225.00
C 130.91 221.75 143.57 215.53 150.25 206.25 C 156.92 196.96 169.03 191.97 172.00 181.00
C 172.27 178.98 172.33 176.01 172.00 174.00
C 169.56 166.29 159.80 160.92 152.75 165.75 C 145.69 170.57 142.95 174.94 136.75 180.75 C 130.55 186.57 127.37 190.27 120.67 195.67 C 113.98 201.08 101.73 194.66 95.00 195.00 Z"/>
</g>
<g fill="#2F1E05" fill-opacity="1.00" stroke="None">
<path d="
M 71.00 173.00 
C 69.59 170.99 67.72 169.72 66.00 168.00
C 67.46 169.71 68.80 171.93 71.00 173.00 Z"/>
</g>
<g fill="#352314" fill-opacity="0.35" stroke="None">
<path d="
M 94.00 196.00 
C 93.98 195.88 94.82 195.01 95.00 195.00
C 93.21 190.49 85.92 188.11 83.25 183.75 C 80.58 179.40 75.69 176.22 72.00 173.00
C 77.02 180.18 86.84 190.93 94.00 196.00 Z"/>
</g>
<g fill="#C9A253" fill-opacity="0.10" stroke="None">
<path d="
M 172.00 181.00 
C 172.74 178.27 172.89 176.81 172.00 174.00
C 172.33 176.01 172.27 178.98 172.00 181.00 Z"/>
</g>
</svg>