<svg xmlns="http://www.w3.org/2000/svg" xmlns:v="https://svgstorm.com"
viewBox = "0 0 225 225"
width="225"
height="225">
<g fill="None" fill-opacity="0.0" stroke="#000000" stroke-opacity="0.00" stroke-width="0.3"><path d="
M 0.00 117.00 
C 17.99 96.13 41.59 84.91 66.22 71.22 C 90.86 57.54 133.34 57.29 158.08 70.92 C 182.81 84.56 206.89 96.24 225.00 117.00
L 225.00 0.00
L 0.00 0.00
L 0.00 117.00 Z"/>
</g>
<g fill="None" fill-opacity="0.0" stroke="#B4E4FA" stroke-opacity="0.98" stroke-width="0.3"><path d="
M 0.00 117.00 
L 0.00 122.00
C 12.09 124.26 21.31 119.64 31.00 114.00
C 45.72 105.44 59.56 95.06 75.00 88.00
C 98.35 77.32 126.73 77.36 150.00 88.00
C 165.59 95.13 180.04 106.35 195.00 114.00
C 204.43 118.82 212.81 125.04 225.00 122.00
L 225.00 117.00
C 206.89 96.24 182.81 84.56 158.08 70.92 C 133.34 57.29 90.86 57.54 66.22 71.22 C 41.59 84.91 17.99 96.13 0.00 117.00 Z"/>
</g>
<g fill="None" fill-opacity="0.0" stroke="#81D3F7" stroke-opacity="0.99" stroke-width="0.3"><path d="
M 75.00 88.00 
C 61.29 105.89 74.64 137.47 94.00 145.00
C 74.38 144.43 55.71 131.22 36.00 127.00
C 39.35 122.24 37.75 114.48 31.00 114.00
C 21.31 119.64 12.09 124.26 0.00 122.00
L 0.00 126.00
C 14.30 140.64 37.45 135.32 54.69 146.31 C 71.94 157.29 91.20 164.92 112.00 165.00 C 132.80 165.08 152.42 157.84 169.69 146.69 C 186.97 135.55 210.52 140.43 225.00 126.00
L 225.00 122.00
C 212.81 125.04 204.43 118.82 195.00 114.00
C 187.69 113.07 185.60 122.22 189.00 127.00
C 169.47 132.64 151.33 142.89 131.00 146.00
C 151.77 135.72 160.27 108.66 150.00 88.00
C 126.73 77.36 98.35 77.32 75.00 88.00
M 134.00 89.00 
C 138.65 91.08 134.31 100.27 129.33 97.67 C 124.34 95.06 128.76 86.66 134.00 89.00
M 117.00 94.00 
C 137.11 98.68 128.56 132.16 108.00 126.00 C 87.44 119.84 96.65 89.27 117.00 94.00 Z"/>
</g>
<g fill="None" fill-opacity="0.0" stroke="#DDF5FD" stroke-opacity="1.00" stroke-width="0.3"><path d="
M 31.00 114.00 
C 37.75 114.48 39.35 122.24 36.00 127.00
C 55.71 131.22 74.38 144.43 94.00 145.00
C 74.64 137.47 61.29 105.89 75.00 88.00
C 59.56 95.06 45.72 105.44 31.00 114.00 Z"/>
</g>
<g fill="None" fill-opacity="0.0" stroke="#DCF5FD" stroke-opacity="1.00" stroke-width="0.3"><path d="
M 195.00 114.00 
C 180.04 106.35 165.59 95.13 150.00 88.00
C 160.27 108.66 151.77 135.72 131.00 146.00
C 151.33 142.89 169.47 132.64 189.00 127.00
C 185.60 122.22 187.69 113.07 195.00 114.00 Z"/>
</g>
<g fill="None" fill-opacity="0.0" stroke="#D7F5FE" stroke-opacity="1.00" stroke-width="0.3"><path d="
M 134.00 89.00 
C 128.76 86.66 124.34 95.06 129.33 97.67 C 134.31 100.27 138.65 91.08 134.00 89.00 Z"/>
</g>
<g fill="None" fill-opacity="0.0" stroke="#435B68" stroke-opacity="1.00" stroke-width="0.3"><path d="
M 117.00 94.00 
C 96.65 89.27 87.44 119.84 108.00 126.00 C 128.56 132.16 137.11 98.68 117.00 94.00
M 114.00 105.00 
C 119.13 106.32 117.41 116.47 111.32 114.66 C 105.24 112.85 108.34 103.54 114.00 105.00 Z"/>
</g>
<g fill="None" fill-opacity="0.0" stroke="#B1DDEF" stroke-opacity="1.00" stroke-width="0.3"><path d="
M 114.00 105.00 
C 108.34 103.54 105.24 112.85 111.32 114.66 C 117.41 116.47 119.13 106.32 114.00 105.00 Z"/>
</g>
<g fill="None" fill-opacity="0.0" stroke="#000000" stroke-opacity="0.00" stroke-width="0.3"><path d="
M 0.00 225.00 
L 225.00 225.00
L 225.00 126.00
C 210.52 140.43 186.97 135.55 169.69 146.69 C 152.42 157.84 132.80 165.08 112.00 165.00 C 91.20 164.92 71.94 157.29 54.69 146.31 C 37.45 135.32 14.30 140.64 0.00 126.00
L 0.00 225.00 Z"/>
</g>
<g fill="#000000" fill-opacity="0.00" stroke="None">
<path d="
M 0.00 117.00 
C 17.99 96.13 41.59 84.91 66.22 71.22 C 90.86 57.54 133.34 57.29 158.08 70.92 C 182.81 84.56 206.89 96.24 225.00 117.00
L 225.00 0.00
L 0.00 0.00
L 0.00 117.00 Z"/>
</g>
<g fill="#B4E4FA" fill-opacity="0.98" stroke="None">
<path d="
M 0.00 117.00 
L 0.00 122.00
C 12.09 124.26 21.31 119.64 31.00 114.00
C 45.72 105.44 59.56 95.06 75.00 88.00
C 98.35 77.32 126.73 77.36 150.00 88.00
C 165.59 95.13 180.04 106.35 195.00 114.00
C 204.43 118.82 212.81 125.04 225.00 122.00
L 225.00 117.00
C 206.89 96.24 182.81 84.56 158.08 70.92 C 133.34 57.29 90.86 57.54 66.22 71.22 C 41.59 84.91 17.99 96.13 0.00 117.00 Z"/>
</g>
<g fill="#81D3F7" fill-opacity="0.99" stroke="None">
<path d="
M 75.00 88.00 
C 61.29 105.89 74.64 137.47 94.00 145.00
C 74.38 144.43 55.71 131.22 36.00 127.00
C 39.35 122.24 37.75 114.48 31.00 114.00
C 21.31 119.64 12.09 124.26 0.00 122.00
L 0.00 126.00
C 14.30 140.64 37.45 135.32 54.69 146.31 C 71.94 157.29 91.20 164.92 112.00 165.00 C 132.80 165.08 152.42 157.84 169.69 146.69 C 186.97 135.55 210.52 140.43 225.00 126.00
L 225.00 122.00
C 212.81 125.04 204.43 118.82 195.00 114.00
C 187.69 113.07 185.60 122.22 189.00 127.00
C 169.47 132.64 151.33 142.89 131.00 146.00
C 151.77 135.72 160.27 108.66 150.00 88.00
C 126.73 77.36 98.35 77.32 75.00 88.00
M 134.00 89.00 
C 138.65 91.08 134.31 100.27 129.33 97.67 C 124.34 95.06 128.76 86.66 134.00 89.00
M 117.00 94.00 
C 137.11 98.68 128.56 132.16 108.00 126.00 C 87.44 119.84 96.65 89.27 117.00 94.00 Z"/>
</g>
<g fill="#DDF5FD" fill-opacity="1.00" stroke="None">
<path d="
M 31.00 114.00 
C 37.75 114.48 39.35 122.24 36.00 127.00
C 55.71 131.22 74.38 144.43 94.00 145.00
C 74.64 137.47 61.29 105.89 75.00 88.00
C 59.56 95.06 45.72 105.44 31.00 114.00 Z"/>
</g>
<g fill="#DCF5FD" fill-opacity="1.00" stroke="None">
<path d="
M 195.00 114.00 
C 180.04 106.35 165.59 95.13 150.00 88.00
C 160.27 108.66 151.77 135.72 131.00 146.00
C 151.33 142.89 169.47 132.64 189.00 127.00
C 185.60 122.22 187.69 113.07 195.00 114.00 Z"/>
</g>
<g fill="#D7F5FE" fill-opacity="1.00" stroke="None">
<path d="
M 134.00 89.00 
C 128.76 86.66 124.34 95.06 129.33 97.67 C 134.31 100.27 138.65 91.08 134.00 89.00 Z"/>
</g>
<g fill="#435B68" fill-opacity="1.00" stroke="None">
<path d="
M 117.00 94.00 
C 96.65 89.27 87.44 119.84 108.00 126.00 C 128.56 132.16 137.11 98.68 117.00 94.00
M 114.00 105.00 
C 119.13 106.32 117.41 116.47 111.32 114.66 C 105.24 112.85 108.34 103.54 114.00 105.00 Z"/>
</g>
<g fill="#B1DDEF" fill-opacity="1.00" stroke="None">
<path d="
M 114.00 105.00 
C 108.34 103.54 105.24 112.85 111.32 114.66 C 117.41 116.47 119.13 106.32 114.00 105.00 Z"/>
</g>
<g fill="#000000" fill-opacity="0.00" stroke="None">
<path d="
M 0.00 225.00 
L 225.00 225.00
L 225.00 126.00
C 210.52 140.43 186.97 135.55 169.69 146.69 C 152.42 157.84 132.80 165.08 112.00 165.00 C 91.20 164.92 71.94 157.29 54.69 146.31 C 37.45 135.32 14.30 140.64 0.00 126.00
L 0.00 225.00 Z"/>
</g>
</svg>