<svg xmlns="http://www.w3.org/2000/svg" xmlns:v="https://svgstorm.com"
viewBox = "0 0 222 227"
width="222"
height="227">
<g fill="None" fill-opacity="0.0" stroke="#000000" stroke-opacity="0.00" stroke-width="0.3"><path d="
M 0.00 83.00 
C 4.98 66.08 20.43 50.22 39.00 49.00
C 42.50 25.59 63.68 4.62 87.00 1.00
C 87.06 0.99 87.00 0.00 87.00 0.00
L 0.00 0.00
L 0.00 83.00 Z"/>
</g>
<g fill="None" fill-opacity="0.0" stroke="#BF0503" stroke-opacity="0.31" stroke-width="0.3"><path d="
M 87.00 1.00 
C 89.22 0.80 92.60 1.90 94.00 0.00
L 87.00 0.00
C 87.00 0.00 87.06 0.99 87.00 1.00 Z"/>
</g>
<g fill="None" fill-opacity="0.0" stroke="#B81010" stroke-opacity="0.92" stroke-width="0.3"><path d="
M 87.00 1.00 
C 63.68 4.62 42.50 25.59 39.00 49.00
C 20.43 50.22 4.98 66.08 0.00 83.00
L 0.00 95.00
C 1.43 96.03 1.69 100.04 0.00 101.00
L 0.00 102.00
C 3.22 110.71 7.49 119.22 15.25 125.75 C 23.00 132.29 33.65 136.71 44.00 136.00 C 54.35 135.29 73.80 136.90 83.00 136.00 C 92.20 135.10 115.77 140.61 114.99 128.99 C 114.22 117.38 91.14 124.52 82.00 123.00 C 72.86 121.48 53.06 124.02 43.00 123.00 C 32.94 121.98 23.87 117.81 18.08 108.92 C 12.29 100.02 10.89 88.19 16.32 78.32 C 21.75 68.45 29.19 66.35 39.22 62.22 C 49.25 58.09 60.47 73.49 69.25 67.25 C 78.02 61.00 59.74 48.12 52.00 50.00
C 61.13 -0.18 142.16 2.80 147.00 54.00
C 133.05 56.98 140.89 73.17 150.75 66.75 C 160.60 60.32 169.76 60.07 180.07 64.93 C 190.39 69.78 192.38 74.53 196.98 86.02 C 201.57 97.52 214.87 86.49 208.02 75.98 C 201.17 65.46 200.58 62.46 190.92 56.08 C 181.26 49.70 171.77 48.20 160.00 49.00
C 155.17 24.93 134.35 5.12 111.00 0.00
L 94.00 0.00
C 92.60 1.90 89.22 0.80 87.00 1.00 Z"/>
</g>
<g fill="None" fill-opacity="0.0" stroke="#000000" stroke-opacity="0.00" stroke-width="0.3"><path d="
M 0.00 102.00 
L 0.00 227.00
L 156.00 227.00
C 153.30 223.29 152.60 213.41 159.03 213.03 C 165.45 212.64 165.38 223.72 162.00 227.00
L 169.00 227.00
C 168.81 222.52 170.54 217.51 165.00 218.00
C 171.60 206.80 174.94 219.73 173.00 227.00
L 222.00 227.00
L 222.00 208.00
C 215.55 215.10 209.38 210.42 209.00 202.00 C 208.62 193.58 216.28 187.95 222.00 196.00
L 222.00 0.00
L 111.00 0.00
C 134.35 5.12 155.17 24.93 160.00 49.00
C 171.77 48.20 181.26 49.70 190.92 56.08 C 200.58 62.46 201.17 65.46 208.02 75.98 C 214.87 86.49 201.57 97.52 196.98 86.02 C 192.38 74.53 190.39 69.78 180.07 64.93 C 169.76 60.07 160.60 60.32 150.75 66.75 C 140.89 73.17 133.05 56.98 147.00 54.00
C 142.16 2.80 61.13 -0.18 52.00 50.00
C 59.74 48.12 78.02 61.00 69.25 67.25 C 60.47 73.49 49.25 58.09 39.22 62.22 C 29.19 66.35 21.75 68.45 16.32 78.32 C 10.89 88.19 12.29 100.02 18.08 108.92 C 23.87 117.81 32.94 121.98 43.00 123.00 C 53.06 124.02 72.86 121.48 82.00 123.00 C 91.14 124.52 114.22 117.38 114.99 128.99 C 115.77 140.61 92.20 135.10 83.00 136.00 C 73.80 136.90 54.35 135.29 44.00 136.00 C 33.65 136.71 23.00 132.29 15.25 125.75 C 7.49 119.22 3.22 110.71 0.00 102.00
M 134.00 126.00 
C 122.61 128.95 128.36 114.54 127.00 108.00
C 124.86 111.08 119.94 109.94 120.00 106.00
C 123.07 104.07 132.72 95.35 133.97 103.03 C 135.22 110.71 133.09 118.33 134.00 126.00
M 153.00 100.00 
C 164.18 104.55 157.14 131.75 144.99 126.01 C 132.84 120.26 139.07 94.33 153.00 100.00
M 195.00 100.00 
C 195.00 108.67 195.00 117.33 195.00 126.00
C 184.32 128.06 190.73 113.26 189.00 107.00
C 186.96 107.81 186.03 110.27 184.00 111.00
C 178.90 105.01 189.49 98.95 195.00 100.00
M 214.00 100.00 
C 224.82 103.85 219.21 131.30 206.98 126.02 C 194.74 120.75 199.94 95.00 214.00 100.00
M 133.00 138.00 
C 133.00 146.67 133.00 155.33 133.00 164.00
C 122.41 165.88 127.99 150.15 128.00 144.00
C 117.00 153.39 124.89 136.07 133.00 138.00
M 153.00 138.00 
C 153.00 146.67 153.00 155.33 153.00 164.00
C 142.32 166.06 148.73 151.26 147.00 145.00
C 144.94 147.05 142.31 148.91 141.00 145.00
C 145.31 142.45 147.39 136.82 153.00 138.00
M 169.00 163.00 
C 164.58 163.20 168.15 150.34 167.00 146.00
C 164.58 149.24 161.57 148.77 160.00 145.00
C 162.09 143.68 163.60 141.71 166.00 141.00
C 168.04 139.64 169.89 137.02 173.00 138.00
C 170.92 145.58 177.51 160.22 169.00 163.00
M 197.00 160.00 
C 190.54 167.50 180.93 162.36 180.01 154.99 C 179.08 147.62 180.62 136.79 190.08 138.07 C 199.54 139.34 196.53 154.27 197.00 160.00
M 129.00 172.00 
C 137.14 175.42 131.01 195.86 122.33 190.67 C 113.65 185.48 119.48 168.00 129.00 172.00
M 144.00 191.00 
C 135.90 192.99 139.96 182.61 139.00 178.00
C 136.78 180.91 133.91 179.50 134.00 176.00
C 145.36 165.21 144.85 182.25 144.00 191.00
M 157.00 172.00 
C 165.54 175.07 160.59 195.18 151.33 190.67 C 142.07 186.16 147.84 168.71 157.00 172.00
M 172.00 172.00 
C 172.00 178.33 172.00 184.67 172.00 191.00
C 164.23 193.07 167.76 183.44 167.00 179.00
C 157.82 181.30 166.72 169.97 172.00 172.00
M 205.00 172.00 
C 213.42 174.71 209.13 194.55 200.33 190.67 C 191.53 186.79 195.52 168.95 205.00 172.00
M 221.00 172.00 
C 221.00 178.33 221.00 184.67 221.00 191.00
C 210.35 193.32 221.54 175.51 211.00 178.00
C 212.01 174.28 217.23 172.05 221.00 172.00
M 190.00 192.00 
C 198.18 195.06 193.99 214.67 184.92 211.07 C 175.86 207.48 179.92 188.22 190.00 192.00
M 205.00 192.00 
C 205.00 198.33 205.00 204.67 205.00 211.00
C 197.23 213.07 200.76 203.44 200.00 199.00
C 198.20 201.01 195.71 198.90 195.00 197.00
C 198.50 195.47 200.67 191.14 205.00 192.00
M 127.00 198.00 
C 128.80 202.37 129.70 207.19 126.00 211.00
C 114.69 211.71 118.69 192.90 127.00 198.00
M 136.00 197.00 
C 138.10 201.20 136.50 206.39 137.00 211.00
C 132.99 211.93 132.14 208.77 133.00 205.00 C 133.86 201.23 129.14 204.17 130.00 200.00
C 132.96 200.45 133.47 197.05 136.00 197.00 Z"/>
</g>
<g fill="None" fill-opacity="0.0" stroke="#BF0503" stroke-opacity="0.39" stroke-width="0.3"><path d="
M 0.00 101.00 
C 1.69 100.04 1.43 96.03 0.00 95.00
L 0.00 101.00 Z"/>
</g>
<g fill="None" fill-opacity="0.0" stroke="#AD0F11" stroke-opacity="0.75" stroke-width="0.3"><path d="
M 134.00 126.00 
C 133.09 118.33 135.22 110.71 133.97 103.03 C 132.72 95.35 123.07 104.07 120.00 106.00
C 119.94 109.94 124.86 111.08 127.00 108.00
C 128.36 114.54 122.61 128.95 134.00 126.00 Z"/>
</g>
<g fill="None" fill-opacity="0.0" stroke="#AE1010" stroke-opacity="0.81" stroke-width="0.3"><path d="
M 153.00 100.00 
C 139.07 94.33 132.84 120.26 144.99 126.01 C 157.14 131.75 164.18 104.55 153.00 100.00
M 150.00 105.00 
C 152.98 106.72 152.21 121.56 147.97 120.97 C 143.74 120.38 145.02 102.13 150.00 105.00 Z"/>
</g>
<g fill="None" fill-opacity="0.0" stroke="#AD1515" stroke-opacity="0.84" stroke-width="0.3"><path d="
M 195.00 100.00 
C 189.49 98.95 178.90 105.01 184.00 111.00
C 186.03 110.27 186.96 107.81 189.00 107.00
C 190.73 113.26 184.32 128.06 195.00 126.00
C 195.00 117.33 195.00 108.67 195.00 100.00 Z"/>
</g>
<g fill="None" fill-opacity="0.0" stroke="#AC1112" stroke-opacity="0.83" stroke-width="0.3"><path d="
M 214.00 100.00 
C 199.94 95.00 194.74 120.75 206.98 126.02 C 219.21 131.30 224.82 103.85 214.00 100.00
M 212.00 121.00 
C 206.45 123.00 204.05 108.10 208.77 105.77 C 213.49 103.44 214.19 117.85 212.00 121.00 Z"/>
</g>
<g fill="None" fill-opacity="0.0" stroke="#000000" stroke-opacity="0.00" stroke-width="0.3"><path d="
M 150.00 105.00 
C 145.02 102.13 143.74 120.38 147.97 120.97 C 152.21 121.56 152.98 106.72 150.00 105.00 Z"/>
</g>
<g fill="None" fill-opacity="0.0" stroke="#000000" stroke-opacity="0.00" stroke-width="0.3"><path d="
M 212.00 121.00 
C 214.19 117.85 213.49 103.44 208.77 105.77 C 204.05 108.10 206.45 123.00 212.00 121.00 Z"/>
</g>
<g fill="None" fill-opacity="0.0" stroke="#1B1A1A" stroke-opacity="0.89" stroke-width="0.3"><path d="
M 133.00 138.00 
C 124.89 136.07 117.00 153.39 128.00 144.00
C 127.99 150.15 122.41 165.88 133.00 164.00
C 133.00 155.33 133.00 146.67 133.00 138.00 Z"/>
</g>
<g fill="None" fill-opacity="0.0" stroke="#1A191A" stroke-opacity="0.87" stroke-width="0.3"><path d="
M 153.00 138.00 
C 147.39 136.82 145.31 142.45 141.00 145.00
C 142.31 148.91 144.94 147.05 147.00 145.00
C 148.73 151.26 142.32 166.06 153.00 164.00
C 153.00 155.33 153.00 146.67 153.00 138.00 Z"/>
</g>
<g fill="None" fill-opacity="0.0" stroke="#202021" stroke-opacity="0.97" stroke-width="0.3"><path d="
M 166.00 141.00 
C 164.71 142.30 163.11 144.16 163.00 146.00
C 172.88 138.38 167.77 157.17 169.00 163.00
C 177.51 160.22 170.92 145.58 173.00 138.00
C 169.89 137.02 168.04 139.64 166.00 141.00 Z"/>
</g>
<g fill="None" fill-opacity="0.0" stroke="#1A1A1A" stroke-opacity="0.93" stroke-width="0.3"><path d="
M 197.00 160.00 
C 196.53 154.27 199.54 139.34 190.08 138.07 C 180.62 136.79 179.08 147.62 180.01 154.99 C 180.93 162.36 190.54 167.50 197.00 160.00
M 192.00 144.00 
C 190.42 146.98 194.91 159.64 188.96 159.96 C 183.02 160.29 185.85 147.80 185.00 145.00
C 187.30 142.72 189.26 141.63 192.00 144.00 Z"/>
</g>
<g fill="None" fill-opacity="0.0" stroke="#060607" stroke-opacity="0.61" stroke-width="0.3"><path d="
M 169.00 163.00 
C 167.77 157.17 172.88 138.38 163.00 146.00
C 163.11 144.16 164.71 142.30 166.00 141.00
C 163.60 141.71 162.09 143.68 160.00 145.00
C 161.57 148.77 164.58 149.24 167.00 146.00
C 168.15 150.34 164.58 163.20 169.00 163.00 Z"/>
</g>
<g fill="None" fill-opacity="0.0" stroke="#000000" stroke-opacity="0.06" stroke-width="0.3"><path d="
M 192.00 144.00 
C 189.26 141.63 187.30 142.72 185.00 145.00
C 185.85 147.80 183.02 160.29 188.96 159.96 C 194.91 159.64 190.42 146.98 192.00 144.00 Z"/>
</g>
<g fill="None" fill-opacity="0.0" stroke="#A71111" stroke-opacity="0.75" stroke-width="0.3"><path d="
M 129.00 172.00 
C 119.48 168.00 113.65 185.48 122.33 190.67 C 131.01 195.86 137.14 175.42 129.00 172.00
M 124.00 187.00 
C 124.00 183.33 124.00 179.67 124.00 176.00
C 128.63 175.02 128.77 187.96 124.00 187.00 Z"/>
</g>
<g fill="None" fill-opacity="0.0" stroke="#A81313" stroke-opacity="0.71" stroke-width="0.3"><path d="
M 144.00 191.00 
C 144.85 182.25 145.36 165.21 134.00 176.00
C 133.91 179.50 136.78 180.91 139.00 178.00
C 139.96 182.61 135.90 192.99 144.00 191.00 Z"/>
</g>
<g fill="None" fill-opacity="0.0" stroke="#A91212" stroke-opacity="0.76" stroke-width="0.3"><path d="
M 157.00 172.00 
C 147.84 168.71 142.07 186.16 151.33 190.67 C 160.59 195.18 165.54 175.07 157.00 172.00
M 155.00 176.00 
C 157.39 177.12 156.71 187.78 153.30 186.64 C 149.89 185.50 152.22 174.70 155.00 176.00 Z"/>
</g>
<g fill="None" fill-opacity="0.0" stroke="#A81414" stroke-opacity="0.72" stroke-width="0.3"><path d="
M 172.00 172.00 
C 166.72 169.97 157.82 181.30 167.00 179.00
C 167.76 183.44 164.23 193.07 172.00 191.00
C 172.00 184.67 172.00 178.33 172.00 172.00 Z"/>
</g>
<g fill="None" fill-opacity="0.0" stroke="#161515" stroke-opacity="0.85" stroke-width="0.3"><path d="
M 205.00 172.00 
C 195.52 168.95 191.53 186.79 200.33 190.67 C 209.13 194.55 213.42 174.71 205.00 172.00
M 204.00 175.00 
C 204.31 178.82 207.26 185.55 202.00 188.00
C 200.37 184.29 198.64 175.48 204.00 175.00 Z"/>
</g>
<g fill="None" fill-opacity="0.0" stroke="#1B1919" stroke-opacity="0.75" stroke-width="0.3"><path d="
M 221.00 172.00 
C 217.23 172.05 212.01 174.28 211.00 178.00
C 221.54 175.51 210.35 193.32 221.00 191.00
C 221.00 184.67 221.00 178.33 221.00 172.00 Z"/>
</g>
<g fill="None" fill-opacity="0.0" stroke="#000000" stroke-opacity="0.04" stroke-width="0.3"><path d="
M 204.00 175.00 
C 198.64 175.48 200.37 184.29 202.00 188.00
C 207.26 185.55 204.31 178.82 204.00 175.00 Z"/>
</g>
<g fill="None" fill-opacity="0.0" stroke="#000000" stroke-opacity="0.00" stroke-width="0.3"><path d="
M 124.00 187.00 
C 128.77 187.96 128.63 175.02 124.00 176.00
C 124.00 179.67 124.00 183.33 124.00 187.00 Z"/>
</g>
<g fill="None" fill-opacity="0.0" stroke="#000000" stroke-opacity="0.00" stroke-width="0.3"><path d="
M 155.00 176.00 
C 152.22 174.70 149.89 185.50 153.30 186.64 C 156.71 187.78 157.39 177.12 155.00 176.00 Z"/>
</g>
<g fill="None" fill-opacity="0.0" stroke="#A71313" stroke-opacity="0.75" stroke-width="0.3"><path d="
M 190.00 192.00 
C 179.92 188.22 175.86 207.48 184.92 211.07 C 193.99 214.67 198.18 195.06 190.00 192.00
M 188.00 196.00 
C 190.39 197.12 189.71 207.78 186.30 206.64 C 182.89 205.50 185.22 194.70 188.00 196.00 Z"/>
</g>
<g fill="None" fill-opacity="0.0" stroke="#A61614" stroke-opacity="0.73" stroke-width="0.3"><path d="
M 205.00 192.00 
C 200.67 191.14 198.50 195.47 195.00 197.00
C 195.71 198.90 198.20 201.01 200.00 199.00
C 200.76 203.44 197.23 213.07 205.00 211.00
C 205.00 204.67 205.00 198.33 205.00 192.00 Z"/>
</g>
<g fill="None" fill-opacity="0.0" stroke="#A91213" stroke-opacity="0.76" stroke-width="0.3"><path d="
M 222.00 208.00 
L 222.00 196.00
C 216.28 187.95 208.62 193.58 209.00 202.00 C 209.38 210.42 215.55 215.10 222.00 208.00
M 217.00 196.00 
C 218.05 199.74 218.00 203.22 217.00 207.00
C 212.30 207.87 212.41 195.98 217.00 196.00 Z"/>
</g>
<g fill="None" fill-opacity="0.0" stroke="#000000" stroke-opacity="0.00" stroke-width="0.3"><path d="
M 188.00 196.00 
C 185.22 194.70 182.89 205.50 186.30 206.64 C 189.71 207.78 190.39 197.12 188.00 196.00 Z"/>
</g>
<g fill="None" fill-opacity="0.0" stroke="#000000" stroke-opacity="0.00" stroke-width="0.3"><path d="
M 217.00 196.00 
C 212.41 195.98 212.30 207.87 217.00 207.00
C 218.00 203.22 218.05 199.74 217.00 196.00 Z"/>
</g>
<g fill="None" fill-opacity="0.0" stroke="#120F10" stroke-opacity="0.80" stroke-width="0.3"><path d="
M 127.00 198.00 
C 118.69 192.90 114.69 211.71 126.00 211.00
C 129.70 207.19 128.80 202.37 127.00 198.00
M 123.00 209.00 
C 121.21 206.87 121.69 202.49 123.00 200.00
C 126.23 201.55 125.87 208.99 123.00 209.00 Z"/>
</g>
<g fill="None" fill-opacity="0.0" stroke="#0F0C0C" stroke-opacity="0.65" stroke-width="0.3"><path d="
M 136.00 197.00 
C 133.47 197.05 132.96 200.45 130.00 200.00
C 129.14 204.17 133.86 201.23 133.00 205.00 C 132.14 208.77 132.99 211.93 137.00 211.00
C 136.50 206.39 138.10 201.20 136.00 197.00 Z"/>
</g>
<g fill="None" fill-opacity="0.0" stroke="#000000" stroke-opacity="0.06" stroke-width="0.3"><path d="
M 123.00 209.00 
C 125.87 208.99 126.23 201.55 123.00 200.00
C 121.69 202.49 121.21 206.87 123.00 209.00 Z"/>
</g>
<g fill="None" fill-opacity="0.0" stroke="#A41111" stroke-opacity="0.71" stroke-width="0.3"><path d="
M 156.00 227.00 
L 162.00 227.00
C 165.38 223.72 165.45 212.64 159.03 213.03 C 152.60 213.41 153.30 223.29 156.00 227.00
M 160.00 216.00 
C 160.09 218.67 162.88 223.96 158.00 224.00
C 158.42 221.38 156.70 217.17 160.00 216.00 Z"/>
</g>
<g fill="None" fill-opacity="0.0" stroke="#9D1B1A" stroke-opacity="0.65" stroke-width="0.3"><path d="
M 169.00 227.00 
L 173.00 227.00
C 174.94 219.73 171.60 206.80 165.00 218.00
C 170.54 217.51 168.81 222.52 169.00 227.00 Z"/>
</g>
<g fill="None" fill-opacity="0.0" stroke="#000000" stroke-opacity="0.00" stroke-width="0.3"><path d="
M 160.00 216.00 
C 156.70 217.17 158.42 221.38 158.00 224.00
C 162.88 223.96 160.09 218.67 160.00 216.00 Z"/>
</g>
<g fill="#000000" fill-opacity="0.00" stroke="None">
<path d="
M 0.00 83.00 
C 4.98 66.08 20.43 50.22 39.00 49.00
C 42.50 25.59 63.68 4.62 87.00 1.00
C 87.06 0.99 87.00 0.00 87.00 0.00
L 0.00 0.00
L 0.00 83.00 Z"/>
</g>
<g fill="#BF0503" fill-opacity="0.31" stroke="None">
<path d="
M 87.00 1.00 
C 89.22 0.80 92.60 1.90 94.00 0.00
L 87.00 0.00
C 87.00 0.00 87.06 0.99 87.00 1.00 Z"/>
</g>
<g fill="#B81010" fill-opacity="0.92" stroke="None">
<path d="
M 87.00 1.00 
C 63.68 4.62 42.50 25.59 39.00 49.00
C 20.43 50.22 4.98 66.08 0.00 83.00
L 0.00 95.00
C 1.43 96.03 1.69 100.04 0.00 101.00
L 0.00 102.00
C 3.22 110.71 7.49 119.22 15.25 125.75 C 23.00 132.29 33.65 136.71 44.00 136.00 C 54.35 135.29 73.80 136.90 83.00 136.00 C 92.20 135.10 115.77 140.61 114.99 128.99 C 114.22 117.38 91.14 124.52 82.00 123.00 C 72.86 121.48 53.06 124.02 43.00 123.00 C 32.94 121.98 23.87 117.81 18.08 108.92 C 12.29 100.02 10.89 88.19 16.32 78.32 C 21.75 68.45 29.19 66.35 39.22 62.22 C 49.25 58.09 60.47 73.49 69.25 67.25 C 78.02 61.00 59.74 48.12 52.00 50.00
C 61.13 -0.18 142.16 2.80 147.00 54.00
C 133.05 56.98 140.89 73.17 150.75 66.75 C 160.60 60.32 169.76 60.07 180.07 64.93 C 190.39 69.78 192.38 74.53 196.98 86.02 C 201.57 97.52 214.87 86.49 208.02 75.98 C 201.17 65.46 200.58 62.46 190.92 56.08 C 181.26 49.70 171.77 48.20 160.00 49.00
C 155.17 24.93 134.35 5.12 111.00 0.00
L 94.00 0.00
C 92.60 1.90 89.22 0.80 87.00 1.00 Z"/>
</g>
<g fill="#000000" fill-opacity="0.00" stroke="None">
<path d="
M 0.00 102.00 
L 0.00 227.00
L 156.00 227.00
C 153.30 223.29 152.60 213.41 159.03 213.03 C 165.45 212.64 165.38 223.72 162.00 227.00
L 169.00 227.00
C 168.81 222.52 170.54 217.51 165.00 218.00
C 171.60 206.80 174.94 219.73 173.00 227.00
L 222.00 227.00
L 222.00 208.00
C 215.55 215.10 209.38 210.42 209.00 202.00 C 208.62 193.58 216.28 187.95 222.00 196.00
L 222.00 0.00
L 111.00 0.00
C 134.35 5.12 155.17 24.93 160.00 49.00
C 171.77 48.20 181.26 49.70 190.92 56.08 C 200.58 62.46 201.17 65.46 208.02 75.98 C 214.87 86.49 201.57 97.52 196.98 86.02 C 192.38 74.53 190.39 69.78 180.07 64.93 C 169.76 60.07 160.60 60.32 150.75 66.75 C 140.89 73.17 133.05 56.98 147.00 54.00
C 142.16 2.80 61.13 -0.18 52.00 50.00
C 59.74 48.12 78.02 61.00 69.25 67.25 C 60.47 73.49 49.25 58.09 39.22 62.22 C 29.19 66.35 21.75 68.45 16.32 78.32 C 10.89 88.19 12.29 100.02 18.08 108.92 C 23.87 117.81 32.94 121.98 43.00 123.00 C 53.06 124.02 72.86 121.48 82.00 123.00 C 91.14 124.52 114.22 117.38 114.99 128.99 C 115.77 140.61 92.20 135.10 83.00 136.00 C 73.80 136.90 54.35 135.29 44.00 136.00 C 33.65 136.71 23.00 132.29 15.25 125.75 C 7.49 119.22 3.22 110.71 0.00 102.00
M 134.00 126.00 
C 122.61 128.95 128.36 114.54 127.00 108.00
C 124.86 111.08 119.94 109.94 120.00 106.00
C 123.07 104.07 132.72 95.35 133.97 103.03 C 135.22 110.71 133.09 118.33 134.00 126.00
M 153.00 100.00 
C 164.18 104.55 157.14 131.75 144.99 126.01 C 132.84 120.26 139.07 94.33 153.00 100.00
M 195.00 100.00 
C 195.00 108.67 195.00 117.33 195.00 126.00
C 184.32 128.06 190.73 113.26 189.00 107.00
C 186.96 107.81 186.03 110.27 184.00 111.00
C 178.90 105.01 189.49 98.95 195.00 100.00
M 214.00 100.00 
C 224.82 103.85 219.21 131.30 206.98 126.02 C 194.74 120.75 199.94 95.00 214.00 100.00
M 133.00 138.00 
C 133.00 146.67 133.00 155.33 133.00 164.00
C 122.41 165.88 127.99 150.15 128.00 144.00
C 117.00 153.39 124.89 136.07 133.00 138.00
M 153.00 138.00 
C 153.00 146.67 153.00 155.33 153.00 164.00
C 142.32 166.06 148.73 151.26 147.00 145.00
C 144.94 147.05 142.31 148.91 141.00 145.00
C 145.31 142.45 147.39 136.82 153.00 138.00
M 169.00 163.00 
C 164.58 163.20 168.15 150.34 167.00 146.00
C 164.58 149.24 161.57 148.77 160.00 145.00
C 162.09 143.68 163.60 141.71 166.00 141.00
C 168.04 139.64 169.89 137.02 173.00 138.00
C 170.92 145.58 177.51 160.22 169.00 163.00
M 197.00 160.00 
C 190.54 167.50 180.93 162.36 180.01 154.99 C 179.08 147.62 180.62 136.79 190.08 138.07 C 199.54 139.34 196.53 154.27 197.00 160.00
M 129.00 172.00 
C 137.14 175.42 131.01 195.86 122.33 190.67 C 113.65 185.48 119.48 168.00 129.00 172.00
M 144.00 191.00 
C 135.90 192.99 139.96 182.61 139.00 178.00
C 136.78 180.91 133.91 179.50 134.00 176.00
C 145.36 165.21 144.85 182.25 144.00 191.00
M 157.00 172.00 
C 165.54 175.07 160.59 195.18 151.33 190.67 C 142.07 186.16 147.84 168.71 157.00 172.00
M 172.00 172.00 
C 172.00 178.33 172.00 184.67 172.00 191.00
C 164.23 193.07 167.76 183.44 167.00 179.00
C 157.82 181.30 166.72 169.97 172.00 172.00
M 205.00 172.00 
C 213.42 174.71 209.13 194.55 200.33 190.67 C 191.53 186.79 195.52 168.95 205.00 172.00
M 221.00 172.00 
C 221.00 178.33 221.00 184.67 221.00 191.00
C 210.35 193.32 221.54 175.51 211.00 178.00
C 212.01 174.28 217.23 172.05 221.00 172.00
M 190.00 192.00 
C 198.18 195.06 193.99 214.67 184.92 211.07 C 175.86 207.48 179.92 188.22 190.00 192.00
M 205.00 192.00 
C 205.00 198.33 205.00 204.67 205.00 211.00
C 197.23 213.07 200.76 203.44 200.00 199.00
C 198.20 201.01 195.71 198.90 195.00 197.00
C 198.50 195.47 200.67 191.14 205.00 192.00
M 127.00 198.00 
C 128.80 202.37 129.70 207.19 126.00 211.00
C 114.69 211.71 118.69 192.90 127.00 198.00
M 136.00 197.00 
C 138.10 201.20 136.50 206.39 137.00 211.00
C 132.99 211.93 132.14 208.77 133.00 205.00 C 133.86 201.23 129.14 204.17 130.00 200.00
C 132.96 200.45 133.47 197.05 136.00 197.00 Z"/>
</g>
<g fill="#BF0503" fill-opacity="0.39" stroke="None">
<path d="
M 0.00 101.00 
C 1.69 100.04 1.43 96.03 0.00 95.00
L 0.00 101.00 Z"/>
</g>
<g fill="#AD0F11" fill-opacity="0.75" stroke="None">
<path d="
M 134.00 126.00 
C 133.09 118.33 135.22 110.71 133.97 103.03 C 132.72 95.35 123.07 104.07 120.00 106.00
C 119.94 109.94 124.86 111.08 127.00 108.00
C 128.36 114.54 122.61 128.95 134.00 126.00 Z"/>
</g>
<g fill="#AE1010" fill-opacity="0.81" stroke="None">
<path d="
M 153.00 100.00 
C 139.07 94.33 132.84 120.26 144.99 126.01 C 157.14 131.75 164.18 104.55 153.00 100.00
M 150.00 105.00 
C 152.98 106.72 152.21 121.56 147.97 120.97 C 143.74 120.38 145.02 102.13 150.00 105.00 Z"/>
</g>
<g fill="#AD1515" fill-opacity="0.84" stroke="None">
<path d="
M 195.00 100.00 
C 189.49 98.95 178.90 105.01 184.00 111.00
C 186.03 110.27 186.96 107.81 189.00 107.00
C 190.73 113.26 184.32 128.06 195.00 126.00
C 195.00 117.33 195.00 108.67 195.00 100.00 Z"/>
</g>
<g fill="#AC1112" fill-opacity="0.83" stroke="None">
<path d="
M 214.00 100.00 
C 199.94 95.00 194.74 120.75 206.98 126.02 C 219.21 131.30 224.82 103.85 214.00 100.00
M 212.00 121.00 
C 206.45 123.00 204.05 108.10 208.77 105.77 C 213.49 103.44 214.19 117.85 212.00 121.00 Z"/>
</g>
<g fill="#000000" fill-opacity="0.00" stroke="None">
<path d="
M 150.00 105.00 
C 145.02 102.13 143.74 120.38 147.97 120.97 C 152.21 121.56 152.98 106.72 150.00 105.00 Z"/>
</g>
<g fill="#000000" fill-opacity="0.00" stroke="None">
<path d="
M 212.00 121.00 
C 214.19 117.85 213.49 103.44 208.77 105.77 C 204.05 108.10 206.45 123.00 212.00 121.00 Z"/>
</g>
<g fill="#1B1A1A" fill-opacity="0.89" stroke="None">
<path d="
M 133.00 138.00 
C 124.89 136.07 117.00 153.39 128.00 144.00
C 127.99 150.15 122.41 165.88 133.00 164.00
C 133.00 155.33 133.00 146.67 133.00 138.00 Z"/>
</g>
<g fill="#1A191A" fill-opacity="0.87" stroke="None">
<path d="
M 153.00 138.00 
C 147.39 136.82 145.31 142.45 141.00 145.00
C 142.31 148.91 144.94 147.05 147.00 145.00
C 148.73 151.26 142.32 166.06 153.00 164.00
C 153.00 155.33 153.00 146.67 153.00 138.00 Z"/>
</g>
<g fill="#202021" fill-opacity="0.97" stroke="None">
<path d="
M 166.00 141.00 
C 164.71 142.30 163.11 144.16 163.00 146.00
C 172.88 138.38 167.77 157.17 169.00 163.00
C 177.51 160.22 170.92 145.58 173.00 138.00
C 169.89 137.02 168.04 139.64 166.00 141.00 Z"/>
</g>
<g fill="#1A1A1A" fill-opacity="0.93" stroke="None">
<path d="
M 197.00 160.00 
C 196.53 154.27 199.54 139.34 190.08 138.07 C 180.62 136.79 179.08 147.62 180.01 154.99 C 180.93 162.36 190.54 167.50 197.00 160.00
M 192.00 144.00 
C 190.42 146.98 194.91 159.64 188.96 159.96 C 183.02 160.29 185.85 147.80 185.00 145.00
C 187.30 142.72 189.26 141.63 192.00 144.00 Z"/>
</g>
<g fill="#060607" fill-opacity="0.61" stroke="None">
<path d="
M 169.00 163.00 
C 167.77 157.17 172.88 138.38 163.00 146.00
C 163.11 144.16 164.71 142.30 166.00 141.00
C 163.60 141.71 162.09 143.68 160.00 145.00
C 161.57 148.77 164.58 149.24 167.00 146.00
C 168.15 150.34 164.58 163.20 169.00 163.00 Z"/>
</g>
<g fill="#000000" fill-opacity="0.06" stroke="None">
<path d="
M 192.00 144.00 
C 189.26 141.63 187.30 142.72 185.00 145.00
C 185.85 147.80 183.02 160.29 188.96 159.96 C 194.91 159.64 190.42 146.98 192.00 144.00 Z"/>
</g>
<g fill="#A71111" fill-opacity="0.75" stroke="None">
<path d="
M 129.00 172.00 
C 119.48 168.00 113.65 185.48 122.33 190.67 C 131.01 195.86 137.14 175.42 129.00 172.00
M 124.00 187.00 
C 124.00 183.33 124.00 179.67 124.00 176.00
C 128.63 175.02 128.77 187.96 124.00 187.00 Z"/>
</g>
<g fill="#A81313" fill-opacity="0.71" stroke="None">
<path d="
M 144.00 191.00 
C 144.85 182.25 145.36 165.21 134.00 176.00
C 133.91 179.50 136.78 180.91 139.00 178.00
C 139.96 182.61 135.90 192.99 144.00 191.00 Z"/>
</g>
<g fill="#A91212" fill-opacity="0.76" stroke="None">
<path d="
M 157.00 172.00 
C 147.84 168.71 142.07 186.16 151.33 190.67 C 160.59 195.18 165.54 175.07 157.00 172.00
M 155.00 176.00 
C 157.39 177.12 156.71 187.78 153.30 186.64 C 149.89 185.50 152.22 174.70 155.00 176.00 Z"/>
</g>
<g fill="#A81414" fill-opacity="0.72" stroke="None">
<path d="
M 172.00 172.00 
C 166.72 169.97 157.82 181.30 167.00 179.00
C 167.76 183.44 164.23 193.07 172.00 191.00
C 172.00 184.67 172.00 178.33 172.00 172.00 Z"/>
</g>
<g fill="#161515" fill-opacity="0.85" stroke="None">
<path d="
M 205.00 172.00 
C 195.52 168.95 191.53 186.79 200.33 190.67 C 209.13 194.55 213.42 174.71 205.00 172.00
M 204.00 175.00 
C 204.31 178.82 207.26 185.55 202.00 188.00
C 200.37 184.29 198.64 175.48 204.00 175.00 Z"/>
</g>
<g fill="#1B1919" fill-opacity="0.75" stroke="None">
<path d="
M 221.00 172.00 
C 217.23 172.05 212.01 174.28 211.00 178.00
C 221.54 175.51 210.35 193.32 221.00 191.00
C 221.00 184.67 221.00 178.33 221.00 172.00 Z"/>
</g>
<g fill="#000000" fill-opacity="0.04" stroke="None">
<path d="
M 204.00 175.00 
C 198.64 175.48 200.37 184.29 202.00 188.00
C 207.26 185.55 204.31 178.82 204.00 175.00 Z"/>
</g>
<g fill="#000000" fill-opacity="0.00" stroke="None">
<path d="
M 124.00 187.00 
C 128.77 187.96 128.63 175.02 124.00 176.00
C 124.00 179.67 124.00 183.33 124.00 187.00 Z"/>
</g>
<g fill="#000000" fill-opacity="0.00" stroke="None">
<path d="
M 155.00 176.00 
C 152.22 174.70 149.89 185.50 153.30 186.64 C 156.71 187.78 157.39 177.12 155.00 176.00 Z"/>
</g>
<g fill="#A71313" fill-opacity="0.75" stroke="None">
<path d="
M 190.00 192.00 
C 179.92 188.22 175.86 207.48 184.92 211.07 C 193.99 214.67 198.18 195.06 190.00 192.00
M 188.00 196.00 
C 190.39 197.12 189.71 207.78 186.30 206.64 C 182.89 205.50 185.22 194.70 188.00 196.00 Z"/>
</g>
<g fill="#A61614" fill-opacity="0.73" stroke="None">
<path d="
M 205.00 192.00 
C 200.67 191.14 198.50 195.47 195.00 197.00
C 195.71 198.90 198.20 201.01 200.00 199.00
C 200.76 203.44 197.23 213.07 205.00 211.00
C 205.00 204.67 205.00 198.33 205.00 192.00 Z"/>
</g>
<g fill="#A91213" fill-opacity="0.76" stroke="None">
<path d="
M 222.00 208.00 
L 222.00 196.00
C 216.28 187.95 208.62 193.58 209.00 202.00 C 209.38 210.42 215.55 215.10 222.00 208.00
M 217.00 196.00 
C 218.05 199.74 218.00 203.22 217.00 207.00
C 212.30 207.87 212.41 195.98 217.00 196.00 Z"/>
</g>
<g fill="#000000" fill-opacity="0.00" stroke="None">
<path d="
M 188.00 196.00 
C 185.22 194.70 182.89 205.50 186.30 206.64 C 189.71 207.78 190.39 197.12 188.00 196.00 Z"/>
</g>
<g fill="#000000" fill-opacity="0.00" stroke="None">
<path d="
M 217.00 196.00 
C 212.41 195.98 212.30 207.87 217.00 207.00
C 218.00 203.22 218.05 199.74 217.00 196.00 Z"/>
</g>
<g fill="#120F10" fill-opacity="0.80" stroke="None">
<path d="
M 127.00 198.00 
C 118.69 192.90 114.69 211.71 126.00 211.00
C 129.70 207.19 128.80 202.37 127.00 198.00
M 123.00 209.00 
C 121.21 206.87 121.69 202.49 123.00 200.00
C 126.23 201.55 125.87 208.99 123.00 209.00 Z"/>
</g>
<g fill="#0F0C0C" fill-opacity="0.65" stroke="None">
<path d="
M 136.00 197.00 
C 133.47 197.05 132.96 200.45 130.00 200.00
C 129.14 204.17 133.86 201.23 133.00 205.00 C 132.14 208.77 132.99 211.93 137.00 211.00
C 136.50 206.39 138.10 201.20 136.00 197.00 Z"/>
</g>
<g fill="#000000" fill-opacity="0.06" stroke="None">
<path d="
M 123.00 209.00 
C 125.87 208.99 126.23 201.55 123.00 200.00
C 121.69 202.49 121.21 206.87 123.00 209.00 Z"/>
</g>
<g fill="#A41111" fill-opacity="0.71" stroke="None">
<path d="
M 156.00 227.00 
L 162.00 227.00
C 165.38 223.72 165.45 212.64 159.03 213.03 C 152.60 213.41 153.30 223.29 156.00 227.00
M 160.00 216.00 
C 160.09 218.67 162.88 223.96 158.00 224.00
C 158.42 221.38 156.70 217.17 160.00 216.00 Z"/>
</g>
<g fill="#9D1B1A" fill-opacity="0.65" stroke="None">
<path d="
M 169.00 227.00 
L 173.00 227.00
C 174.94 219.73 171.60 206.80 165.00 218.00
C 170.54 217.51 168.81 222.52 169.00 227.00 Z"/>
</g>
<g fill="#000000" fill-opacity="0.00" stroke="None">
<path d="
M 160.00 216.00 
C 156.70 217.17 158.42 221.38 158.00 224.00
C 162.88 223.96 160.09 218.67 160.00 216.00 Z"/>
</g>
</svg>