<svg xmlns="http://www.w3.org/2000/svg" xmlns:v="https://svgstorm.com"
viewBox = "0 0 148 148"
width="148"
height="148">
<g fill="None" fill-opacity="0.0" stroke="#000000" stroke-opacity="0.00" stroke-width="0.3"><path d="
M 0.00 148.00 
L 148.00 148.00
L 148.00 0.00
L 0.00 0.00
L 0.00 148.00
M 110.00 5.00 
C 110.50 5.00 111.00 5.00 111.00 5.00
C 113.19 5.51 114.42 7.22 116.00 8.00
C 117.81 8.69 119.18 9.13 121.00 10.00
C 121.95 10.45 122.17 10.45 123.00 11.00
C 123.24 10.75 124.00 11.00 124.00 11.00
C 126.21 11.51 127.41 13.18 129.00 14.00
C 131.33 14.95 133.66 15.88 136.00 17.00
C 137.56 17.75 137.99 17.32 139.00 19.00
C 139.50 18.99 140.00 19.00 140.00 19.00
C 142.34 20.15 143.20 21.84 144.00 24.00
C 146.53 30.87 144.73 40.20 145.00 48.00 C 145.27 55.80 145.35 65.22 145.00 73.00 C 144.65 80.78 146.21 90.60 145.00 98.00 C 143.79 105.40 148.20 117.32 144.00 123.00
C 144.00 123.50 144.00 124.00 144.00 124.00
C 143.57 126.18 142.06 127.99 140.00 129.00
C 139.60 129.20 139.00 129.00 139.00 129.00
C 137.96 130.74 137.57 130.20 136.00 131.00
C 134.10 132.28 132.94 132.20 131.00 133.00
C 129.92 133.63 129.28 134.38 128.00 135.00
C 122.14 137.81 116.21 141.24 110.00 143.00
C 107.62 143.67 105.41 144.79 103.00 143.00
C 102.50 143.00 102.00 143.00 102.00 143.00
C 100.41 142.46 100.03 140.89 99.00 140.00
C 98.43 139.50 97.61 139.37 97.00 139.00
C 87.70 133.34 74.17 120.83 68.00 112.00
C 67.84 111.77 67.00 112.00 67.00 112.00
C 65.58 111.52 64.70 110.15 64.00 109.00
C 63.81 108.68 63.32 108.20 63.00 108.00
C 60.48 106.44 59.03 103.85 57.00 102.00
C 55.13 101.74 54.20 100.02 53.00 99.00
C 50.38 96.76 47.33 92.65 44.00 92.00
C 43.52 91.91 43.00 92.00 43.00 92.00
C 41.90 93.58 40.75 95.15 39.00 96.00
C 38.60 96.20 38.00 96.00 38.00 96.00
C 35.25 100.22 29.14 104.17 25.00 107.00
C 24.41 107.40 23.71 107.87 23.00 108.00
C 22.52 108.09 22.00 108.00 22.00 108.00
C 21.59 109.24 21.92 110.22 20.00 110.00
C 19.51 109.94 19.00 110.00 19.00 110.00
C 16.65 111.88 15.78 110.63 14.00 109.00
C 13.45 108.49 12.60 108.36 12.00 108.00
C -0.95 100.12 4.07 90.76 15.00 84.00
C 15.32 83.80 15.74 83.24 16.00 83.00
C 17.88 81.27 21.45 79.12 23.00 77.00
C 25.55 73.53 23.88 71.88 21.00 69.00
C 19.23 67.23 16.85 65.58 15.00 64.00
C 13.55 62.76 12.29 61.24 11.00 60.00
C 9.86 58.90 8.15 58.01 7.00 57.00
C -3.02 48.24 14.32 32.23 23.00 40.00
C 23.39 40.07 24.70 40.79 25.00 41.00
C 27.97 43.03 30.94 45.05 33.00 48.00
C 33.16 48.23 34.00 48.00 34.00 48.00
C 35.54 48.52 36.10 49.94 37.00 51.00
C 37.32 51.19 37.74 51.88 38.00 52.00
C 38.48 52.09 39.00 52.00 39.00 52.00
C 41.31 53.43 43.33 55.52 46.00 56.00
C 55.19 46.42 65.01 37.94 75.00 29.00
C 75.48 28.71 76.65 28.33 77.00 28.00
C 78.59 26.52 80.50 24.50 82.00 23.00
C 83.67 21.33 85.22 19.52 87.00 18.00
C 88.19 16.75 89.69 16.19 91.00 15.00
C 93.41 12.81 95.43 10.03 98.00 8.00
C 101.41 5.31 105.90 1.97 110.00 5.00 Z"/>
</g>
<g fill="None" fill-opacity="0.0" stroke="#8DCAEA" stroke-opacity="0.35" stroke-width="0.3"><path d="
M 98.00 8.00 
C 97.58 8.50 97.39 9.58 97.00 10.00
C 99.91 7.52 102.09 5.29 106.00 5.00
C 107.32 4.90 108.68 5.00 110.00 5.00
C 105.90 1.97 101.41 5.31 98.00 8.00 Z"/>
</g>
<g fill="None" fill-opacity="0.0" stroke="#0775B6" stroke-opacity="0.99" stroke-width="0.3"><path d="
M 97.00 10.00 
C 95.10 11.62 92.71 13.29 91.00 15.00
C 88.68 17.32 86.86 20.26 84.00 22.00
C 83.52 22.29 82.35 22.67 82.00 23.00
C 80.41 24.48 78.50 26.50 77.00 28.00
C 75.74 29.26 74.22 30.78 73.00 32.00
C 71.33 33.67 69.78 35.48 68.00 37.00
C 66.41 38.36 64.56 39.71 63.00 41.00
C 62.06 41.96 60.90 43.10 60.00 44.00
C 58.97 45.03 58.11 46.08 57.00 47.00
C 55.40 48.33 53.54 49.69 52.00 51.00
C 50.28 52.72 49.13 54.71 47.00 56.00
C 46.44 56.34 45.68 56.99 45.00 57.00
C 47.56 58.70 52.25 63.19 55.75 65.25 C 59.24 67.32 64.97 74.98 68.00 73.00
C 68.35 72.77 69.00 73.00 69.00 73.00
C 70.37 71.04 71.98 69.23 74.00 68.00
C 74.64 67.61 75.39 67.37 76.00 67.00
C 77.14 66.02 77.38 64.55 79.00 64.00
C 79.45 63.85 80.00 64.00 80.00 64.00
C 81.63 63.85 82.68 62.88 84.00 62.00
C 87.57 59.00 91.78 55.26 95.25 52.25 C 98.71 49.23 105.60 46.60 108.00 43.00
C 110.24 38.59 109.08 27.57 109.00 23.00 C 108.92 18.43 111.23 6.56 106.00 5.00
C 102.09 5.29 99.91 7.52 97.00 10.00 Z"/>
</g>
<g fill="None" fill-opacity="0.0" stroke="#25A8F1" stroke-opacity="0.99" stroke-width="0.3"><path d="
M 108.00 43.00 
C 108.15 42.77 109.00 43.00 109.00 43.00
C 113.11 46.98 108.76 56.97 110.00 63.00 C 111.24 69.03 109.21 78.44 110.00 85.00 C 110.79 91.56 109.59 99.73 109.00 106.00
C 108.02 116.43 108.92 127.97 110.00 138.00
C 108.64 139.64 106.68 140.62 106.00 143.00
C 107.30 143.00 108.71 143.16 110.00 143.00
C 116.21 141.24 122.14 137.81 128.00 135.00
C 128.93 134.41 129.80 133.50 131.00 133.00
C 132.94 132.20 134.10 132.28 136.00 131.00
C 136.85 130.43 137.76 129.23 139.00 129.00
C 137.67 128.97 135.88 127.30 136.00 125.00
C 143.92 128.13 143.11 116.89 143.00 109.00 C 142.89 101.11 142.96 89.59 143.00 81.00 C 143.04 72.41 142.78 61.79 143.00 53.00 C 143.22 44.21 142.00 33.98 144.00 26.00
C 144.00 25.50 144.22 24.36 144.00 24.00
C 143.15 22.61 141.18 20.35 140.00 19.00
C 140.00 19.00 139.50 18.99 139.00 19.00
C 136.94 19.06 137.23 17.88 136.00 17.00
C 133.66 15.88 131.33 14.95 129.00 14.00
C 126.83 13.12 125.42 12.85 124.00 11.00
C 124.00 11.00 123.24 10.75 123.00 11.00
C 121.71 12.32 122.02 10.75 121.00 10.00
C 119.18 9.13 117.81 8.69 116.00 8.00
C 113.85 7.18 112.33 7.13 111.00 5.00
C 111.00 5.00 110.50 5.00 110.00 5.00
C 108.68 5.00 107.32 4.90 106.00 5.00
C 111.23 6.56 108.92 18.43 109.00 23.00 C 109.08 27.57 110.24 38.59 108.00 43.00 Z"/>
</g>
<g fill="None" fill-opacity="0.0" stroke="#98DAF8" stroke-opacity="0.34" stroke-width="0.3"><path d="
M 116.00 8.00 
C 114.42 7.22 113.19 5.51 111.00 5.00
C 112.33 7.13 113.85 7.18 116.00 8.00 Z"/>
</g>
<g fill="None" fill-opacity="0.0" stroke="#C3ECFD" stroke-opacity="0.11" stroke-width="0.3"><path d="
M 91.00 15.00 
C 92.71 13.29 95.10 11.62 97.00 10.00
C 97.39 9.58 97.58 8.50 98.00 8.00
C 95.43 10.03 93.41 12.81 91.00 15.00 Z"/>
</g>
<g fill="None" fill-opacity="0.0" stroke="#A1D4EA" stroke-opacity="0.40" stroke-width="0.3"><path d="
M 123.00 11.00 
C 122.17 10.45 121.95 10.45 121.00 10.00
C 122.02 10.75 121.71 12.32 123.00 11.00 Z"/>
</g>
<g fill="None" fill-opacity="0.0" stroke="#C4EFFE" stroke-opacity="0.13" stroke-width="0.3"><path d="
M 129.00 14.00 
C 127.41 13.18 126.21 11.51 124.00 11.00
C 125.42 12.85 126.83 13.12 129.00 14.00 Z"/>
</g>
<g fill="None" fill-opacity="0.0" stroke="#8EC0DC" stroke-opacity="0.43" stroke-width="0.3"><path d="
M 87.00 18.00 
C 85.96 19.09 85.08 21.07 84.00 22.00
C 86.86 20.26 88.68 17.32 91.00 15.00
C 89.69 16.19 88.19 16.75 87.00 18.00 Z"/>
</g>
<g fill="None" fill-opacity="0.0" stroke="#94E8F6" stroke-opacity="0.31" stroke-width="0.3"><path d="
M 139.00 19.00 
C 137.99 17.32 137.56 17.75 136.00 17.00
C 137.23 17.88 136.94 19.06 139.00 19.00 Z"/>
</g>
<g fill="None" fill-opacity="0.0" stroke="#C4EDFF" stroke-opacity="0.10" stroke-width="0.3"><path d="
M 82.00 23.00 
C 82.35 22.67 83.52 22.29 84.00 22.00
C 85.08 21.07 85.96 19.09 87.00 18.00
C 85.22 19.52 83.67 21.33 82.00 23.00 Z"/>
</g>
<g fill="None" fill-opacity="0.0" stroke="#94DCEE" stroke-opacity="0.31" stroke-width="0.3"><path d="
M 144.00 24.00 
C 143.20 21.84 142.34 20.15 140.00 19.00
C 141.18 20.35 143.15 22.61 144.00 24.00 Z"/>
</g>
<g fill="None" fill-opacity="0.0" stroke="#9ED3EA" stroke-opacity="0.29" stroke-width="0.3"><path d="
M 77.00 28.00 
C 78.50 26.50 80.41 24.48 82.00 23.00
C 80.50 24.50 78.59 26.52 77.00 28.00 Z"/>
</g>
<g fill="None" fill-opacity="0.0" stroke="#DDFFFF" stroke-opacity="0.05" stroke-width="0.3"><path d="
M 144.00 26.00 
C 144.00 58.33 144.00 90.67 144.00 123.00
C 148.20 117.32 143.79 105.40 145.00 98.00 C 146.21 90.60 144.65 80.78 145.00 73.00 C 145.35 65.22 145.27 55.80 145.00 48.00 C 144.73 40.20 146.53 30.87 144.00 24.00
C 144.22 24.36 144.00 25.50 144.00 26.00 Z"/>
</g>
<g fill="None" fill-opacity="0.0" stroke="#2493CD" stroke-opacity="0.99" stroke-width="0.3"><path d="
M 139.00 129.00 
C 139.00 129.00 139.60 129.20 140.00 129.00
C 141.51 127.27 142.40 125.53 144.00 124.00
C 144.00 124.00 144.00 123.50 144.00 123.00
C 144.00 90.67 144.00 58.33 144.00 26.00
C 142.00 33.98 143.22 44.21 143.00 53.00 C 142.78 61.79 143.04 72.41 143.00 81.00 C 142.96 89.59 142.89 101.11 143.00 109.00 C 143.11 116.89 143.92 128.13 136.00 125.00
C 135.88 127.30 137.67 128.97 139.00 129.00 Z"/>
</g>
<g fill="None" fill-opacity="0.0" stroke="#7CB1CB" stroke-opacity="0.47" stroke-width="0.3"><path d="
M 75.00 29.00 
C 74.18 29.70 73.69 31.25 73.00 32.00
C 74.22 30.78 75.74 29.26 77.00 28.00
C 76.65 28.33 75.48 28.71 75.00 29.00 Z"/>
</g>
<g fill="None" fill-opacity="0.0" stroke="#BFE9F7" stroke-opacity="0.15" stroke-width="0.3"><path d="
M 39.00 52.00 
C 40.80 54.57 42.55 55.38 45.00 57.00
C 45.68 56.99 46.44 56.34 47.00 56.00
C 48.68 54.43 50.25 52.49 52.00 51.00
C 53.54 49.69 55.40 48.33 57.00 47.00
C 57.94 46.04 59.10 44.90 60.00 44.00
C 61.03 42.97 61.89 41.92 63.00 41.00
C 64.56 39.71 66.41 38.36 68.00 37.00
C 69.54 35.46 71.59 33.53 73.00 32.00
C 73.69 31.25 74.18 29.70 75.00 29.00
C 65.01 37.94 55.19 46.42 46.00 56.00
C 43.33 55.52 41.31 53.43 39.00 52.00 Z"/>
</g>
<g fill="None" fill-opacity="0.0" stroke="#3F7FA6" stroke-opacity="0.78" stroke-width="0.3"><path d="
M 68.00 37.00 
C 69.78 35.48 71.33 33.67 73.00 32.00
C 71.59 33.53 69.54 35.46 68.00 37.00 Z"/>
</g>
<g fill="None" fill-opacity="0.0" stroke="#BBEAF8" stroke-opacity="0.17" stroke-width="0.3"><path d="
M 7.00 57.00 
C 6.75 56.79 7.00 56.00 7.00 56.00
C 5.21 54.17 3.43 51.95 4.00 49.00
C 4.34 47.25 6.81 45.92 8.00 45.00
C 8.20 44.68 8.68 44.20 9.00 44.00
C 10.39 42.21 11.88 39.95 14.00 39.00
C 16.88 37.71 19.64 37.59 22.00 40.00
C 22.25 40.25 23.00 40.00 23.00 40.00
C 14.32 32.23 -3.02 48.24 7.00 57.00 Z"/>
</g>
<g fill="None" fill-opacity="0.0" stroke="#0785CF" stroke-opacity="0.99" stroke-width="0.3"><path d="
M 14.00 39.00 
C 12.31 39.91 10.83 42.87 9.00 44.00
C 8.68 44.20 8.20 44.68 8.00 45.00
C 7.37 46.01 4.18 48.34 4.00 49.00
C 3.43 51.95 5.21 54.17 7.00 56.00
C 8.92 56.80 9.69 58.74 11.00 60.00
C 12.15 61.10 13.81 62.03 15.00 63.00
C 17.24 64.83 19.04 67.04 21.00 69.00
C 22.58 70.58 24.46 72.49 26.00 74.00
C 30.18 78.10 42.75 84.58 44.00 91.00
C 46.57 91.27 49.09 94.37 51.00 96.00
C 52.94 97.66 55.08 99.41 57.00 101.00
C 58.16 101.96 59.02 103.00 60.00 104.00
C 62.55 106.60 65.47 109.47 68.00 112.00
C 70.44 114.44 73.34 116.10 76.00 118.00
C 78.04 119.46 79.44 121.17 81.00 123.00
C 83.53 125.96 86.20 127.56 89.00 130.00
C 91.91 130.71 94.80 128.03 98.00 128.00
C 98.87 131.70 94.33 131.89 92.00 131.00
C 94.28 135.28 99.16 136.23 103.00 138.00
C 105.09 133.86 103.75 128.31 100.00 127.00
C 98.48 121.28 110.33 111.53 101.00 111.00
C 103.50 109.06 106.05 104.67 103.00 102.00
C 102.84 101.78 102.11 100.05 102.00 100.00
C 101.64 99.78 101.00 100.00 101.00 100.00
C 99.02 98.48 96.95 97.39 95.00 96.00
C 93.34 94.82 92.34 93.32 91.00 92.00
C 89.91 90.93 88.92 90.24 88.00 89.00
C 87.55 88.85 87.00 89.00 87.00 89.00
C 85.69 88.16 84.14 87.71 83.00 87.00
C 81.59 86.12 80.93 85.26 80.00 84.00
C 79.55 83.85 79.00 84.00 79.00 84.00
C 77.41 83.46 77.02 81.93 76.00 81.00
C 73.23 78.94 69.62 77.31 68.00 74.00
C 67.80 73.60 68.00 73.00 68.00 73.00
C 64.97 74.98 59.24 67.32 55.75 65.25 C 52.25 63.19 47.56 58.70 45.00 57.00
C 42.55 55.38 40.80 54.57 39.00 52.00
C 39.00 52.00 38.48 52.09 38.00 52.00
C 35.92 51.59 33.86 50.07 33.00 48.00
C 30.91 46.18 28.27 44.58 26.00 43.00
C 24.59 42.02 22.98 41.24 22.00 40.00
C 19.64 37.59 16.88 37.71 14.00 39.00 Z"/>
</g>
<g fill="None" fill-opacity="0.0" stroke="#5DABCE" stroke-opacity="0.65" stroke-width="0.3"><path d="
M 9.00 44.00 
C 10.83 42.87 12.31 39.91 14.00 39.00
C 11.88 39.95 10.39 42.21 9.00 44.00 Z"/>
</g>
<g fill="None" fill-opacity="0.0" stroke="#96D1F2" stroke-opacity="0.38" stroke-width="0.3"><path d="
M 26.00 43.00 
C 25.60 42.52 25.38 41.38 25.00 41.00
C 24.70 40.79 23.39 40.07 23.00 40.00
C 23.00 40.00 22.25 40.25 22.00 40.00
C 22.98 41.24 24.59 42.02 26.00 43.00 Z"/>
</g>
<g fill="None" fill-opacity="0.0" stroke="#C9F4FC" stroke-opacity="0.10" stroke-width="0.3"><path d="
M 26.00 43.00 
C 28.27 44.58 30.91 46.18 33.00 48.00
C 30.94 45.05 27.97 43.03 25.00 41.00
C 25.38 41.38 25.60 42.52 26.00 43.00 Z"/>
</g>
<g fill="None" fill-opacity="0.0" stroke="#5F96B8" stroke-opacity="0.60" stroke-width="0.3"><path d="
M 60.00 44.00 
C 60.90 43.10 62.06 41.96 63.00 41.00
C 61.89 41.92 61.03 42.97 60.00 44.00 Z"/>
</g>
<g fill="None" fill-opacity="0.0" stroke="#A7D1E8" stroke-opacity="0.24" stroke-width="0.3"><path d="
M 84.00 62.00 
C 91.11 57.22 103.41 50.04 108.00 43.00
C 105.60 46.60 98.71 49.23 95.25 52.25 C 91.78 55.26 87.57 59.00 84.00 62.00 Z"/>
</g>
<g fill="None" fill-opacity="0.0" stroke="#000000" stroke-opacity="0.00" stroke-width="0.3"><path d="
M 84.00 62.00 
C 82.68 62.88 81.63 63.85 80.00 64.00
C 78.63 67.29 74.64 69.17 72.00 71.00
C 71.03 71.67 70.09 72.60 69.00 73.00
C 69.00 73.00 68.35 72.77 68.00 73.00
C 68.00 73.00 67.80 73.60 68.00 74.00
C 73.68 78.96 82.89 82.69 87.00 89.00
C 87.00 89.00 87.55 88.85 88.00 89.00
C 89.59 89.54 89.97 91.11 91.00 92.00
C 91.57 92.49 92.43 92.61 93.00 93.00
C 95.97 95.03 98.94 97.05 101.00 100.00
C 101.00 100.00 101.64 99.78 102.00 100.00
C 104.11 101.31 107.25 102.63 109.00 104.00
C 110.41 94.23 108.85 83.94 109.00 74.00 C 109.15 64.06 109.90 52.95 109.00 43.00
C 109.00 43.00 108.15 42.77 108.00 43.00
C 103.41 50.04 91.11 57.22 84.00 62.00 Z"/>
</g>
<g fill="None" fill-opacity="0.0" stroke="#61AAD1" stroke-opacity="0.80" stroke-width="0.3"><path d="
M 109.00 104.00 
C 108.95 104.35 108.04 104.78 108.00 105.00
C 108.26 105.23 108.95 105.77 109.00 106.00
C 109.59 99.73 110.79 91.56 110.00 85.00 C 109.21 78.44 111.24 69.03 110.00 63.00 C 108.76 56.97 113.11 46.98 109.00 43.00
C 109.90 52.95 109.15 64.06 109.00 74.00 C 108.85 83.94 110.41 94.23 109.00 104.00 Z"/>
</g>
<g fill="None" fill-opacity="0.0" stroke="#3E7CA1" stroke-opacity="0.79" stroke-width="0.3"><path d="
M 57.00 47.00 
C 58.11 46.08 58.97 45.03 60.00 44.00
C 59.10 44.90 57.94 46.04 57.00 47.00 Z"/>
</g>
<g fill="None" fill-opacity="0.0" stroke="#4798C2" stroke-opacity="0.76" stroke-width="0.3"><path d="
M 4.00 49.00 
C 4.18 48.34 7.37 46.01 8.00 45.00
C 6.81 45.92 4.34 47.25 4.00 49.00 Z"/>
</g>
<g fill="None" fill-opacity="0.0" stroke="#5FA9D1" stroke-opacity="0.59" stroke-width="0.3"><path d="
M 38.00 52.00 
C 37.74 51.88 37.32 51.19 37.00 51.00
C 35.58 50.14 34.93 49.25 34.00 48.00
C 34.00 48.00 33.16 48.23 33.00 48.00
C 33.86 50.07 35.92 51.59 38.00 52.00 Z"/>
</g>
<g fill="None" fill-opacity="0.0" stroke="#B9F1FF" stroke-opacity="0.11" stroke-width="0.3"><path d="
M 37.00 51.00 
C 36.10 49.94 35.54 48.52 34.00 48.00
C 34.93 49.25 35.58 50.14 37.00 51.00 Z"/>
</g>
<g fill="None" fill-opacity="0.0" stroke="#598DB2" stroke-opacity="0.66" stroke-width="0.3"><path d="
M 47.00 56.00 
C 49.13 54.71 50.28 52.72 52.00 51.00
C 50.25 52.49 48.68 54.43 47.00 56.00 Z"/>
</g>
<g fill="None" fill-opacity="0.0" stroke="#96CFE9" stroke-opacity="0.34" stroke-width="0.3"><path d="
M 7.00 57.00 
C 8.15 58.01 9.86 58.90 11.00 60.00
C 9.69 58.74 8.92 56.80 7.00 56.00
C 7.00 56.00 6.75 56.79 7.00 57.00 Z"/>
</g>
<g fill="None" fill-opacity="0.0" stroke="#B4E2F4" stroke-opacity="0.14" stroke-width="0.3"><path d="
M 15.00 64.00 
C 14.77 63.84 15.00 63.00 15.00 63.00
C 13.81 62.03 12.15 61.10 11.00 60.00
C 12.29 61.24 13.55 62.76 15.00 64.00 Z"/>
</g>
<g fill="None" fill-opacity="0.0" stroke="#75B3DD" stroke-opacity="0.50" stroke-width="0.3"><path d="
M 15.00 64.00 
C 16.85 65.58 19.23 67.23 21.00 69.00
C 19.04 67.04 17.24 64.83 15.00 63.00
C 15.00 63.00 14.77 63.84 15.00 64.00 Z"/>
</g>
<g fill="None" fill-opacity="0.0" stroke="#437DA9" stroke-opacity="0.75" stroke-width="0.3"><path d="
M 76.00 67.00 
C 77.42 66.14 78.07 65.26 79.00 64.00
C 77.38 64.55 77.14 66.02 76.00 67.00 Z"/>
</g>
<g fill="None" fill-opacity="0.0" stroke="#B2D9ED" stroke-opacity="0.18" stroke-width="0.3"><path d="
M 76.00 67.00 
C 75.39 67.37 74.64 67.61 74.00 68.00
C 73.18 68.69 72.71 70.29 72.00 71.00
C 74.64 69.17 78.63 67.29 80.00 64.00
C 80.00 64.00 79.45 63.85 79.00 64.00
C 78.07 65.26 77.42 66.14 76.00 67.00 Z"/>
</g>
<g fill="None" fill-opacity="0.0" stroke="#6FA1C5" stroke-opacity="0.51" stroke-width="0.3"><path d="
M 69.00 73.00 
C 70.09 72.60 71.03 71.67 72.00 71.00
C 72.71 70.29 73.18 68.69 74.00 68.00
C 71.98 69.23 70.37 71.04 69.00 73.00 Z"/>
</g>
<g fill="None" fill-opacity="0.0" stroke="#BBEEFE" stroke-opacity="0.10" stroke-width="0.3"><path d="
M 23.00 77.00 
C 23.89 76.12 25.88 75.52 26.00 74.00
C 24.46 72.49 22.58 70.58 21.00 69.00
C 23.88 71.88 25.55 73.53 23.00 77.00 Z"/>
</g>
<g fill="None" fill-opacity="0.0" stroke="#0A6BAD" stroke-opacity="0.99" stroke-width="0.3"><path d="
M 23.00 77.00 
C 21.02 78.94 19.59 81.73 17.00 83.00
C 16.05 83.97 14.92 85.09 14.00 86.00
C 12.32 87.64 10.77 89.49 9.00 91.00
C 6.37 93.25 3.21 94.93 4.00 99.00
C 4.21 99.78 7.38 102.00 8.00 103.00
C 8.20 103.32 8.68 103.80 9.00 104.00
C 10.90 105.18 12.36 108.05 14.00 109.00
C 15.59 109.91 17.11 110.19 19.00 110.00
C 19.00 110.00 19.51 109.94 20.00 110.00
C 20.75 109.28 20.73 108.20 22.00 108.00
C 22.00 108.00 22.52 108.09 23.00 108.00
C 24.19 106.30 25.40 105.19 27.00 104.00
C 30.62 101.31 34.20 98.36 38.00 96.00
C 38.00 96.00 38.60 96.20 39.00 96.00
C 40.10 94.42 41.25 92.85 43.00 92.00
C 43.00 92.00 43.52 91.91 44.00 92.00
C 44.25 91.75 44.00 91.00 44.00 91.00
C 42.75 84.58 30.18 78.10 26.00 74.00
C 25.88 75.52 23.89 76.12 23.00 77.00 Z"/>
</g>
<g fill="None" fill-opacity="0.0" stroke="#A8DBF3" stroke-opacity="0.25" stroke-width="0.3"><path d="
M 76.00 81.00 
C 77.32 81.98 78.06 82.72 79.00 84.00
C 79.00 84.00 79.55 83.85 80.00 84.00
C 81.59 84.54 81.94 86.19 83.00 87.00
C 84.14 87.71 85.69 88.16 87.00 89.00
C 82.89 82.69 73.68 78.96 68.00 74.00
C 69.62 77.31 73.23 78.94 76.00 81.00 Z"/>
</g>
<g fill="None" fill-opacity="0.0" stroke="#99C5DC" stroke-opacity="0.28" stroke-width="0.3"><path d="
M 16.00 83.00 
C 16.41 82.81 17.00 83.00 17.00 83.00
C 19.59 81.73 21.02 78.94 23.00 77.00
C 21.45 79.12 17.88 81.27 16.00 83.00 Z"/>
</g>
<g fill="None" fill-opacity="0.0" stroke="#4E97C0" stroke-opacity="0.71" stroke-width="0.3"><path d="
M 79.00 84.00 
C 78.06 82.72 77.32 81.98 76.00 81.00
C 77.02 81.93 77.41 83.46 79.00 84.00 Z"/>
</g>
<g fill="None" fill-opacity="0.0" stroke="#659EBC" stroke-opacity="0.54" stroke-width="0.3"><path d="
M 15.00 84.00 
C 14.95 84.26 14.14 85.85 14.00 86.00
C 14.92 85.09 16.05 83.97 17.00 83.00
C 17.00 83.00 16.41 82.81 16.00 83.00
C 15.74 83.24 15.32 83.80 15.00 84.00 Z"/>
</g>
<g fill="None" fill-opacity="0.0" stroke="#B2D7EB" stroke-opacity="0.20" stroke-width="0.3"><path d="
M 12.00 108.00 
C 10.85 107.01 9.97 105.09 9.00 104.00
C 8.68 103.80 8.20 103.32 8.00 103.00
C 6.73 102.01 4.34 100.74 4.00 99.00
C 3.21 94.93 6.37 93.25 9.00 91.00
C 10.55 89.45 12.57 87.54 14.00 86.00
C 14.14 85.85 14.95 84.26 15.00 84.00
C 4.07 90.76 -0.95 100.12 12.00 108.00 Z"/>
</g>
<g fill="None" fill-opacity="0.0" stroke="#4B99C8" stroke-opacity="0.74" stroke-width="0.3"><path d="
M 83.00 87.00 
C 81.94 86.19 81.59 84.54 80.00 84.00
C 80.93 85.26 81.59 86.12 83.00 87.00 Z"/>
</g>
<g fill="None" fill-opacity="0.0" stroke="#4282A7" stroke-opacity="0.74" stroke-width="0.3"><path d="
M 9.00 91.00 
C 10.77 89.49 12.32 87.64 14.00 86.00
C 12.57 87.54 10.55 89.45 9.00 91.00 Z"/>
</g>
<g fill="None" fill-opacity="0.0" stroke="#D3EDFA" stroke-opacity="0.09" stroke-width="0.3"><path d="
M 91.00 92.00 
C 89.97 91.11 89.59 89.54 88.00 89.00
C 88.92 90.24 89.91 90.93 91.00 92.00 Z"/>
</g>
<g fill="None" fill-opacity="0.0" stroke="#BDF0FE" stroke-opacity="0.11" stroke-width="0.3"><path d="
M 44.00 92.00 
C 47.33 92.65 50.38 96.76 53.00 99.00
C 52.26 98.15 51.72 96.78 51.00 96.00
C 49.09 94.37 46.57 91.27 44.00 91.00
C 44.00 91.00 44.25 91.75 44.00 92.00 Z"/>
</g>
<g fill="None" fill-opacity="0.0" stroke="#A5CDE2" stroke-opacity="0.25" stroke-width="0.3"><path d="
M 39.00 96.00 
C 40.75 95.15 41.90 93.58 43.00 92.00
C 41.25 92.85 40.10 94.42 39.00 96.00 Z"/>
</g>
<g fill="None" fill-opacity="0.0" stroke="#69A8CA" stroke-opacity="0.55" stroke-width="0.3"><path d="
M 95.00 96.00 
C 94.24 95.28 93.73 93.62 93.00 93.00
C 92.43 92.61 91.57 92.49 91.00 92.00
C 92.34 93.32 93.34 94.82 95.00 96.00 Z"/>
</g>
<g fill="None" fill-opacity="0.0" stroke="#A0D6ED" stroke-opacity="0.27" stroke-width="0.3"><path d="
M 95.00 96.00 
C 96.95 97.39 99.02 98.48 101.00 100.00
C 98.94 97.05 95.97 95.03 93.00 93.00
C 93.73 93.62 94.24 95.28 95.00 96.00 Z"/>
</g>
<g fill="None" fill-opacity="0.0" stroke="#BBDAEE" stroke-opacity="0.19" stroke-width="0.3"><path d="
M 27.00 104.00 
C 26.26 104.74 25.73 106.38 25.00 107.00
C 29.14 104.17 35.25 100.22 38.00 96.00
C 34.20 98.36 30.62 101.31 27.00 104.00 Z"/>
</g>
<g fill="None" fill-opacity="0.0" stroke="#94CAEC" stroke-opacity="0.34" stroke-width="0.3"><path d="
M 53.00 99.00 
C 54.20 100.02 55.13 101.74 57.00 102.00
C 56.75 101.73 57.00 101.00 57.00 101.00
C 55.08 99.41 52.94 97.66 51.00 96.00
C 51.72 96.78 52.26 98.15 53.00 99.00 Z"/>
</g>
<g fill="None" fill-opacity="0.0" stroke="#3C789F" stroke-opacity="0.77" stroke-width="0.3"><path d="
M 8.00 103.00 
C 7.38 102.00 4.21 99.78 4.00 99.00
C 4.34 100.74 6.73 102.01 8.00 103.00 Z"/>
</g>
<g fill="None" fill-opacity="0.0" stroke="#ABDCF9" stroke-opacity="0.25" stroke-width="0.3"><path d="
M 103.00 102.00 
C 104.36 103.24 106.58 103.74 108.00 105.00
C 108.04 104.78 108.95 104.35 109.00 104.00
C 107.25 102.63 104.11 101.31 102.00 100.00
C 102.11 100.05 102.84 101.78 103.00 102.00 Z"/>
</g>
<g fill="None" fill-opacity="0.0" stroke="#4D99CC" stroke-opacity="0.74" stroke-width="0.3"><path d="
M 57.00 102.00 
C 57.74 102.81 59.25 103.30 60.00 104.00
C 59.02 103.00 58.16 101.96 57.00 101.00
C 57.00 101.00 56.75 101.73 57.00 102.00 Z"/>
</g>
<g fill="None" fill-opacity="0.0" stroke="#BFE5FD" stroke-opacity="0.14" stroke-width="0.3"><path d="
M 63.00 108.00 
C 61.98 106.85 61.07 105.00 60.00 104.00
C 59.25 103.30 57.74 102.81 57.00 102.00
C 59.03 103.85 60.48 106.44 63.00 108.00 Z"/>
</g>
<g fill="None" fill-opacity="0.0" stroke="#0A77C8" stroke-opacity="0.99" stroke-width="0.3"><path d="
M 89.00 130.00 
C 91.41 132.10 93.68 135.04 96.00 137.00
C 97.13 137.96 98.03 139.03 99.00 140.00
C 100.07 141.07 101.09 141.77 102.00 143.00
C 102.00 143.00 102.50 143.00 103.00 143.00
C 104.00 143.00 105.00 143.00 106.00 143.00
C 106.68 140.62 108.64 139.64 110.00 138.00
C 108.92 127.97 108.02 116.43 109.00 106.00
C 108.95 105.77 108.26 105.23 108.00 105.00
C 106.58 103.74 104.36 103.24 103.00 102.00
C 106.05 104.67 103.50 109.06 101.00 111.00
C 110.33 111.53 98.48 121.28 100.00 127.00
C 103.75 128.31 105.09 133.86 103.00 138.00
C 99.16 136.23 94.28 135.28 92.00 131.00
C 94.33 131.89 98.87 131.70 98.00 128.00
C 94.80 128.03 91.91 130.71 89.00 130.00 Z"/>
</g>
<g fill="None" fill-opacity="0.0" stroke="#5B8FB6" stroke-opacity="0.62" stroke-width="0.3"><path d="
M 12.00 108.00 
C 12.60 108.36 13.45 108.49 14.00 109.00
C 12.36 108.05 10.90 105.18 9.00 104.00
C 9.97 105.09 10.85 107.01 12.00 108.00 Z"/>
</g>
<g fill="None" fill-opacity="0.0" stroke="#96BED7" stroke-opacity="0.38" stroke-width="0.3"><path d="
M 23.00 108.00 
C 23.71 107.87 24.41 107.40 25.00 107.00
C 25.73 106.38 26.26 104.74 27.00 104.00
C 25.40 105.19 24.19 106.30 23.00 108.00 Z"/>
</g>
<g fill="None" fill-opacity="0.0" stroke="#7EBBDE" stroke-opacity="0.46" stroke-width="0.3"><path d="
M 63.00 108.00 
C 63.32 108.20 63.81 108.68 64.00 109.00
C 65.23 110.04 66.06 110.73 67.00 112.00
C 67.00 112.00 67.84 111.77 68.00 112.00
C 65.47 109.47 62.55 106.60 60.00 104.00
C 61.07 105.00 61.98 106.85 63.00 108.00 Z"/>
</g>
<g fill="None" fill-opacity="0.0" stroke="#BFDDEE" stroke-opacity="0.20" stroke-width="0.3"><path d="
M 20.00 110.00 
C 21.92 110.22 21.59 109.24 22.00 108.00
C 20.73 108.20 20.75 109.28 20.00 110.00 Z"/>
</g>
<g fill="None" fill-opacity="0.0" stroke="#BFE3F3" stroke-opacity="0.16" stroke-width="0.3"><path d="
M 19.00 110.00 
C 17.11 110.19 15.59 109.91 14.00 109.00
C 15.78 110.63 16.65 111.88 19.00 110.00 Z"/>
</g>
<g fill="None" fill-opacity="0.0" stroke="#E1FFFF" stroke-opacity="0.02" stroke-width="0.3"><path d="
M 67.00 112.00 
C 66.06 110.73 65.23 110.04 64.00 109.00
C 64.70 110.15 65.58 111.52 67.00 112.00 Z"/>
</g>
<g fill="None" fill-opacity="0.0" stroke="#B3DBF5" stroke-opacity="0.20" stroke-width="0.3"><path d="
M 97.00 139.00 
C 96.50 138.50 96.41 137.47 96.00 137.00
C 93.68 135.04 91.41 132.10 89.00 130.00
C 86.20 127.56 83.53 125.96 81.00 123.00
C 79.53 121.53 77.50 119.26 76.00 118.00
C 73.34 116.10 70.44 114.44 68.00 112.00
C 74.17 120.83 87.70 133.34 97.00 139.00 Z"/>
</g>
<g fill="None" fill-opacity="0.0" stroke="#3680B8" stroke-opacity="0.82" stroke-width="0.3"><path d="
M 81.00 123.00 
C 79.44 121.17 78.04 119.46 76.00 118.00
C 77.50 119.26 79.53 121.53 81.00 123.00 Z"/>
</g>
<g fill="None" fill-opacity="0.0" stroke="#A8D7F6" stroke-opacity="0.24" stroke-width="0.3"><path d="
M 140.00 129.00 
C 142.06 127.99 143.57 126.18 144.00 124.00
C 142.40 125.53 141.51 127.27 140.00 129.00 Z"/>
</g>
<g fill="None" fill-opacity="0.0" stroke="#B1E5FA" stroke-opacity="0.15" stroke-width="0.3"><path d="
M 136.00 131.00 
C 137.57 130.20 137.96 130.74 139.00 129.00
C 137.76 129.23 136.85 130.43 136.00 131.00 Z"/>
</g>
<g fill="None" fill-opacity="0.0" stroke="#C2F6FF" stroke-opacity="0.11" stroke-width="0.3"><path d="
M 128.00 135.00 
C 129.28 134.38 129.92 133.63 131.00 133.00
C 129.80 133.50 128.93 134.41 128.00 135.00 Z"/>
</g>
<g fill="None" fill-opacity="0.0" stroke="#69AACE" stroke-opacity="0.53" stroke-width="0.3"><path d="
M 97.00 139.00 
C 97.61 139.37 98.43 139.50 99.00 140.00
C 98.03 139.03 97.13 137.96 96.00 137.00
C 96.41 137.47 96.50 138.50 97.00 139.00 Z"/>
</g>
<g fill="None" fill-opacity="0.0" stroke="#A1CBEA" stroke-opacity="0.24" stroke-width="0.3"><path d="
M 102.00 143.00 
C 101.09 141.77 100.07 141.07 99.00 140.00
C 100.03 140.89 100.41 142.46 102.00 143.00 Z"/>
</g>
<g fill="None" fill-opacity="0.0" stroke="#8DC8EE" stroke-opacity="0.40" stroke-width="0.3"><path d="
M 110.00 143.00 
C 108.71 143.16 107.30 143.00 106.00 143.00
C 105.00 143.00 104.00 143.00 103.00 143.00
C 105.41 144.79 107.62 143.67 110.00 143.00 Z"/>
</g>
<g fill="#000000" fill-opacity="0.00" stroke="None">
<path d="
M 0.00 148.00 
L 148.00 148.00
L 148.00 0.00
L 0.00 0.00
L 0.00 148.00
M 110.00 5.00 
C 110.50 5.00 111.00 5.00 111.00 5.00
C 113.19 5.51 114.42 7.22 116.00 8.00
C 117.81 8.69 119.18 9.13 121.00 10.00
C 121.95 10.45 122.17 10.45 123.00 11.00
C 123.24 10.75 124.00 11.00 124.00 11.00
C 126.21 11.51 127.41 13.18 129.00 14.00
C 131.33 14.95 133.66 15.88 136.00 17.00
C 137.56 17.75 137.99 17.32 139.00 19.00
C 139.50 18.99 140.00 19.00 140.00 19.00
C 142.34 20.15 143.20 21.84 144.00 24.00
C 146.53 30.87 144.73 40.20 145.00 48.00 C 145.27 55.80 145.35 65.22 145.00 73.00 C 144.65 80.78 146.21 90.60 145.00 98.00 C 143.79 105.40 148.20 117.32 144.00 123.00
C 144.00 123.50 144.00 124.00 144.00 124.00
C 143.57 126.18 142.06 127.99 140.00 129.00
C 139.60 129.20 139.00 129.00 139.00 129.00
C 137.96 130.74 137.57 130.20 136.00 131.00
C 134.10 132.28 132.94 132.20 131.00 133.00
C 129.92 133.63 129.28 134.38 128.00 135.00
C 122.14 137.81 116.21 141.24 110.00 143.00
C 107.62 143.67 105.41 144.79 103.00 143.00
C 102.50 143.00 102.00 143.00 102.00 143.00
C 100.41 142.46 100.03 140.89 99.00 140.00
C 98.43 139.50 97.61 139.37 97.00 139.00
C 87.70 133.34 74.17 120.83 68.00 112.00
C 67.84 111.77 67.00 112.00 67.00 112.00
C 65.58 111.52 64.70 110.15 64.00 109.00
C 63.81 108.68 63.32 108.20 63.00 108.00
C 60.48 106.44 59.03 103.85 57.00 102.00
C 55.13 101.74 54.20 100.02 53.00 99.00
C 50.38 96.76 47.33 92.65 44.00 92.00
C 43.52 91.91 43.00 92.00 43.00 92.00
C 41.90 93.58 40.75 95.15 39.00 96.00
C 38.60 96.20 38.00 96.00 38.00 96.00
C 35.25 100.22 29.14 104.17 25.00 107.00
C 24.41 107.40 23.71 107.87 23.00 108.00
C 22.52 108.09 22.00 108.00 22.00 108.00
C 21.59 109.24 21.92 110.22 20.00 110.00
C 19.51 109.94 19.00 110.00 19.00 110.00
C 16.65 111.88 15.78 110.63 14.00 109.00
C 13.45 108.49 12.60 108.36 12.00 108.00
C -0.95 100.12 4.07 90.76 15.00 84.00
C 15.32 83.80 15.74 83.24 16.00 83.00
C 17.88 81.27 21.45 79.12 23.00 77.00
C 25.55 73.53 23.88 71.88 21.00 69.00
C 19.23 67.23 16.85 65.58 15.00 64.00
C 13.55 62.76 12.29 61.24 11.00 60.00
C 9.86 58.90 8.15 58.01 7.00 57.00
C -3.02 48.24 14.32 32.23 23.00 40.00
C 23.39 40.07 24.70 40.79 25.00 41.00
C 27.97 43.03 30.94 45.05 33.00 48.00
C 33.16 48.23 34.00 48.00 34.00 48.00
C 35.54 48.52 36.10 49.94 37.00 51.00
C 37.32 51.19 37.74 51.88 38.00 52.00
C 38.48 52.09 39.00 52.00 39.00 52.00
C 41.31 53.43 43.33 55.52 46.00 56.00
C 55.19 46.42 65.01 37.94 75.00 29.00
C 75.48 28.71 76.65 28.33 77.00 28.00
C 78.59 26.52 80.50 24.50 82.00 23.00
C 83.67 21.33 85.22 19.52 87.00 18.00
C 88.19 16.75 89.69 16.19 91.00 15.00
C 93.41 12.81 95.43 10.03 98.00 8.00
C 101.41 5.31 105.90 1.97 110.00 5.00 Z"/>
</g>
<g fill="#8DCAEA" fill-opacity="0.35" stroke="None">
<path d="
M 98.00 8.00 
C 97.58 8.50 97.39 9.58 97.00 10.00
C 99.91 7.52 102.09 5.29 106.00 5.00
C 107.32 4.90 108.68 5.00 110.00 5.00
C 105.90 1.97 101.41 5.31 98.00 8.00 Z"/>
</g>
<g fill="#0775B6" fill-opacity="0.99" stroke="None">
<path d="
M 97.00 10.00 
C 95.10 11.62 92.71 13.29 91.00 15.00
C 88.68 17.32 86.86 20.26 84.00 22.00
C 83.52 22.29 82.35 22.67 82.00 23.00
C 80.41 24.48 78.50 26.50 77.00 28.00
C 75.74 29.26 74.22 30.78 73.00 32.00
C 71.33 33.67 69.78 35.48 68.00 37.00
C 66.41 38.36 64.56 39.71 63.00 41.00
C 62.06 41.96 60.90 43.10 60.00 44.00
C 58.97 45.03 58.11 46.08 57.00 47.00
C 55.40 48.33 53.54 49.69 52.00 51.00
C 50.28 52.72 49.13 54.71 47.00 56.00
C 46.44 56.34 45.68 56.99 45.00 57.00
C 47.56 58.70 52.25 63.19 55.75 65.25 C 59.24 67.32 64.97 74.98 68.00 73.00
C 68.35 72.77 69.00 73.00 69.00 73.00
C 70.37 71.04 71.98 69.23 74.00 68.00
C 74.64 67.61 75.39 67.37 76.00 67.00
C 77.14 66.02 77.38 64.55 79.00 64.00
C 79.45 63.85 80.00 64.00 80.00 64.00
C 81.63 63.85 82.68 62.88 84.00 62.00
C 87.57 59.00 91.78 55.26 95.25 52.25 C 98.71 49.23 105.60 46.60 108.00 43.00
C 110.24 38.59 109.08 27.57 109.00 23.00 C 108.92 18.43 111.23 6.56 106.00 5.00
C 102.09 5.29 99.91 7.52 97.00 10.00 Z"/>
</g>
<g fill="#25A8F1" fill-opacity="0.99" stroke="None">
<path d="
M 108.00 43.00 
C 108.15 42.77 109.00 43.00 109.00 43.00
C 113.11 46.98 108.76 56.97 110.00 63.00 C 111.24 69.03 109.21 78.44 110.00 85.00 C 110.79 91.56 109.59 99.73 109.00 106.00
C 108.02 116.43 108.92 127.97 110.00 138.00
C 108.64 139.64 106.68 140.62 106.00 143.00
C 107.30 143.00 108.71 143.16 110.00 143.00
C 116.21 141.24 122.14 137.81 128.00 135.00
C 128.93 134.41 129.80 133.50 131.00 133.00
C 132.94 132.20 134.10 132.28 136.00 131.00
C 136.85 130.43 137.76 129.23 139.00 129.00
C 137.67 128.97 135.88 127.30 136.00 125.00
C 143.92 128.13 143.11 116.89 143.00 109.00 C 142.89 101.11 142.96 89.59 143.00 81.00 C 143.04 72.41 142.78 61.79 143.00 53.00 C 143.22 44.21 142.00 33.98 144.00 26.00
C 144.00 25.50 144.22 24.36 144.00 24.00
C 143.15 22.61 141.18 20.35 140.00 19.00
C 140.00 19.00 139.50 18.99 139.00 19.00
C 136.94 19.06 137.23 17.88 136.00 17.00
C 133.66 15.88 131.33 14.95 129.00 14.00
C 126.83 13.12 125.42 12.85 124.00 11.00
C 124.00 11.00 123.24 10.75 123.00 11.00
C 121.71 12.32 122.02 10.75 121.00 10.00
C 119.18 9.13 117.81 8.69 116.00 8.00
C 113.85 7.18 112.33 7.13 111.00 5.00
C 111.00 5.00 110.50 5.00 110.00 5.00
C 108.68 5.00 107.32 4.90 106.00 5.00
C 111.23 6.56 108.92 18.43 109.00 23.00 C 109.08 27.57 110.24 38.59 108.00 43.00 Z"/>
</g>
<g fill="#98DAF8" fill-opacity="0.34" stroke="None">
<path d="
M 116.00 8.00 
C 114.42 7.22 113.19 5.51 111.00 5.00
C 112.33 7.13 113.85 7.18 116.00 8.00 Z"/>
</g>
<g fill="#C3ECFD" fill-opacity="0.11" stroke="None">
<path d="
M 91.00 15.00 
C 92.71 13.29 95.10 11.62 97.00 10.00
C 97.39 9.58 97.58 8.50 98.00 8.00
C 95.43 10.03 93.41 12.81 91.00 15.00 Z"/>
</g>
<g fill="#A1D4EA" fill-opacity="0.40" stroke="None">
<path d="
M 123.00 11.00 
C 122.17 10.45 121.95 10.45 121.00 10.00
C 122.02 10.75 121.71 12.32 123.00 11.00 Z"/>
</g>
<g fill="#C4EFFE" fill-opacity="0.13" stroke="None">
<path d="
M 129.00 14.00 
C 127.41 13.18 126.21 11.51 124.00 11.00
C 125.42 12.85 126.83 13.12 129.00 14.00 Z"/>
</g>
<g fill="#8EC0DC" fill-opacity="0.43" stroke="None">
<path d="
M 87.00 18.00 
C 85.96 19.09 85.08 21.07 84.00 22.00
C 86.86 20.26 88.68 17.32 91.00 15.00
C 89.69 16.19 88.19 16.75 87.00 18.00 Z"/>
</g>
<g fill="#94E8F6" fill-opacity="0.31" stroke="None">
<path d="
M 139.00 19.00 
C 137.99 17.32 137.56 17.75 136.00 17.00
C 137.23 17.88 136.94 19.06 139.00 19.00 Z"/>
</g>
<g fill="#C4EDFF" fill-opacity="0.10" stroke="None">
<path d="
M 82.00 23.00 
C 82.35 22.67 83.52 22.29 84.00 22.00
C 85.08 21.07 85.96 19.09 87.00 18.00
C 85.22 19.52 83.67 21.33 82.00 23.00 Z"/>
</g>
<g fill="#94DCEE" fill-opacity="0.31" stroke="None">
<path d="
M 144.00 24.00 
C 143.20 21.84 142.34 20.15 140.00 19.00
C 141.18 20.35 143.15 22.61 144.00 24.00 Z"/>
</g>
<g fill="#9ED3EA" fill-opacity="0.29" stroke="None">
<path d="
M 77.00 28.00 
C 78.50 26.50 80.41 24.48 82.00 23.00
C 80.50 24.50 78.59 26.52 77.00 28.00 Z"/>
</g>
<g fill="#DDFFFF" fill-opacity="0.05" stroke="None">
<path d="
M 144.00 26.00 
C 144.00 58.33 144.00 90.67 144.00 123.00
C 148.20 117.32 143.79 105.40 145.00 98.00 C 146.21 90.60 144.65 80.78 145.00 73.00 C 145.35 65.22 145.27 55.80 145.00 48.00 C 144.73 40.20 146.53 30.87 144.00 24.00
C 144.22 24.36 144.00 25.50 144.00 26.00 Z"/>
</g>
<g fill="#2493CD" fill-opacity="0.99" stroke="None">
<path d="
M 139.00 129.00 
C 139.00 129.00 139.60 129.20 140.00 129.00
C 141.51 127.27 142.40 125.53 144.00 124.00
C 144.00 124.00 144.00 123.50 144.00 123.00
C 144.00 90.67 144.00 58.33 144.00 26.00
C 142.00 33.98 143.22 44.21 143.00 53.00 C 142.78 61.79 143.04 72.41 143.00 81.00 C 142.96 89.59 142.89 101.11 143.00 109.00 C 143.11 116.89 143.92 128.13 136.00 125.00
C 135.88 127.30 137.67 128.97 139.00 129.00 Z"/>
</g>
<g fill="#7CB1CB" fill-opacity="0.47" stroke="None">
<path d="
M 75.00 29.00 
C 74.18 29.70 73.69 31.25 73.00 32.00
C 74.22 30.78 75.74 29.26 77.00 28.00
C 76.65 28.33 75.48 28.71 75.00 29.00 Z"/>
</g>
<g fill="#BFE9F7" fill-opacity="0.15" stroke="None">
<path d="
M 39.00 52.00 
C 40.80 54.57 42.55 55.38 45.00 57.00
C 45.68 56.99 46.44 56.34 47.00 56.00
C 48.68 54.43 50.25 52.49 52.00 51.00
C 53.54 49.69 55.40 48.33 57.00 47.00
C 57.94 46.04 59.10 44.90 60.00 44.00
C 61.03 42.97 61.89 41.92 63.00 41.00
C 64.56 39.71 66.41 38.36 68.00 37.00
C 69.54 35.46 71.59 33.53 73.00 32.00
C 73.69 31.25 74.18 29.70 75.00 29.00
C 65.01 37.94 55.19 46.42 46.00 56.00
C 43.33 55.52 41.31 53.43 39.00 52.00 Z"/>
</g>
<g fill="#3F7FA6" fill-opacity="0.78" stroke="None">
<path d="
M 68.00 37.00 
C 69.78 35.48 71.33 33.67 73.00 32.00
C 71.59 33.53 69.54 35.46 68.00 37.00 Z"/>
</g>
<g fill="#BBEAF8" fill-opacity="0.17" stroke="None">
<path d="
M 7.00 57.00 
C 6.75 56.79 7.00 56.00 7.00 56.00
C 5.21 54.17 3.43 51.95 4.00 49.00
C 4.34 47.25 6.81 45.92 8.00 45.00
C 8.20 44.68 8.68 44.20 9.00 44.00
C 10.39 42.21 11.88 39.95 14.00 39.00
C 16.88 37.71 19.64 37.59 22.00 40.00
C 22.25 40.25 23.00 40.00 23.00 40.00
C 14.32 32.23 -3.02 48.24 7.00 57.00 Z"/>
</g>
<g fill="#0785CF" fill-opacity="0.99" stroke="None">
<path d="
M 14.00 39.00 
C 12.31 39.91 10.83 42.87 9.00 44.00
C 8.68 44.20 8.20 44.68 8.00 45.00
C 7.37 46.01 4.18 48.34 4.00 49.00
C 3.43 51.95 5.21 54.17 7.00 56.00
C 8.92 56.80 9.69 58.74 11.00 60.00
C 12.15 61.10 13.81 62.03 15.00 63.00
C 17.24 64.83 19.04 67.04 21.00 69.00
C 22.58 70.58 24.46 72.49 26.00 74.00
C 30.18 78.10 42.75 84.58 44.00 91.00
C 46.57 91.27 49.09 94.37 51.00 96.00
C 52.94 97.66 55.08 99.41 57.00 101.00
C 58.16 101.96 59.02 103.00 60.00 104.00
C 62.55 106.60 65.47 109.47 68.00 112.00
C 70.44 114.44 73.34 116.10 76.00 118.00
C 78.04 119.46 79.44 121.17 81.00 123.00
C 83.53 125.96 86.20 127.56 89.00 130.00
C 91.91 130.71 94.80 128.03 98.00 128.00
C 98.87 131.70 94.33 131.89 92.00 131.00
C 94.28 135.28 99.16 136.23 103.00 138.00
C 105.09 133.86 103.75 128.31 100.00 127.00
C 98.48 121.28 110.33 111.53 101.00 111.00
C 103.50 109.06 106.05 104.67 103.00 102.00
C 102.84 101.78 102.11 100.05 102.00 100.00
C 101.64 99.78 101.00 100.00 101.00 100.00
C 99.02 98.48 96.95 97.39 95.00 96.00
C 93.34 94.82 92.34 93.32 91.00 92.00
C 89.91 90.93 88.92 90.24 88.00 89.00
C 87.55 88.85 87.00 89.00 87.00 89.00
C 85.69 88.16 84.14 87.71 83.00 87.00
C 81.59 86.12 80.93 85.26 80.00 84.00
C 79.55 83.85 79.00 84.00 79.00 84.00
C 77.41 83.46 77.02 81.93 76.00 81.00
C 73.23 78.94 69.62 77.31 68.00 74.00
C 67.80 73.60 68.00 73.00 68.00 73.00
C 64.97 74.98 59.24 67.32 55.75 65.25 C 52.25 63.19 47.56 58.70 45.00 57.00
C 42.55 55.38 40.80 54.57 39.00 52.00
C 39.00 52.00 38.48 52.09 38.00 52.00
C 35.92 51.59 33.86 50.07 33.00 48.00
C 30.91 46.18 28.27 44.58 26.00 43.00
C 24.59 42.02 22.98 41.24 22.00 40.00
C 19.64 37.59 16.88 37.71 14.00 39.00 Z"/>
</g>
<g fill="#5DABCE" fill-opacity="0.65" stroke="None">
<path d="
M 9.00 44.00 
C 10.83 42.87 12.31 39.91 14.00 39.00
C 11.88 39.95 10.39 42.21 9.00 44.00 Z"/>
</g>
<g fill="#96D1F2" fill-opacity="0.38" stroke="None">
<path d="
M 26.00 43.00 
C 25.60 42.52 25.38 41.38 25.00 41.00
C 24.70 40.79 23.39 40.07 23.00 40.00
C 23.00 40.00 22.25 40.25 22.00 40.00
C 22.98 41.24 24.59 42.02 26.00 43.00 Z"/>
</g>
<g fill="#C9F4FC" fill-opacity="0.10" stroke="None">
<path d="
M 26.00 43.00 
C 28.27 44.58 30.91 46.18 33.00 48.00
C 30.94 45.05 27.97 43.03 25.00 41.00
C 25.38 41.38 25.60 42.52 26.00 43.00 Z"/>
</g>
<g fill="#5F96B8" fill-opacity="0.60" stroke="None">
<path d="
M 60.00 44.00 
C 60.90 43.10 62.06 41.96 63.00 41.00
C 61.89 41.92 61.03 42.97 60.00 44.00 Z"/>
</g>
<g fill="#A7D1E8" fill-opacity="0.24" stroke="None">
<path d="
M 84.00 62.00 
C 91.11 57.22 103.41 50.04 108.00 43.00
C 105.60 46.60 98.71 49.23 95.25 52.25 C 91.78 55.26 87.57 59.00 84.00 62.00 Z"/>
</g>
<g fill="#000000" fill-opacity="0.00" stroke="None">
<path d="
M 84.00 62.00 
C 82.68 62.88 81.63 63.85 80.00 64.00
C 78.63 67.29 74.64 69.17 72.00 71.00
C 71.03 71.67 70.09 72.60 69.00 73.00
C 69.00 73.00 68.35 72.77 68.00 73.00
C 68.00 73.00 67.80 73.60 68.00 74.00
C 73.68 78.96 82.89 82.69 87.00 89.00
C 87.00 89.00 87.55 88.85 88.00 89.00
C 89.59 89.54 89.97 91.11 91.00 92.00
C 91.57 92.49 92.43 92.61 93.00 93.00
C 95.97 95.03 98.94 97.05 101.00 100.00
C 101.00 100.00 101.64 99.78 102.00 100.00
C 104.11 101.31 107.25 102.63 109.00 104.00
C 110.41 94.23 108.85 83.94 109.00 74.00 C 109.15 64.06 109.90 52.95 109.00 43.00
C 109.00 43.00 108.15 42.77 108.00 43.00
C 103.41 50.04 91.11 57.22 84.00 62.00 Z"/>
</g>
<g fill="#61AAD1" fill-opacity="0.80" stroke="None">
<path d="
M 109.00 104.00 
C 108.95 104.35 108.04 104.78 108.00 105.00
C 108.26 105.23 108.95 105.77 109.00 106.00
C 109.59 99.73 110.79 91.56 110.00 85.00 C 109.21 78.44 111.24 69.03 110.00 63.00 C 108.76 56.97 113.11 46.98 109.00 43.00
C 109.90 52.95 109.15 64.06 109.00 74.00 C 108.85 83.94 110.41 94.23 109.00 104.00 Z"/>
</g>
<g fill="#3E7CA1" fill-opacity="0.79" stroke="None">
<path d="
M 57.00 47.00 
C 58.11 46.08 58.97 45.03 60.00 44.00
C 59.10 44.90 57.94 46.04 57.00 47.00 Z"/>
</g>
<g fill="#4798C2" fill-opacity="0.76" stroke="None">
<path d="
M 4.00 49.00 
C 4.18 48.34 7.37 46.01 8.00 45.00
C 6.81 45.92 4.34 47.25 4.00 49.00 Z"/>
</g>
<g fill="#5FA9D1" fill-opacity="0.59" stroke="None">
<path d="
M 38.00 52.00 
C 37.74 51.88 37.32 51.19 37.00 51.00
C 35.58 50.14 34.93 49.25 34.00 48.00
C 34.00 48.00 33.16 48.23 33.00 48.00
C 33.86 50.07 35.92 51.59 38.00 52.00 Z"/>
</g>
<g fill="#B9F1FF" fill-opacity="0.11" stroke="None">
<path d="
M 37.00 51.00 
C 36.10 49.94 35.54 48.52 34.00 48.00
C 34.93 49.25 35.58 50.14 37.00 51.00 Z"/>
</g>
<g fill="#598DB2" fill-opacity="0.66" stroke="None">
<path d="
M 47.00 56.00 
C 49.13 54.71 50.28 52.72 52.00 51.00
C 50.25 52.49 48.68 54.43 47.00 56.00 Z"/>
</g>
<g fill="#96CFE9" fill-opacity="0.34" stroke="None">
<path d="
M 7.00 57.00 
C 8.15 58.01 9.86 58.90 11.00 60.00
C 9.69 58.74 8.92 56.80 7.00 56.00
C 7.00 56.00 6.75 56.79 7.00 57.00 Z"/>
</g>
<g fill="#B4E2F4" fill-opacity="0.14" stroke="None">
<path d="
M 15.00 64.00 
C 14.77 63.84 15.00 63.00 15.00 63.00
C 13.81 62.03 12.15 61.10 11.00 60.00
C 12.29 61.24 13.55 62.76 15.00 64.00 Z"/>
</g>
<g fill="#75B3DD" fill-opacity="0.50" stroke="None">
<path d="
M 15.00 64.00 
C 16.85 65.58 19.23 67.23 21.00 69.00
C 19.04 67.04 17.24 64.83 15.00 63.00
C 15.00 63.00 14.77 63.84 15.00 64.00 Z"/>
</g>
<g fill="#437DA9" fill-opacity="0.75" stroke="None">
<path d="
M 76.00 67.00 
C 77.42 66.14 78.07 65.26 79.00 64.00
C 77.38 64.55 77.14 66.02 76.00 67.00 Z"/>
</g>
<g fill="#B2D9ED" fill-opacity="0.18" stroke="None">
<path d="
M 76.00 67.00 
C 75.39 67.37 74.64 67.61 74.00 68.00
C 73.18 68.69 72.71 70.29 72.00 71.00
C 74.64 69.17 78.63 67.29 80.00 64.00
C 80.00 64.00 79.45 63.85 79.00 64.00
C 78.07 65.26 77.42 66.14 76.00 67.00 Z"/>
</g>
<g fill="#6FA1C5" fill-opacity="0.51" stroke="None">
<path d="
M 69.00 73.00 
C 70.09 72.60 71.03 71.67 72.00 71.00
C 72.71 70.29 73.18 68.69 74.00 68.00
C 71.98 69.23 70.37 71.04 69.00 73.00 Z"/>
</g>
<g fill="#BBEEFE" fill-opacity="0.10" stroke="None">
<path d="
M 23.00 77.00 
C 23.89 76.12 25.88 75.52 26.00 74.00
C 24.46 72.49 22.58 70.58 21.00 69.00
C 23.88 71.88 25.55 73.53 23.00 77.00 Z"/>
</g>
<g fill="#0A6BAD" fill-opacity="0.99" stroke="None">
<path d="
M 23.00 77.00 
C 21.02 78.94 19.59 81.73 17.00 83.00
C 16.05 83.97 14.92 85.09 14.00 86.00
C 12.32 87.64 10.77 89.49 9.00 91.00
C 6.37 93.25 3.21 94.93 4.00 99.00
C 4.21 99.78 7.38 102.00 8.00 103.00
C 8.20 103.32 8.68 103.80 9.00 104.00
C 10.90 105.18 12.36 108.05 14.00 109.00
C 15.59 109.91 17.11 110.19 19.00 110.00
C 19.00 110.00 19.51 109.94 20.00 110.00
C 20.75 109.28 20.73 108.20 22.00 108.00
C 22.00 108.00 22.52 108.09 23.00 108.00
C 24.19 106.30 25.40 105.19 27.00 104.00
C 30.62 101.31 34.20 98.36 38.00 96.00
C 38.00 96.00 38.60 96.20 39.00 96.00
C 40.10 94.42 41.25 92.85 43.00 92.00
C 43.00 92.00 43.52 91.91 44.00 92.00
C 44.25 91.75 44.00 91.00 44.00 91.00
C 42.75 84.58 30.18 78.10 26.00 74.00
C 25.88 75.52 23.89 76.12 23.00 77.00 Z"/>
</g>
<g fill="#A8DBF3" fill-opacity="0.25" stroke="None">
<path d="
M 76.00 81.00 
C 77.32 81.98 78.06 82.72 79.00 84.00
C 79.00 84.00 79.55 83.85 80.00 84.00
C 81.59 84.54 81.94 86.19 83.00 87.00
C 84.14 87.71 85.69 88.16 87.00 89.00
C 82.89 82.69 73.68 78.96 68.00 74.00
C 69.62 77.31 73.23 78.94 76.00 81.00 Z"/>
</g>
<g fill="#99C5DC" fill-opacity="0.28" stroke="None">
<path d="
M 16.00 83.00 
C 16.41 82.81 17.00 83.00 17.00 83.00
C 19.59 81.73 21.02 78.94 23.00 77.00
C 21.45 79.12 17.88 81.27 16.00 83.00 Z"/>
</g>
<g fill="#4E97C0" fill-opacity="0.71" stroke="None">
<path d="
M 79.00 84.00 
C 78.06 82.72 77.32 81.98 76.00 81.00
C 77.02 81.93 77.41 83.46 79.00 84.00 Z"/>
</g>
<g fill="#659EBC" fill-opacity="0.54" stroke="None">
<path d="
M 15.00 84.00 
C 14.95 84.26 14.14 85.85 14.00 86.00
C 14.92 85.09 16.05 83.97 17.00 83.00
C 17.00 83.00 16.41 82.81 16.00 83.00
C 15.74 83.24 15.32 83.80 15.00 84.00 Z"/>
</g>
<g fill="#B2D7EB" fill-opacity="0.20" stroke="None">
<path d="
M 12.00 108.00 
C 10.85 107.01 9.97 105.09 9.00 104.00
C 8.68 103.80 8.20 103.32 8.00 103.00
C 6.73 102.01 4.34 100.74 4.00 99.00
C 3.21 94.93 6.37 93.25 9.00 91.00
C 10.55 89.45 12.57 87.54 14.00 86.00
C 14.14 85.85 14.95 84.26 15.00 84.00
C 4.07 90.76 -0.95 100.12 12.00 108.00 Z"/>
</g>
<g fill="#4B99C8" fill-opacity="0.74" stroke="None">
<path d="
M 83.00 87.00 
C 81.94 86.19 81.59 84.54 80.00 84.00
C 80.93 85.26 81.59 86.12 83.00 87.00 Z"/>
</g>
<g fill="#4282A7" fill-opacity="0.74" stroke="None">
<path d="
M 9.00 91.00 
C 10.77 89.49 12.32 87.64 14.00 86.00
C 12.57 87.54 10.55 89.45 9.00 91.00 Z"/>
</g>
<g fill="#D3EDFA" fill-opacity="0.09" stroke="None">
<path d="
M 91.00 92.00 
C 89.97 91.11 89.59 89.54 88.00 89.00
C 88.92 90.24 89.91 90.93 91.00 92.00 Z"/>
</g>
<g fill="#BDF0FE" fill-opacity="0.11" stroke="None">
<path d="
M 44.00 92.00 
C 47.33 92.65 50.38 96.76 53.00 99.00
C 52.26 98.15 51.72 96.78 51.00 96.00
C 49.09 94.37 46.57 91.27 44.00 91.00
C 44.00 91.00 44.25 91.75 44.00 92.00 Z"/>
</g>
<g fill="#A5CDE2" fill-opacity="0.25" stroke="None">
<path d="
M 39.00 96.00 
C 40.75 95.15 41.90 93.58 43.00 92.00
C 41.25 92.85 40.10 94.42 39.00 96.00 Z"/>
</g>
<g fill="#69A8CA" fill-opacity="0.55" stroke="None">
<path d="
M 95.00 96.00 
C 94.24 95.28 93.73 93.62 93.00 93.00
C 92.43 92.61 91.57 92.49 91.00 92.00
C 92.34 93.32 93.34 94.82 95.00 96.00 Z"/>
</g>
<g fill="#A0D6ED" fill-opacity="0.27" stroke="None">
<path d="
M 95.00 96.00 
C 96.95 97.39 99.02 98.48 101.00 100.00
C 98.94 97.05 95.97 95.03 93.00 93.00
C 93.73 93.62 94.24 95.28 95.00 96.00 Z"/>
</g>
<g fill="#BBDAEE" fill-opacity="0.19" stroke="None">
<path d="
M 27.00 104.00 
C 26.26 104.74 25.73 106.38 25.00 107.00
C 29.14 104.17 35.25 100.22 38.00 96.00
C 34.20 98.36 30.62 101.31 27.00 104.00 Z"/>
</g>
<g fill="#94CAEC" fill-opacity="0.34" stroke="None">
<path d="
M 53.00 99.00 
C 54.20 100.02 55.13 101.74 57.00 102.00
C 56.75 101.73 57.00 101.00 57.00 101.00
C 55.08 99.41 52.94 97.66 51.00 96.00
C 51.72 96.78 52.26 98.15 53.00 99.00 Z"/>
</g>
<g fill="#3C789F" fill-opacity="0.77" stroke="None">
<path d="
M 8.00 103.00 
C 7.38 102.00 4.21 99.78 4.00 99.00
C 4.34 100.74 6.73 102.01 8.00 103.00 Z"/>
</g>
<g fill="#ABDCF9" fill-opacity="0.25" stroke="None">
<path d="
M 103.00 102.00 
C 104.36 103.24 106.58 103.74 108.00 105.00
C 108.04 104.78 108.95 104.35 109.00 104.00
C 107.25 102.63 104.11 101.31 102.00 100.00
C 102.11 100.05 102.84 101.78 103.00 102.00 Z"/>
</g>
<g fill="#4D99CC" fill-opacity="0.74" stroke="None">
<path d="
M 57.00 102.00 
C 57.74 102.81 59.25 103.30 60.00 104.00
C 59.02 103.00 58.16 101.96 57.00 101.00
C 57.00 101.00 56.75 101.73 57.00 102.00 Z"/>
</g>
<g fill="#BFE5FD" fill-opacity="0.14" stroke="None">
<path d="
M 63.00 108.00 
C 61.98 106.85 61.07 105.00 60.00 104.00
C 59.25 103.30 57.74 102.81 57.00 102.00
C 59.03 103.85 60.48 106.44 63.00 108.00 Z"/>
</g>
<g fill="#0A77C8" fill-opacity="0.99" stroke="None">
<path d="
M 89.00 130.00 
C 91.41 132.10 93.68 135.04 96.00 137.00
C 97.13 137.96 98.03 139.03 99.00 140.00
C 100.07 141.07 101.09 141.77 102.00 143.00
C 102.00 143.00 102.50 143.00 103.00 143.00
C 104.00 143.00 105.00 143.00 106.00 143.00
C 106.68 140.62 108.64 139.64 110.00 138.00
C 108.92 127.97 108.02 116.43 109.00 106.00
C 108.95 105.77 108.26 105.23 108.00 105.00
C 106.58 103.74 104.36 103.24 103.00 102.00
C 106.05 104.67 103.50 109.06 101.00 111.00
C 110.33 111.53 98.48 121.28 100.00 127.00
C 103.75 128.31 105.09 133.86 103.00 138.00
C 99.16 136.23 94.28 135.28 92.00 131.00
C 94.33 131.89 98.87 131.70 98.00 128.00
C 94.80 128.03 91.91 130.71 89.00 130.00 Z"/>
</g>
<g fill="#5B8FB6" fill-opacity="0.62" stroke="None">
<path d="
M 12.00 108.00 
C 12.60 108.36 13.45 108.49 14.00 109.00
C 12.36 108.05 10.90 105.18 9.00 104.00
C 9.97 105.09 10.85 107.01 12.00 108.00 Z"/>
</g>
<g fill="#96BED7" fill-opacity="0.38" stroke="None">
<path d="
M 23.00 108.00 
C 23.71 107.87 24.41 107.40 25.00 107.00
C 25.73 106.38 26.26 104.74 27.00 104.00
C 25.40 105.19 24.19 106.30 23.00 108.00 Z"/>
</g>
<g fill="#7EBBDE" fill-opacity="0.46" stroke="None">
<path d="
M 63.00 108.00 
C 63.32 108.20 63.81 108.68 64.00 109.00
C 65.23 110.04 66.06 110.73 67.00 112.00
C 67.00 112.00 67.84 111.77 68.00 112.00
C 65.47 109.47 62.55 106.60 60.00 104.00
C 61.07 105.00 61.98 106.85 63.00 108.00 Z"/>
</g>
<g fill="#BFDDEE" fill-opacity="0.20" stroke="None">
<path d="
M 20.00 110.00 
C 21.92 110.22 21.59 109.24 22.00 108.00
C 20.73 108.20 20.75 109.28 20.00 110.00 Z"/>
</g>
<g fill="#BFE3F3" fill-opacity="0.16" stroke="None">
<path d="
M 19.00 110.00 
C 17.11 110.19 15.59 109.91 14.00 109.00
C 15.78 110.63 16.65 111.88 19.00 110.00 Z"/>
</g>
<g fill="#E1FFFF" fill-opacity="0.02" stroke="None">
<path d="
M 67.00 112.00 
C 66.06 110.73 65.23 110.04 64.00 109.00
C 64.70 110.15 65.58 111.52 67.00 112.00 Z"/>
</g>
<g fill="#B3DBF5" fill-opacity="0.20" stroke="None">
<path d="
M 97.00 139.00 
C 96.50 138.50 96.41 137.47 96.00 137.00
C 93.68 135.04 91.41 132.10 89.00 130.00
C 86.20 127.56 83.53 125.96 81.00 123.00
C 79.53 121.53 77.50 119.26 76.00 118.00
C 73.34 116.10 70.44 114.44 68.00 112.00
C 74.17 120.83 87.70 133.34 97.00 139.00 Z"/>
</g>
<g fill="#3680B8" fill-opacity="0.82" stroke="None">
<path d="
M 81.00 123.00 
C 79.44 121.17 78.04 119.46 76.00 118.00
C 77.50 119.26 79.53 121.53 81.00 123.00 Z"/>
</g>
<g fill="#A8D7F6" fill-opacity="0.24" stroke="None">
<path d="
M 140.00 129.00 
C 142.06 127.99 143.57 126.18 144.00 124.00
C 142.40 125.53 141.51 127.27 140.00 129.00 Z"/>
</g>
<g fill="#B1E5FA" fill-opacity="0.15" stroke="None">
<path d="
M 136.00 131.00 
C 137.57 130.20 137.96 130.74 139.00 129.00
C 137.76 129.23 136.85 130.43 136.00 131.00 Z"/>
</g>
<g fill="#C2F6FF" fill-opacity="0.11" stroke="None">
<path d="
M 128.00 135.00 
C 129.28 134.38 129.92 133.63 131.00 133.00
C 129.80 133.50 128.93 134.41 128.00 135.00 Z"/>
</g>
<g fill="#69AACE" fill-opacity="0.53" stroke="None">
<path d="
M 97.00 139.00 
C 97.61 139.37 98.43 139.50 99.00 140.00
C 98.03 139.03 97.13 137.96 96.00 137.00
C 96.41 137.47 96.50 138.50 97.00 139.00 Z"/>
</g>
<g fill="#A1CBEA" fill-opacity="0.24" stroke="None">
<path d="
M 102.00 143.00 
C 101.09 141.77 100.07 141.07 99.00 140.00
C 100.03 140.89 100.41 142.46 102.00 143.00 Z"/>
</g>
<g fill="#8DC8EE" fill-opacity="0.40" stroke="None">
<path d="
M 110.00 143.00 
C 108.71 143.16 107.30 143.00 106.00 143.00
C 105.00 143.00 104.00 143.00 103.00 143.00
C 105.41 144.79 107.62 143.67 110.00 143.00 Z"/>
</g>
</svg>